<?xml version="1.0" encoding="UTF-8" standalone="no"?>
<!-- Created with Inkscape (http://www.inkscape.org/) -->

<svg
   width="225mm"
   height="225mm"
   viewBox="0 0 225 225"
   version="1.1"
   id="svg1"
   sodipodi:docname="dictionary_of_the_danetian_language_logo.svg"
   inkscape:version="1.4.3 (0d15f75042, 2025-12-25)"
   xmlns:inkscape="http://www.inkscape.org/namespaces/inkscape"
   xmlns:sodipodi="http://sodipodi.sourceforge.net/DTD/sodipodi-0.dtd"
   xmlns="http://www.w3.org/2000/svg"
   xmlns:svg="http://www.w3.org/2000/svg">
  <sodipodi:namedview
     id="namedview1"
     pagecolor="#ffffff"
     bordercolor="#666666"
     borderopacity="1.0"
     inkscape:showpageshadow="2"
     inkscape:pageopacity="0.0"
     inkscape:pagecheckerboard="0"
     inkscape:deskcolor="#d1d1d1"
     inkscape:document-units="mm"
     inkscape:zoom="0.4963418"
     inkscape:cx="177.29718"
     inkscape:cy="479.50828"
     inkscape:window-width="1920"
     inkscape:window-height="1014"
     inkscape:window-x="0"
     inkscape:window-y="0"
     inkscape:window-maximized="1"
     inkscape:current-layer="svg1" />
  <defs
     id="defs1" />
  <g
     id="layer1"
     transform="translate(12.5,12.5)">
    <g
       id="g2"
       transform="translate(19.722185,4.631475)">
      <path
         d="m 100.55562,97.703162 q 0,7.386298 -2.14974,14.221378 -2.14974,6.83507 -6.83508,12.23699 -4.630207,5.34679 -12.126741,8.48872 -7.441414,3.08681 -18.079879,3.08681 H 30 v -4.8507 l 5.953131,-0.44097 q 1.212675,-0.11025 1.819012,-0.88195 0.661459,-0.7717 0.661459,-1.59852 V 67.772143 q 0,-0.826824 -0.661459,-1.598526 -0.606337,-0.826824 -1.819012,-0.881945 L 30,64.850699 V 60 h 29.104195 q 11.85114,0 21.221809,4.023875 9.370669,3.968754 14.772586,12.292113 5.45703,8.323359 5.45703,21.387174 z m -12.788207,0.220486 q 0,-11.85114 -3.63802,-18.961824 Q 80.546491,71.796018 73.931901,68.598967 67.372432,65.401915 58.442736,65.401915 h -8.598967 v 64.933225 l 9.150183,-0.11024 q 8.70921,-0.11024 15.158435,-3.30729 6.449225,-3.25218 10.032126,-10.30774 3.5829,-7.05556 3.5829,-18.686222 z"
         id="text1"
         style="font-size:112.889px;line-height:1.25;font-family:'Charis SIL';-inkscape-font-specification:'Charis SIL, Normal';fill:#1040a0;fill-opacity:1;stroke-width:0.264583"
         aria-label="D" />
      <path
         d="m 130.55562,137.70316 q 0,7.38629 -2.14974,14.22137 -2.14974,6.83507 -6.83508,12.23699 -4.63021,5.34679 -12.12675,8.48872 -7.44141,3.08681 -18.07987,3.08681 H 60 v -4.8507 l 5.953131,-0.44097 q 1.212675,-0.11025 1.819012,-0.88195 0.661459,-0.7717 0.661459,-1.59852 v -60.19277 q 0,-0.82682 -0.661459,-1.59853 -0.606337,-0.82682 -1.819012,-0.88194 L 60,104.8507 V 100 h 29.104195 q 11.851135,0 21.221805,4.02387 9.37067,3.96876 14.77259,12.29211 5.45703,8.32336 5.45703,21.38718 z m -12.78821,0.22048 q 0,-11.85114 -3.63802,-18.96182 -3.5829,-7.16581 -10.19749,-10.36286 -6.559467,-3.19705 -15.489164,-3.19705 h -8.598967 v 64.93322 l 9.150183,-0.11024 q 8.709211,-0.11024 15.158428,-3.30729 6.44923,-3.25218 10.03213,-10.30774 3.5829,-7.05556 3.5829,-18.68622 z"
         id="text1-4"
         style="font-size:112.889px;line-height:1.25;font-family:'Charis SIL';-inkscape-font-specification:'Charis SIL, Normal';fill:#fccb06;fill-opacity:1;stroke-width:0.264583"
         aria-label="D" />
      <path
         d="m 130.55563,52.70316 q 0,7.3863 -2.14974,14.22138 -2.14974,6.83507 -6.83508,12.23699 -4.63021,5.34679 -12.12675,8.48872 -7.44141,3.08681 -18.07988,3.08681 H 60 v -4.8507 l 5.95313,-0.44097 q 1.21268,-0.11025 1.81901,-0.88195 0.66146,-0.7717 0.66146,-1.59852 V 22.77214 q 0,-0.82682 -0.66146,-1.59853 -0.60633,-0.82682 -1.81901,-0.88194 L 60,19.8507 V 15 h 29.1042 q 11.85114,0 21.22181,4.02387 9.37067,3.96876 14.77259,12.29211 5.45703,8.32336 5.45703,21.38718 z m -12.78821,0.22048 q 0,-11.85114 -3.63802,-18.96182 -3.5829,-7.16581 -10.1975,-10.36286 -6.559468,-3.19705 -15.48916,-3.19705 h -8.59897 v 64.93323 l 9.15018,-0.11024 q 8.709212,-0.11024 15.15844,-3.30729 6.44923,-3.25218 10.03213,-10.30774 3.5829,-7.05556 3.5829,-18.68623 z"
         id="text1-5"
         style="font-size:112.889px;line-height:1.25;font-family:'Charis SIL';-inkscape-font-specification:'Charis SIL, Normal';fill:#ff0000;stroke-width:0.264583"
         aria-label="D" />
      <path
         id="text1-2"
         style="font-size:112.889px;line-height:1.25;font-family:'Charis SIL';-inkscape-font-specification:'Charis SIL, Normal';fill:#1040a0;fill-opacity:1;stroke-width:0.264583"
         d="m 30,60 v 4.850867 l 5.95313,0.4408 c 0.80845,0.03675 1.41478,0.330901 1.81901,0.882117 0.44097,0.514468 0.66146,1.047136 0.66146,1.598352 v 29.047319 a 38.945362,39.807617 0 0 0 11.41015,2.72438 V 65.401738 h 8.59896 c 5.95313,0 11.116,1.065853 15.48898,3.197221 4.40973,2.131367 7.80871,5.585472 10.19731,10.362676 0.45912,0.89737 0.87526,1.85173 1.24747,2.86236 a 38.945362,39.807617 0 0 0 5.0214,-11.226192 C 87.54649,67.851467 84.18879,65.660214 80.32561,64.024044 74.07851,61.341461 67.00493,60 59.10417,60 Z" />
      <path
         id="text1-6"
         style="font-size:112.889px;line-height:1.25;font-family:'Charis SIL';-inkscape-font-specification:'Charis SIL, Normal';fill:#1040a0;fill-opacity:1;stroke-width:0.264583"
         d="m 30,60 v 4.85035 l 5.95312,0.441317 c 0.80845,0.03675 1.41479,0.330384 1.81901,0.8816 0.44097,0.514468 0.66146,1.047653 0.66146,1.598869 v 16.649627 a 18.969698,29.316805 0 0 0 0.52297,0.0114 18.969698,29.316805 0 0 0 10.88719,-5.309236 V 65.401738 h 6.87658 A 18.969698,29.316805 0 0 0 57.66084,60 Z m 63.13516,38.516513 a 37.508263,11.784205 0 0 0 -5.37125,0.12144 c -0.07153,7.422807 -1.26484,13.413167 -3.57962,17.971507 -0.91426,1.80039 -1.96839,3.41524 -3.1626,4.84415 a 37.508263,11.784205 0 0 0 12.11347,0.63149 37.508263,11.784205 0 0 0 0.10335,0 c 2.2803,-3.07154 4.00271,-6.45837 5.16713,-10.16062 1.33144,-4.2333 2.04439,-8.62548 2.13889,-13.175937 a 37.508263,11.784205 0 0 0 -7.40937,-0.23203 z" />
    </g>
  </g>
</svg>
