<?xml version="1.0" encoding="UTF-8" standalone="no"?>
<!-- Created with Grafika (https://www.grafika.cc/) -->

<svg
   version="1.0"
   width="1080"
   height="1080"
   viewBox="-540.000000 -540.000000 1080.000000 1080.000000"
   preserveAspectRatio="xMinYMin meet"
   id="svg25"
   sodipodi:docname="factorial-fun-integral.svg"
   inkscape:version="1.4.1 (93de688d07, 2025-03-30)"
   xmlns:inkscape="http://www.inkscape.org/namespaces/inkscape"
   xmlns:sodipodi="http://sodipodi.sourceforge.net/DTD/sodipodi-0.dtd"
   xmlns="http://www.w3.org/2000/svg"
   xmlns:svg="http://www.w3.org/2000/svg">
  <defs
     id="defs25" />
  <sodipodi:namedview
     id="namedview25"
     pagecolor="#ffffff"
     bordercolor="#666666"
     borderopacity="1.0"
     inkscape:showpageshadow="2"
     inkscape:pageopacity="0.0"
     inkscape:pagecheckerboard="0"
     inkscape:deskcolor="#d1d1d1"
     inkscape:zoom="0.76388889"
     inkscape:cx="540"
     inkscape:cy="540"
     inkscape:window-width="1920"
     inkscape:window-height="1011"
     inkscape:window-x="0"
     inkscape:window-y="0"
     inkscape:window-maximized="1"
     inkscape:current-layer="svg25" />
  <rect
     x="-540.0"
     y="-540.0"
     width="1080"
     height="1080"
     fill="#FFFFFF"
     id="rect1" />
  <path
     d="M-448.3303527832031,-458.5118408203125 L-448.37046813964844,-458.5118408203125 Q-448.41058349609375,-458.5118408203125 -449.4473876953125,-452.5685119628906 Q-450.48419189453125,-446.62518310546875 -449.5271911621094,-438.8472595214844 L-448.5701904296875,-431.0693359375 L-447.6124267578125,-414.5564880371094 L-447.4527587890625,-402.8294372558594 L-447.1343078613281,-391.26202392578125 L-447.1343078613281,-379.854248046875 L-447.4527587890625,-364.0593566894531 L-447.692626953125,-350.4977111816406 L-447.5329895019531,-334.9418640136719 L-447.5329895019531,-320.1039733886719 L-448.01190185546875,-304.1486511230469 L-448.01190185546875,-289.5498046875 L-447.2137145996094,-277.1850280761719 L-446.73480224609375,-255.40667724609375 L-447.1343078613281,-243.6002197265625 L-447.1343078613281,-232.03280639648438 L-446.49578857421875,-220.385986328125 L-446.176513671875,-208.499267578125 L-444.98046875,-192.9434814453125 L-444.82080078125,-181.37603759765625 L-444.5015563964844,-167.97406005859375 L-443.62396240234375,-154.65228271484375 L-442.50732421875,-142.4462890625 L-441.70916748046875,-130.7200927734375 L-441.549560546875,-118.1956787109375 L-441.39068603515625,-105.431396484375 L-440.592529296875,-93.14605712890625 L-440.27325439453125,-81.339599609375 L-440.27325439453125,-68.49591064453125 L-440.43292236328125,-56.84906005859375 L-440.592529296875,-41.69189453125 L-440.592529296875,-28.84820556640625 L-440.592529296875,-15.525634765625 L-440.43292236328125,-3.8787841796875 L-440.1136474609375,11.11871337890625 L-439.47589111328125,24.52069091796875 L-439.3162841796875,38.7200927734375 L-438.8373718261719,53.47857666015625 L-437.56109619140625,83.872314453125 L-436.76373291015625,98.95001220703125 L-436.28485107421875,113.94757080078125 L-435.8059387207031,129.18414306640625 L-435.32781982421875,144.58038330078125 L-435.0085754394531,159.89715576171875 L-434.6893005371094,174.73504638671875 L-434.37005615234375,190.29168701171875 L-433.57269287109375,205.767333984375 L-433.25341796875,220.6854248046875 L-432.93414306640625,236.0816650390625 L-432.45526123046875,251.71771240234375 L-432.45526123046875,267.193359375 L-432.13677978515625,281.95184326171875 L-431.6578674316406,296.310791015625 L-431.338623046875,310.4315185546875 L-431.178955078125,324.232177734375 L-431.178955078125,338.67138671875 L-431.338623046875,352.47216796875 L-430.7802734375,364.438232421875 L-430.8605041503906,378.7972412109375 L-430.93994140625,390.44482421875 L-431.338623046875,403.4481201171875 L-431.5784606933594,417.0892333984375 L-431.6181640625,423.3514404296875 L-431.9771423339844,438.7078857421875"
     fill-rule="evenodd"
     style="fill:none;stroke:#000000;stroke-linecap:round;stroke-linejoin:round;stroke-width:10.692770957946777;"
     id="path1" />
  <path
     d="M-435.64630126953125,437.192626953125 L-436.4440612792969,437.75091552734375 Q-437.2418212890625,438.3092041015625 -429.9424133300781,438.62811279296875 Q-422.64300537109375,438.947021484375 -415.662841796875,438.02972412109375 Q-408.68267822265625,437.1124267578125 -399.3092346191406,436.4345703125 Q-389.935791015625,435.7567138671875 -384.1520690917969,435.4771728515625 Q-378.36834716796875,435.1976318359375 -372.4651184082031,435.07806396484375 Q-366.5618896484375,434.95849609375 -355.8724670410156,433.92132568359375 Q-345.18304443359375,432.8841552734375 -338.4419250488281,432.2459716796875 Q-331.7008056640625,431.6077880859375 -325.31907653808594,431.2889404296875 Q-318.9373474121094,430.9700927734375 -312.2359619140625,430.65081787109375 Q-305.5345764160156,430.33154296875 -298.754150390625,430.0523681640625 Q-291.9737243652344,429.773193359375 -284.4348602294922,429.6536865234375 Q-276.89599609375,429.5341796875 -268.24049377441406,429.2550048828125 Q-259.5849914550781,428.975830078125 -247.3794403076172,428.93572998046875 L-235.17388916015625,428.8956298828125 L-228.75204467773438,428.8956298828125 L-216.0679931640625,428.8956298828125 L-199.2358856201172,428.8956298828125 L-188.66598510742188,428.8956298828125 L-178.05596923828125,428.776123046875 Q-167.44595336914062,428.6566162109375 -159.50839233398438,428.5767822265625 L-151.57083129882812,428.4969482421875 L-144.0720672607422,428.4969482421875 L-136.57330322265625,428.4969482421875 L-126.56172180175781,428.45684814453125 Q-116.55014038085938,428.416748046875 -106.93724060058594,428.25750732421875 L-97.3243408203125,428.0982666015625 L-84.44094848632812,428.0982666015625 L-65.01617431640625,428.0982666015625 L-51.694000244140625,428.0982666015625 L-44.9132080078125,428.0982666015625 L-36.496734619140625,428.25750732421875 Q-28.08026123046875,428.416748046875 -20.142730712890625,428.65618896484375 Q-12.2052001953125,428.8956298828125 -5.14520263671875,429.0552978515625 Q1.914794921875,429.2149658203125 9.413543701171875,429.29473876953125 Q16.91229248046875,429.37451171875 24.41107177734375,429.61358642578125 Q31.90985107421875,429.8526611328125 39.169158935546875,430.17193603515625 Q46.428466796875,430.4912109375 54.16668701171875,430.8902587890625 Q61.9049072265625,431.289306640625 69.68283081054688,431.60821533203125 Q77.46075439453125,431.9271240234375 85.35818481445312,432.08673095703125 Q93.255615234375,432.246337890625 101.6319580078125,432.406005859375 Q110.00830078125,432.565673828125 116.2705078125,432.64544677734375 Q122.53271484375,432.7252197265625 128.71551513671875,432.88446044921875 Q134.8983154296875,433.043701171875 142.67623901367188,433.28314208984375 Q150.45416259765625,433.5225830078125 158.07244873046875,433.84185791015625 Q165.69073486328125,434.1611328125 172.75070190429688,434.559814453125 Q179.8106689453125,434.95849609375 186.67129516601562,435.19793701171875 Q193.53192138671875,435.4373779296875 199.99386596679688,435.67645263671875 Q206.455810546875,435.91552734375 214.43310546875,436.15496826171875 L222.410400390625,436.3944091796875 L229.51007080078125,436.3944091796875 L236.6097412109375,436.3944091796875 L242.672607421875,436.79351806640625 Q248.7354736328125,437.192626953125 256.4339599609375,437.431640625 Q264.1324462890625,437.670654296875 271.9103698730469,437.98992919921875 L279.68829345703125,438.3092041015625 L285.4319152832031,438.3092041015625 L291.175537109375,438.3092041015625 L297.8368225097656,438.26910400390625 Q304.49810791015625,438.22900390625 310.87982177734375,437.87005615234375 Q317.26153564453125,437.5111083984375 323.00555419921875,437.23193359375 Q328.74957275390625,436.9527587890625 337.32525634765625,436.673583984375 L356.271484375,438.3092041015625"
     fill-rule="evenodd"
     style="fill:none;stroke:#000000;stroke-linecap:round;stroke-linejoin:round;stroke-width:10.692770957946777;"
     id="path2" />
  <path
     d="M339.939697265625,676.2198486328125 L336.660888671875,666.8416748046875 L333.382080078125,657.4635009765625"
     fill-rule="evenodd"
     style="fill:none;stroke:#100C07;stroke-linecap:round;stroke-linejoin:round;stroke-width:10.692770957946777;"
     id="path3" />
  <path
     d="M-436.4444580078125,444.2918701171875 L-436.4444580078125,444.17236328125 Q-436.4444580078125,444.0528564453125 -434.60948181152344,438.1094970703125 Q-432.7745056152344,432.1661376953125 -429.70335388183594,424.7471923828125 L-426.6322021484375,417.3282470703125 L-420.6487731933594,403.7666015625 L-412.03338623046875,387.2537841796875 L-404.614013671875,372.6549072265625 L-398.9506530761719,362.2049560546875 L-388.580078125,344.3348388671875 L-377.8902587890625,325.4290771484375 L-367.1202087402344,306.6019287109375 L-356.1119079589844,288.25372314453125 L-345.1028137207031,269.5870361328125 L-333.2963562011719,250.9195556640625 L-321.80914306640625,232.41168212890625 L-311.03912353515625,215.57958984375 L-304.8166198730469,206.00714111328125 L-292.6916809082031,187.0203857421875 L-285.99029541015625,177.20819091796875 L-279.20947265625,167.47613525390625 L-272.02996826171875,157.983154296875 L-265.0093078613281,148.40997314453125 L-257.8298034667969,139.156005859375 L-250.96957397460938,130.06170654296875 L-244.02914428710938,120.7283935546875 L-237.00927734375,111.7135009765625 L-229.58993530273438,102.46038818359375 L-222.48983764648438,93.52490234375 L-207.17303466796875,75.73577880859375 L-199.5948486328125,66.720947265625 L-191.77682495117188,57.866455078125 L-183.87939453125,49.33050537109375 L-176.14157104492188,40.87469482421875 L-168.08447265625,32.81683349609375 L-159.86697387695312,24.20147705078125 L-151.09194946289062,15.5860595703125 L-142.71560668945312,7.13031005859375 L-133.78094482421875,-1.1666259765625 L-125.08612060546875,-9.303955078125 L-108.09356689453125,-23.982177734375 L-100.35575866699219,-31.002044677734375 Q-92.61795043945312,-38.02191162109375 -84.79991149902344,-44.2047119140625 L-76.98187255859375,-50.38751220703125 L-68.7254638671875,-56.769256591796875 L-60.46905517578125,-63.1510009765625 L-52.371856689453125,-69.25396728515625 L-44.274658203125,-75.35693359375 L-36.456634521484375,-81.29986572265625 Q-28.63861083984375,-87.2427978515625 -20.94049072265625,-92.66754150390625 L-13.24237060546875,-98.09228515625 L3.03143310546875,-109.0211181640625 L19.22576904296875,-119.3917236328125 L27.282867431640625,-124.69692993164062 Q35.3399658203125,-130.00213623046875 43.117889404296875,-134.70849609375 L50.89581298828125,-139.41485595703125 L65.4144287109375,-147.791259765625 L80.731201171875,-156.247802734375 L88.54922485351562,-160.3958740234375 Q96.36724853515625,-164.5439453125 104.26470947265625,-168.37313842773438 L112.16217041015625,-172.20233154296875 L127.5592041015625,-179.8607177734375 L135.45663452148438,-183.7296142578125 Q143.35406494140625,-187.5985107421875 151.65060424804688,-191.427734375 Q159.9471435546875,-195.2569580078125 167.60552978515625,-198.56753540039062 L175.263916015625,-201.87811279296875 L182.72259521484375,-205.02947998046875 Q190.1812744140625,-208.18084716796875 199.07620239257812,-211.37149047851562 Q207.97113037109375,-214.5621337890625 216.74618530273438,-217.31442260742188 L225.521240234375,-220.06671142578125 L241.4765625,-225.09234619140625 L250.73007202148438,-228.04397583007812 Q259.98358154296875,-230.99560546875 271.1523132324219,-233.90750122070312 Q282.321044921875,-236.81939697265625 293.2896423339844,-239.17259216308594 Q304.25823974609375,-241.52578735351562 314.8682556152344,-243.44058227539062 Q325.478271484375,-245.35537719726562 331.2619934082031,-246.27267456054688 Q337.04571533203125,-247.18997192382812 348.0146789550781,-248.86532592773438 Q358.983642578125,-250.54067993164062 368.07794189453125,-251.8169403076172 L386.10693359375,-254.92779541015625"
     fill-rule="evenodd"
     style="fill:none;stroke:#100C07;stroke-linecap:round;stroke-linejoin:round;stroke-width:10.692770957946777;"
     id="path4" />
  <path
     d="M-436.4444580078125,267.99151611328125 L-436.4444580078125,268.151123046875 L-436.12518310546875,281.95184326171875 L-435.4866943359375,296.869873046875 L-434.84893798828125,308.6763916015625 L-433.8518371582031,315.53704833984375 Q-432.854736328125,322.397705078125 -432.53546142578125,329.4576416015625 L-432.2161865234375,336.517578125 L-431.89691162109375,349.281005859375 L-430.93994140625,360.9278564453125 L-430.93994140625,372.89404296875 L-430.93994140625,386.8551025390625 L-431.338623046875,399.29931640625 L-431.338623046875,411.584716796875 L-431.49822998046875,424.5880126953125 L-431.8973083496094,430.6905517578125 L-433.33282470703125,438.22900390625"
     fill-rule="evenodd"
     style="fill:none;stroke:#F5060B;stroke-linecap:round;stroke-linejoin:round;stroke-width:10.692770957946777;"
     id="path5" />
  <path
     d="M-438.4386901855469,266.95428466796875 L-438.5185089111328,267.0340881347656 Q-438.59832763671875,267.1138916015625 -432.73480224609375,268.03118896484375 Q-426.87127685546875,268.948486328125 -419.2926940917969,269.5866394042969 Q-411.714111328125,270.22479248046875 -403.81666564941406,269.108154296875 Q-395.9192199707031,267.99151611328125 -388.77943420410156,267.7520751953125 Q-381.6396484375,267.51263427734375 -375.89564514160156,266.794677734375 Q-370.1516418457031,266.07672119140625 -363.8894348144531,264.6011047363281 Q-357.6272277832031,263.12548828125 -352.0432586669922,261.92864990234375 Q-346.45928955078125,260.7318115234375 -341.59288024902344,263.7235107421875 Q-336.7264709472656,266.7152099609375 -337.08544921875,273.21649169921875 L-337.4444274902344,279.7177734375 L-337.68426513671875,295.1942138671875 L-337.60406494140625,309.2347412109375 L-338.162353515625,322.238037109375 L-337.364990234375,336.9957275390625 L-336.56683349609375,350.6375732421875 L-336.4072265625,363.640869140625 L-335.9291076660156,375.1280517578125 L-335.6098327636719,388.45068359375 L-334.9713134765625,401.214111328125 L-334.0142822265625,413.2603759765625 L-333.6950378417969,419.48248291015625 L-333.6950378417969,428.8162841796875"
     fill-rule="evenodd"
     style="fill:none;stroke:#F5060B;stroke-linecap:round;stroke-linejoin:round;stroke-width:10.692770957946777;"
     id="path6" />
  <path
     d="M-342.70989990234375,268.4696044921875 L-342.70989990234375,268.310791015625 L-341.9117431640625,256.10479736328125 L-340.4758605957031,242.94189453125 L-340.31622314453125,231.21563720703125 L-340.31622314453125,217.9732666015625 L-340.95477294921875,204.5712890625 L-341.1143798828125,192.52496337890625 L-341.2740173339844,181.03778076171875 L-341.43365478515625,168.034423828125 L-341.43365478515625,156.14776611328125 L-341.43365478515625,144.02203369140625 L-341.43365478515625,131.65728759765625 L-341.3538360595703,125.95339965820312 Q-341.2740173339844,120.24951171875 -336.16815185546875,116.57992553710938 Q-331.0622863769531,112.91033935546875 -324.7603759765625,112.91033935546875 L-312.71485900878906,112.91033935546875 L-306.97125244140625,112.91033935546875 L-300.54942321777344,112.75070190429688 Q-294.1275939941406,112.591064453125 -287.90509033203125,111.87313842773438 Q-281.6825866699219,111.15521240234375 -275.6995391845703,110.47735595703125 Q-269.71649169921875,109.79949951171875 -263.9724884033203,108.84210205078125 Q-258.2284851074219,107.88470458984375 -252.36537170410156,107.60556030273438 L-239.16311645507812,109.4000244140625"
     fill-rule="evenodd"
     style="fill:none;stroke:#F5060B;stroke-linecap:round;stroke-linejoin:round;stroke-width:10.692770957946777;"
     id="path7" />
  <path
     d="M-235.73220825195312,110.5174560546875 L-235.73220825195312,110.43765258789062 Q-235.73220825195312,110.35784912109375 -235.01425170898438,116.65975952148438 L-234.29629516601562,122.961669921875 L-233.81820678710938,135.08740234375 L-233.33929443359375,147.1336669921875 L-233.02005004882812,161.49267578125 L-233.02005004882812,174.1767578125 L-233.02005004882812,186.06341552734375 L-233.17965698242188,199.9443359375 L-233.33929443359375,211.8302001953125 L-233.6585693359375,224.67388916015625 L-234.0572509765625,237.27850341796875 L-234.37652587890625,249.32403564453125 L-235.4931640625,261.29010009765625 L-236.05148315429688,274.2139892578125 L-236.92904663085938,286.97747802734375 L-237.64700317382812,299.183349609375 L-238.04568481445312,312.58544921875 L-238.04568481445312,325.0296630859375 L-238.04568481445312,337.713623046875 L-238.04568481445312,350.3182373046875 L-238.04568481445312,362.9228515625 L-238.04568481445312,374.8890380859375 L-237.72720336914062,387.173583984375 L-237.24832153320312,400.0172119140625 L-236.45016479492188,412.54248046875 L-236.13128662109375,418.28607177734375 L-235.81240844726562,427.619384765625"
     fill-rule="evenodd"
     style="fill:none;stroke:#F5060B;stroke-linecap:round;stroke-linejoin:round;stroke-width:10.692770957946777;"
     id="path8" />
  <path
     d="M-236.45016479492188,118.0162353515625 L-236.49026489257812,117.85659790039062 Q-236.53036499023438,117.69696044921875 -236.84962463378906,111.83343505859375 L-237.16888427734375,105.96990966796875 L-237.24832153320312,93.2064208984375 L-236.7694091796875,80.1229248046875 L-236.69000244140625,67.1998291015625 L-236.7694091796875,53.55877685546875 L-236.60980224609375,40.95416259765625 L-236.13168334960938,29.4669189453125 L-235.65277099609375,16.94171142578125 L-235.65277099609375,4.8167724609375 L-235.9319305419922,-0.887115478515625 Q-236.21109008789062,-6.59100341796875 -230.1482391357422,-9.34326171875 Q-224.08538818359375,-12.09552001953125 -218.34178161621094,-11.69683837890625 Q-212.59817504882812,-11.29815673828125 -206.49560546875,-10.500396728515625 Q-200.39303588867188,-9.70263671875 -193.7317352294922,-9.144317626953125 Q-187.0704345703125,-8.58599853515625 -180.8479461669922,-8.625701904296875 Q-174.62545776367188,-8.6654052734375 -168.2437286376953,-9.10418701171875 Q-161.86199951171875,-9.54296875 -155.79913330078125,-10.101287841796875 Q-149.73626708984375,-10.65960693359375 -143.7532196044922,-11.4573974609375 L-130.27139282226562,-12.8936767578125"
     fill-rule="evenodd"
     style="fill:none;stroke:#F5060B;stroke-linecap:round;stroke-linejoin:round;stroke-width:10.692770957946777;"
     id="path9" />
  <path
     d="M-126.12252807617188,-9.303955078125 L-126.16264343261719,-9.303955078125 Q-126.2027587890625,-9.303955078125 -125.88348388671875,-1.206756591796875 L-125.564208984375,6.89044189453125 L-124.92648315429688,23.802734375 L-123.01168823242188,39.75732421875 L-121.89505004882812,52.68121337890625 L-121.41616821289062,65.04595947265625 L-121.41616821289062,79.00628662109375 L-121.89505004882812,92.16925048828125 L-123.57000732421875,104.53399658203125 L-124.52740478515625,110.47732543945312 Q-125.48480224609375,116.420654296875 -125.76396179199219,122.32391357421875 L-126.04312133789062,128.2271728515625 L-126.52200317382812,140.03363037109375 L-126.76107788085938,152.55804443359375 L-126.84048461914062,164.12542724609375 L-127.31939697265625,178.16595458984375 L-127.15975952148438,192.285888671875 L-127.15975952148438,206.56549072265625 L-126.84048461914062,221.40338134765625 L-126.681640625,233.28924560546875 L-126.52200317382812,245.57464599609375 L-126.36239624023438,258.0196533203125 L-126.36239624023438,271.9005126953125 L-126.2027587890625,284.26531982421875 L-125.88348388671875,298.783935546875 L-125.564208984375,313.621826171875 L-125.24575805664062,328.06103515625 L-125.08612060546875,343.9361572265625 L-125.08612060546875,358.7740478515625 L-124.92648315429688,372.495361328125 L-124.92648315429688,384.5416259765625 L-124.92648315429688,398.0230712890625 L-124.92648315429688,411.584716796875 L-124.766845703125,417.6475830078125 L-124.44760131835938,428.8162841796875"
     fill-rule="evenodd"
     style="fill:none;stroke:#F5060B;stroke-linecap:round;stroke-linejoin:round;stroke-width:10.692770957946777;"
     id="path10" />
  <path
     d="M-22.57574462890625,424.6673583984375 L-22.41650390625,424.5478515625 Q-22.25726318359375,424.4283447265625 -22.25726318359375,418.0863037109375 L-22.25726318359375,411.7442626953125 L-23.21429443359375,400.257080078125 L-24.57073974609375,385.7376708984375 L-25.6873779296875,374.25048828125 L-26.724609375,361.327392578125 L-27.76104736328125,348.1644287109375 L-28.23992919921875,334.2835693359375 L-28.32012939453125,320.084228515625 L-27.52197265625,306.2032470703125 L-27.0430908203125,293.2794189453125 L-26.40533447265625,281.632568359375 L-26.0860595703125,267.59283447265625 L-25.44830322265625,253.6317138671875 L-25.12908935546875,241.98486328125 L-24.809814453125,229.6201171875 L-24.809814453125,217.334716796875 L-24.809814453125,204.810302734375 L-24.96942138671875,191.24871826171875 L-25.6873779296875,177.04852294921875 L-26.4847412109375,162.68951416015625 L-27.6021728515625,148.569580078125 L-28.47894287109375,133.731689453125 L-29.436767578125,118.6539306640625 L-29.83544921875,107.0865478515625 L-30.15472412109375,94.96160888671875 L-30.55340576171875,83.3941650390625 L-30.95208740234375,69.19403076171875 L-31.19195556640625,56.510009765625 L-31.43096923828125,43.985595703125 L-31.43096923828125,31.54058837890625 L-31.43096923828125,19.49505615234375 L-31.5103759765625,4.337890625 L-31.59063720703125,-10.42059326171875 L-31.98931884765625,-23.6629638671875 L-32.14892578125,-36.4263916015625 L-32.22833251953125,-48.63232421875 L-33.26556396484375,-62.51324462890625 L-33.664642333984375,-68.29653930664062 Q-34.063720703125,-74.079833984375 -39.288726806640625,-77.47024536132812 Q-44.51373291015625,-80.86065673828125 -50.61669921875,-80.46197509765625 Q-56.71966552734375,-80.06329345703125 -62.90203857421875,-79.8238525390625 Q-69.08441162109375,-79.58441162109375 -74.9078369140625,-79.10589599609375 Q-80.73126220703125,-78.62738037109375 -86.75442504882812,-77.51034545898438 Q-92.777587890625,-76.393310546875 -98.52117919921875,-75.59555053710938 Q-104.2647705078125,-74.79779052734375 -110.28753662109375,-74.6385498046875 Q-116.310302734375,-74.47930908203125 -122.17381286621094,-74.3197021484375 Q-128.03732299804688,-74.16009521484375 -129.35369873046875,-67.33917236328125 Q-130.67007446289062,-60.51824951171875 -130.11175537109375,-54.0169677734375 L-129.55343627929688,-47.51568603515625 L-128.91531372070312,-41.21337890625 Q-128.27719116210938,-34.91107177734375 -128.27719116210938,-28.967742919921875 L-126.76107788085938,-12.25518798828125"
     fill-rule="evenodd"
     style="fill:none;stroke:#F5060B;stroke-linecap:round;stroke-linejoin:round;stroke-width:10.692770957946777;"
     id="path11" />
  <path
     d="M71.477294921875,427.06103515625 L71.477294921875,426.9808349609375 L70.9189453125,414.8551025390625 L70.44085693359375,402.730224609375 L70.44085693359375,390.843505859375 L69.882568359375,377.0428466796875 L69.163818359375,363.0023193359375 L69.163818359375,348.88232421875 L69.163818359375,333.406005859375 L68.8453369140625,319.8443603515625 L67.9677734375,307.7186279296875 L66.9305419921875,295.353759765625 L65.9735107421875,283.0684814453125 L65.25555419921875,271.261962890625 L64.37799072265625,256.5035400390625 L63.42022705078125,242.0650634765625 L62.86187744140625,227.46624755859375 L62.7022705078125,212.30908203125 L62.86187744140625,200.90130615234375 L63.02154541015625,185.90380859375 L63.34075927734375,171.5447998046875 L63.34075927734375,157.9029541015625 L63.34075927734375,144.26190185546875 L63.10174560546875,131.25860595703125 L63.10174560546875,117.7763671875 L62.46319580078125,105.3321533203125 L62.3035888671875,93.6845703125 L62.22418212890625,81.71844482421875 L62.22418212890625,69.27423095703125 L61.98431396484375,55.552978515625 L61.98431396484375,41.512451171875 L61.98431396484375,27.79119873046875 L62.1439208984375,14.38922119140625 L62.1439208984375,1.625732421875 L62.1439208984375,-11.29815673828125 L62.1439208984375,-23.18402099609375 L61.5062255859375,-35.54962158203125 L60.309326171875,-46.877197265625 L59.0330810546875,-59.4818115234375 L57.995849609375,-72.0062255859375 L57.83624267578125,-85.48760986328125 L57.7568359375,-98.01202392578125 L57.7568359375,-109.89874267578125 L57.6766357421875,-121.3065185546875 L57.477264404296875,-127.44918823242188 Q57.27789306640625,-133.59185791015625 54.166656494140625,-138.49798583984375 Q51.055419921875,-143.40411376953125 45.112091064453125,-142.28707885742188 Q39.16876220703125,-141.1700439453125 33.225799560546875,-140.53192138671875 Q27.2828369140625,-139.893798828125 20.98052978515625,-139.09603881835938 Q14.67822265625,-138.29827880859375 8.376312255859375,-137.89956665039062 Q2.07440185546875,-137.5008544921875 -3.70928955078125,-137.18161010742188 Q-9.49298095703125,-136.86236572265625 -15.476043701171875,-136.78253173828125 Q-21.4591064453125,-136.70269775390625 -27.28253173828125,-137.34085083007812 Q-33.10595703125,-137.97900390625 -36.3768310546875,-133.23251342773438 Q-39.647705078125,-128.48602294921875 -38.6104736328125,-120.66839599609375 L-37.5732421875,-112.85076904296875 L-35.97772216796875,-95.85821533203125 L-34.7415771484375,-88.79824829101562 L-32.22833251953125,-72.8837890625"
     fill-rule="evenodd"
     style="fill:none;stroke:#F5060B;stroke-linecap:round;stroke-linejoin:round;stroke-width:10.692770957946777;"
     id="path12" />
  <path
     d="M171.35491943359375,424.9866943359375 L171.3148193359375,424.9866943359375 Q171.27471923828125,424.9866943359375 169.958740234375,419.04376220703125 Q168.64276123046875,413.100830078125 168.64276123046875,406.83819580078125 L168.64276123046875,394.2335205078125 L168.64276123046875,387.8914794921875 L168.40289306640625,373.6119384765625 L167.8446044921875,361.0875244140625 L167.8446044921875,348.243896484375 L167.36651611328125,336.35791015625 L166.56829833984375,324.1519775390625 L165.5311279296875,312.664794921875 L163.935546875,298.8641357421875 L162.739501953125,285.302490234375 L162.2606201171875,271.261962890625 L161.6220703125,257.4613037109375 L160.82470703125,243.58038330078125 L159.9471435546875,229.53985595703125 L158.9901123046875,216.21807861328125 L158.19195556640625,202.97576904296875 L158.0323486328125,189.73260498046875 L158.0323486328125,176.091552734375 L158.19195556640625,162.45050048828125 L158.9901123046875,149.4471435546875 L159.30859375,136.12457275390625 L159.46826171875,124.0791015625 L159.46826171875,112.67132568359375 L159.22918701171875,98.86981201171875 L158.6708984375,86.90374755859375 L158.59063720703125,75.017822265625 L158.59063720703125,62.8118896484375 L158.59063720703125,50.0484619140625 L158.909912109375,36.80609130859375 L159.22918701171875,23.563720703125 L159.22918701171875,10.7994384765625 L159.22918701171875,-0.84735107421875 L158.75030517578125,-12.25518798828125 L158.0323486328125,-25.65716552734375 L157.15478515625,-39.13934326171875 L156.9951171875,-51.18487548828125 L156.91571044921875,-64.18817138671875 L156.8363037109375,-76.31390380859375 L156.8363037109375,-88.7589111328125 L156.8363037109375,-101.12371826171875 L156.8363037109375,-113.328857421875 L156.9951171875,-126.09307861328125 L156.9951171875,-138.0592041015625 L156.43682861328125,-150.74322509765625 L155.63946533203125,-162.39007568359375 L155.08111572265625,-174.7548828125 L154.8416748046875,-180.49887084960938 Q154.60223388671875,-186.24285888671875 148.61917114257812,-188.63613891601562 Q142.6361083984375,-191.0294189453125 137.01205444335938,-190.072021484375 Q131.38800048828125,-189.1146240234375 124.92645263671875,-188.1572265625 Q118.46490478515625,-187.1998291015625 112.3619384765625,-186.48190307617188 Q106.25897216796875,-185.76397705078125 100.39584350585938,-185.12582397460938 Q94.53271484375,-184.4876708984375 88.31021118164062,-184.32803344726562 Q82.08770751953125,-184.16839599609375 76.30398559570312,-183.76971435546875 Q70.520263671875,-183.37103271484375 64.736572265625,-183.57037353515625 Q58.952880859375,-183.76971435546875 56.320526123046875,-177.666748046875 Q53.68817138671875,-171.56378173828125 54.7249755859375,-164.10513305664062 L55.76177978515625,-156.646484375 L56.40032958984375,-150.9822998046875 L58.793212890625,-135.1873779296875"
     fill-rule="evenodd"
     style="fill:none;stroke:#F5060B;stroke-linecap:round;stroke-linejoin:round;stroke-width:10.692770957946777;"
     id="path13" />
  <path
     d="M276.6568603515625,435.8360595703125 L276.6568603515625,435.676513671875 L277.6138916015625,423.4713134765625 L277.93316650390625,410.5474853515625 L277.93316650390625,404.56439208984375 Q277.93316650390625,398.581298828125 278.5712890625,392.3592529296875 L279.20941162109375,386.13720703125 L280.007568359375,372.495361328125 L280.007568359375,359.41259765625 L279.60809326171875,346.6483154296875 L278.81072998046875,333.7252197265625 L278.33184814453125,319.605224609375 L277.93316650390625,308.1180419921875 L277.53448486328125,296.630126953125 L276.736328125,285.2222900390625 L275.3004150390625,271.74090576171875 L274.26318359375,258.97662353515625 L272.9869384765625,246.53240966796875 L271.94970703125,234.2470703125 L271.23175048828125,221.72265625 L270.91326904296875,208.40008544921875 L270.5137939453125,194.35955810546875 L270.1953125,182.87237548828125 L270.1151123046875,170.82684326171875 L269.4774169921875,159.2593994140625 L268.91827392578125,147.85162353515625 L267.32354736328125,134.927734375 L266.28631591796875,121.92523193359375 L265.40875244140625,109.16094970703125 L264.6907958984375,96.79620361328125 L264.2921142578125,83.872314453125 L263.73297119140625,70.94921875 L263.41455078125,58.18572998046875 L263.1746826171875,45.74072265625 L263.09527587890625,34.25274658203125 L262.53692626953125,22.4462890625 L261.9786376953125,10.9591064453125 L261.8984375,-0.52813720703125 L261.65936279296875,-13.53143310546875 L261.18048095703125,-25.337890625 L260.78179931640625,-37.5438232421875 L260.38311767578125,-50.547119140625 L260.3028564453125,-63.5496826171875 L260.3028564453125,-76.154296875 L259.9041748046875,-88.59930419921875 L259.74456787109375,-100.24609375 L259.74456787109375,-111.65386962890625 L259.74456787109375,-124.0186767578125 L259.18621826171875,-135.82513427734375 L258.94720458984375,-147.631591796875 L258.94720458984375,-160.15679931640625 L258.6279296875,-171.80364990234375 L258.069580078125,-183.68951416015625 L256.63372802734375,-195.0972900390625 L255.915771484375,-201.08035278320312 Q255.19781494140625,-207.06341552734375 255.15771484375,-212.88720703125 Q255.11761474609375,-218.71099853515625 250.69036865234375,-222.7395477294922 Q246.26312255859375,-226.76809692382812 240.08035278320312,-226.52865600585938 Q233.8975830078125,-226.28921508789062 228.19369506835938,-225.89053344726562 Q222.48980712890625,-225.49185180664062 216.6663818359375,-224.8533172607422 Q210.84295654296875,-224.21478271484375 205.099365234375,-224.0555419921875 Q199.35577392578125,-223.89630126953125 193.21307373046875,-223.25778198242188 L187.07037353515625,-222.6192626953125 L181.16714477539062,-222.6192626953125 L169.08154296875,-222.6192626953125 L156.91610717773438,-222.6192626953125 Q150.93304443359375,-222.6192626953125 149.69650268554688,-216.19781494140625 Q148.4599609375,-209.7763671875 149.29742431640625,-203.35452270507812 L152.8470458984375,-190.550537109375"
     fill-rule="evenodd"
     style="fill:none;stroke:#F5060B;stroke-linecap:round;stroke-linejoin:round;stroke-width:10.692770957946777;"
     id="path14" />
  <path
     d="M-437.7207336425781,469.2613525390625 L-437.7207336425781,469.1815185546875 Q-437.7207336425781,469.1016845703125 -436.8832550048828,476.1219482421875 L-436.0457763671875,483.1422119140625 L-433.4924621582031,499.017333984375 L-432.69468688964844,504.84075927734375 L-430.7802734375,517.4449462890625"
     fill-rule="evenodd"
     style="fill:none;stroke:#F5060B;stroke-linecap:round;stroke-linejoin:round;stroke-width:10.692770957946777;"
     id="path15" />
  <path
     d="M-352.04327392578125,482.5838623046875 L-352.04327392578125,482.34442138671875 Q-352.04327392578125,482.10498046875 -348.6131591796875,477.43829345703125 Q-345.18304443359375,472.7716064453125 -340.7554168701172,478.15625 Q-336.3277893066406,483.5408935546875 -337.16526794433594,489.4044189453125 L-338.00274658203125,495.2679443359375 L-339.1197814941406,501.09136962890625 Q-340.23681640625,506.914794921875 -334.61273193359375,509.18853759765625 L-322.8455810546875,510.6641845703125"
     fill-rule="evenodd"
     style="fill:none;stroke:#F5060B;stroke-linecap:round;stroke-linejoin:round;stroke-width:10.692770957946777;"
     id="path16" />
  <path
     d="M-248.17718505859375,472.85107421875 L-248.2570037841797,472.771240234375 Q-248.33682250976562,472.69140625 -242.91209411621094,467.4664306640625 Q-237.48736572265625,462.241455078125 -234.21688842773438,466.9879150390625 Q-230.9464111328125,471.734375 -231.3450927734375,477.99658203125 Q-231.7437744140625,484.2587890625 -225.9203643798828,488.60662841796875 Q-220.09695434570312,492.9544677734375 -222.0113525390625,498.77789306640625 Q-223.92575073242188,504.601318359375 -230.10853576660156,507.35357666015625 L-239.32275390625,509.228271484375"
     fill-rule="evenodd"
     style="fill:none;stroke:#F5060B;stroke-linecap:round;stroke-linejoin:round;stroke-width:10.692770957946777;"
     id="path17" />
  <path
     d="M-123.4906005859375,480.8287353515625 L-123.53030395507812,480.8287353515625 L-119.18289184570312,483.062744140625"
     fill-rule="evenodd"
     style="fill:none;stroke:#F5060B;stroke-linecap:round;stroke-linejoin:round;stroke-width:10.692770957946777;"
     id="path18" />
  <path
     d="M-72.1158447265625,472.7716064453125 L-72.1956787109375,472.8514404296875 L-75.70562744140625,476.281982421875"
     fill-rule="evenodd"
     style="fill:none;stroke:#F5060B;stroke-linecap:round;stroke-linejoin:round;stroke-width:10.692770957946777;"
     id="path19" />
  <path
     d="M-27.44256591796875,477.318359375 L-27.56207275390625,477.238525390625 L-29.436767578125,479.073486328125"
     fill-rule="evenodd"
     style="fill:none;stroke:#F5060B;stroke-linecap:round;stroke-linejoin:round;stroke-width:10.692770957946777;"
     id="path20" />
  <path
     d="M258.46832275390625,512.2596435546875 L258.5481262207031,512.2596435546875 Q258.6279296875,512.2596435546875 258.3487548828125,504.1624755859375 Q258.069580078125,496.0653076171875 258.7077331542969,488.925537109375 L259.34588623046875,481.7857666015625 L259.66473388671875,474.765869140625 Q259.98358154296875,467.7459716796875 264.57086181640625,474.4866943359375 Q269.15814208984375,481.2274169921875 273.4658203125,485.9342041015625 Q277.77349853515625,490.6409912109375 282.87896728515625,494.310546875 Q287.98443603515625,497.9801025390625 293.92779541015625,499.77496337890625 Q299.87115478515625,501.56982421875 303.74005126953125,496.98297119140625 Q307.60894775390625,492.3961181640625 307.2499694824219,484.1392822265625 L306.8909912109375,475.8824462890625 L306.6118469238281,469.85968017578125 Q306.33270263671875,463.8369140625 304.89678955078125,458.05322265625 L303.06219482421875,451.3125"
     fill-rule="evenodd"
     style="fill:none;stroke:#F5060B;stroke-linecap:round;stroke-linejoin:round;stroke-width:10.692770957946777;"
     id="path21" />
  <path
     d="M-414.42626953125,-355.0444641113281 L-414.34686279296875,-354.805419921875 Q-414.2674560546875,-354.5663757324219 -407.0077362060547,-367.21031188964844 Q-399.7480163574219,-379.854248046875 -395.83900451660156,-388.9886474609375 L-391.92999267578125,-398.123046875 L-388.4601745605469,-406.97789001464844 Q-384.9903564453125,-415.8327331542969 -382.9560241699219,-424.0093536376953 Q-380.92169189453125,-432.18597412109375 -380.72235107421875,-438.9270782470703 Q-380.52301025390625,-445.6681823730469 -383.43450927734375,-451.8906707763672 Q-386.34600830078125,-458.1131591796875 -390.6938171386719,-453.92498779296875 Q-395.0416259765625,-449.73681640625 -398.1528778076172,-441.2008361816406 Q-401.2641296386719,-432.66485595703125 -402.5801086425781,-423.4109344482422 Q-403.8960876464844,-414.1570129394531 -404.21534729003906,-405.74095153808594 L-404.53460693359375,-397.32489013671875 L-404.6144256591797,-389.8261260986328 Q-404.6942443847656,-382.3273620605469 -401.86216735839844,-374.5494384765625 Q-399.03009033203125,-366.7715148925781 -393.5656433105469,-368.486572265625 Q-388.1011962890625,-370.2016296386719 -384.3915100097656,-374.7090759277344 Q-380.68182373046875,-379.2165222167969 -376.6532897949219,-385.43861389160156 Q-372.624755859375,-391.66070556640625 -368.3170623779297,-395.4501953125 Q-364.0093688964844,-399.23968505859375 -362.37413024902344,-389.46714782714844 Q-360.7388916015625,-379.6946105957031 -356.0321044921875,-384.95970153808594 Q-351.3253173828125,-390.22479248046875 -347.0974426269531,-381.7289276123047 L-336.0887451171875,-367.4894714355469"
     fill-rule="evenodd"
     style="fill:none;stroke:#100C07;stroke-linecap:round;stroke-linejoin:round;stroke-width:10.692770957946777;"
     id="path22" />
  <path
     d="M-301.0672302246094,-368.2868347167969 L-301.22686767578125,-368.486572265625 Q-301.3865051269531,-368.6863098144531 -301.5858459472656,-378.49855041503906 Q-301.7851867675781,-388.310791015625 -300.3095703125,-398.5614318847656 L-298.8339538574219,-408.81207275390625 L-297.3182373046875,-415.3935546875 Q-295.8025207519531,-421.97503662109375 -291.0957489013672,-413.6784973144531 Q-286.38897705078125,-405.3819580078125 -281.4030303955078,-398.08253479003906 Q-276.4170837402344,-390.7831115722656 -271.3914337158203,-385.9969177246094 Q-266.36578369140625,-381.2107238769531 -259.94395446777344,-383.04530334472656 Q-253.52212524414062,-384.8798828125 -252.56472778320312,-391.02256774902344 Q-251.60733032226562,-397.1652526855469 -253.04322814941406,-407.9349060058594 L-254.4791259765625,-418.7045593261719 L-255.91542053222656,-426.24302673339844 Q-257.3517150878906,-433.781494140625 -259.0667724609375,-439.52549743652344 L-258.3087158203125,-449.2579345703125"
     fill-rule="evenodd"
     style="fill:none;stroke:#100C07;stroke-linecap:round;stroke-linejoin:round;stroke-width:10.692770957946777;"
     id="path23" />
</svg>
