<?xml version="1.0" encoding="UTF-8" standalone="no"?>
<!-- Created with Inkscape (http://www.inkscape.org/) -->

<svg
   width="1609.8728mm"
   height="357.99985mm"
   viewBox="0 0 1609.8728 357.99985"
   version="1.1"
   id="svg1"
   xml:space="preserve"
   sodipodi:docname="ministeriom_culturas_educatziones_i_recercas.svg"
   inkscape:version="1.4.3 (0d15f75042, 2025-12-25)"
   xmlns:inkscape="http://www.inkscape.org/namespaces/inkscape"
   xmlns:sodipodi="http://sodipodi.sourceforge.net/DTD/sodipodi-0.dtd"
   xmlns="http://www.w3.org/2000/svg"
   xmlns:svg="http://www.w3.org/2000/svg"><sodipodi:namedview
     id="namedview1"
     pagecolor="#ffffff"
     bordercolor="#666666"
     borderopacity="1.0"
     inkscape:showpageshadow="2"
     inkscape:pageopacity="0.0"
     inkscape:pagecheckerboard="0"
     inkscape:deskcolor="#d1d1d1"
     inkscape:document-units="mm"
     inkscape:zoom="0.14282055"
     inkscape:cx="2125.0444"
     inkscape:cy="679.17398"
     inkscape:window-width="1920"
     inkscape:window-height="1014"
     inkscape:window-x="0"
     inkscape:window-y="0"
     inkscape:window-maximized="1"
     inkscape:current-layer="layer1" /><defs
     id="defs1" /><g
     id="layer1"
     style="display:inline;fill:#000000"
     transform="translate(3.9999237,4.0000921)"><path
       id="path27"
       style="baseline-shift:baseline;display:inline;overflow:visible;opacity:1;vector-effect:none;fill:#ffffff;stroke-linecap:round;enable-background:accumulate;stop-color:#000000;stop-opacity:1"
       d="M -3.9999237,-4.0000921 V 199.99986 c -7.93e-5,85.00451 68.9953907,153.99999 153.9999037,153.9999 85.00451,9e-5 153.99998,-68.99539 153.9999,-153.9999 V -4.0000921 Z M -1.6784063e-4,1.805237e-4 H 30.000068 V 174.99983 H 59.999787 V 1.805237e-4 H 90.000023 V 174.99983 H 120.00026 V 1.805237e-4 h 29.99972 V 174.99983 h 150.00015 v 25.00003 a 149.99985,149.99985 0 0 1 -1.24076,19.25154 149.99985,149.99985 0 0 1 -28.75948,70.74865 v -114.9997 h -30.00024 v 144.75654 a 149.99985,149.99985 0 0 1 -29.99972,17.71985 V 175.00035 H 179.9997 v 171.96883 a 149.99985,149.99985 0 0 1 -29.9992,3.03031 h -5.2e-4 V 175.00035 H 4.0001048 v -5.2e-4 H -1.6784063e-4 Z M 219.55387,27.125657 c 5.14349,7.71611 -2.24426,15.131791 -2.05724,22.146451 0.28056,8.11694 3.08624,14.630541 3.74086,21.645191 0.93517,11.42385 -12.25065,23.248409 -16.36541,34.572051 -2.33793,1.00209 -3.27329,2.70569 -3.83439,3.70778 -0.74813,-1.70355 -0.93527,-3.40719 -0.56121,-5.01054 -3.92771,0.40084 -10.2868,9.82072 -5.14335,16.13389 -0.5611,0.0752 -1.08727,0.0314 -1.56218,-0.11575 -0.11873,-0.0368 -0.23415,-0.0802 -0.34623,-0.12971 -1.00877,-0.44523 -1.73842,-1.39396 -2.00556,-2.66754 -0.0594,-0.28301 -0.0958,-0.58188 -0.10749,-0.89503 -4.8629,6.81423 2.89947,15.53255 8.04292,12.32586 -5.70454,0.70147 -10.09985,-4.40916 -8.41654,-9.51983 1.12221,1.30272 3.27263,2.2043 5.89111,1.70325 -4.76937,-7.41548 -1.12173,-12.12527 2.52543,-15.53238 -0.18703,1.40293 0.37386,3.30716 1.6831,5.41155 1.30925,-2.2046 2.15065,-4.10891 4.30155,-4.40955 3.46013,-0.10022 4.95683,1.20255 5.05033,3.70779 -5.79807,0.30062 -6.82706,5.51181 -1.68361,10.32185 5.79807,4.60963 11.31566,16.73451 -2.33785,15.83262 2.24442,0.40085 3.55348,0.90224 7.4812,-0.40049 0.37408,0.90188 1.49637,2.70552 3.27319,3.30678 -10.94152,11.9249 -24.12704,7.81632 -31.70194,1.20251 -4.11476,3.40711 -9.53886,6.71419 -20.29334,2.80603 1.12221,-1.1023 2.15092,-1.90411 2.89905,-2.70578 -1.49628,-1.1023 -2.89901,-3.30685 -5.51749,-4.70979 2.43144,-1.30271 4.76911,-0.8015 7.01352,-0.8015 -0.0935,-2.1044 -0.0935,-3.8082 0.37414,-4.20905 1.58979,3.1065 8.13609,4.60958 11.78326,4.70979 -0.41498,-1.02088 -0.77802,-2.02655 -1.09192,-3.0179 -9.73107,-30.73181 27.82342,-47.471623 33.16851,-62.518665 1.02873,-2.80586 2.05704,-7.515854 0.93483,-11.223604 -2.24442,-4.709808 -6.35927,-1.302756 -6.17223,3.507279 0,4.60336 -2.95842,6.652382 -5.71697,6.890536 -0.1839,0.01588 -0.36709,0.02377 -0.54828,0.02377 3.46013,-6.21298 -4.5824,-22.145935 8.13593,-22.145935 -8.04247,-8.11695 10.19299,-14.129805 9.1643,-19.941935 z m 10.89184,0 c -1.02868,5.81213 17.2073,11.824985 9.16482,19.941935 12.32089,0 5.1584,14.952567 7.84448,21.535636 0.0867,0.212357 0.18333,0.416143 0.29146,0.610299 -2.89903,0 -6.26577,-2.004057 -6.26577,-6.914307 0.18704,-4.81004 -3.9273,-8.217109 -6.17172,-3.507279 -1.1222,3.70775 -0.0939,8.417744 0.93483,11.223604 5.51752,15.53243 45.35605,32.868355 32.0766,65.536565 3.64717,-0.10021 10.19346,-1.60329 11.78326,-4.70979 0.46763,0.40085 0.46763,2.10465 0.37413,4.20905 2.24441,0 4.58208,-0.50121 7.01353,0.8015 -2.61848,1.40294 -4.02122,3.60749 -5.51749,4.70979 0.74813,0.80167 1.77683,1.60348 2.89904,2.70578 -10.75447,3.90816 -16.17857,0.60108 -20.29333,-2.80603 -5.20775,4.54699 -13.06782,7.90993 -21.02714,5.69267 -0.72358,-0.20156 -1.44763,-0.4491 -2.17093,-0.7462 -2.8932,-1.18842 -5.76901,-3.16776 -8.50439,-6.14898 1.77682,-0.60126 2.89911,-2.4049 3.27319,-3.30678 3.92771,1.30273 5.23729,0.80134 7.48171,0.40049 -2.13336,0.14093 -3.79857,-0.0364 -5.06791,-0.4532 -6.8544,-2.25067 -2.16205,-11.49005 2.73007,-15.37942 5.14344,-4.81004 4.11445,-10.02123 -1.68362,-10.32185 0.0818,-2.19209 1.2375,-3.46341 3.84318,-3.67988 0.37223,-0.0309 0.77412,-0.0404 1.20664,-0.0279 1.61318,0.22548 2.49021,1.35316 3.38016,2.83291 0.29665,0.49325 0.59459,1.02549 0.9219,1.57664 1.30924,-2.10439 1.87013,-4.00862 1.6831,-5.41155 3.64717,3.40711 7.29429,8.1169 2.52492,15.53238 2.61848,0.50105 4.76942,-0.40053 5.89163,-1.70325 1.5781,4.79125 -2.18626,9.58223 -7.36338,9.58443 -0.34514,1.4e-4 -0.69663,-0.0208 -1.05317,-0.0646 5.14345,3.20669 12.90531,-5.51163 8.04241,-12.32586 -0.0935,2.50524 -1.77654,4.10867 -4.02095,3.80803 5.14345,-6.31317 -1.21563,-15.73305 -5.14335,-16.13389 0.37407,1.60335 0.18693,3.30699 -0.56121,5.01054 -0.42082,-0.75156 -1.05233,-1.89798 -2.32802,-2.84685 -0.42523,-0.31629 -0.92188,-0.61041 -1.50637,-0.86093 -4.11475,-11.323644 -17.30058,-23.148201 -16.36541,-34.572051 0.65463,-7.01465 3.4603,-13.528251 3.74086,-21.645191 0.17534,-6.576243 -6.30753,-13.50485 -2.88044,-20.703129 0.22847,-0.479885 0.50122,-0.961066 0.82268,-1.443322 z m -37.91809,52.309468 c 5.79805,-0.10022 5.1436,8.617869 0.8418,11.724349 0.65463,-4.30899 0.2804,-8.116819 -0.8418,-11.724349 z m 64.94487,0 c -0.84166,2.705648 -1.26243,5.523995 -1.14412,8.581905 0.0394,1.019304 0.13865,2.065197 0.30231,3.142444 -4.3018,-3.10648 -4.95625,-11.824569 0.84181,-11.724349 z m -59.76173,2.684074 c 0.19209,-0.0033 0.36935,0.01188 0.53279,0.04444 0.16343,0.03256 0.31321,0.08246 0.4501,0.148311 0.82132,0.395102 1.18366,1.366185 1.31516,2.634465 -1.12221,0.70146 -1.68329,1.302594 -2.71198,2.104264 0.21041,-0.563674 0.368,-1.05667 0.44855,-1.579749 0.13426,-0.871797 0.0541,-1.826885 -0.35501,-3.330029 0.11105,-0.0127 0.21795,-0.0197 0.32039,-0.0217 z m 54.57858,0 c 0.10245,0.0018 0.20934,0.0092 0.3204,0.0217 -0.49098,1.803773 -0.50861,2.81822 -0.25012,3.846794 0.0862,0.342858 0.20286,0.687202 0.34313,1.062984 -1.02869,-0.80167 -1.58977,-1.402804 -2.71198,-2.104264 0.13151,-1.26828 0.49421,-2.23936 1.31569,-2.634465 0.13691,-0.06585 0.28665,-0.115747 0.4501,-0.148311 0.16344,-0.03257 0.3407,-0.04774 0.53278,-0.04444 z m -0.80202,50.626881 c -1.58979,0 -2.99258,1.30302 -2.99258,3.10679 0,1.70356 1.40279,3.00602 2.99258,3.00602 1.68332,0 3.17965,-1.30246 3.17965,-3.00602 0,-1.80377 -1.49633,-3.10679 -3.17965,-3.10679 z m -52.97454,5.2e-4 c -1.5781,0 -2.99204,1.14463 -3.1626,2.77399 -0.0114,0.10862 -0.017,0.21954 -0.017,0.33228 0,1.70356 1.49634,3.00602 3.17965,3.00602 1.58979,0 2.99258,-1.30246 2.99258,-3.00602 0,-1.80377 -1.40279,-3.10627 -2.99258,-3.10627 z m 0,1.00201 c 1.12221,0 1.87017,0.90179 1.87017,2.20451 0,0.90188 -0.74796,2.00401 -1.87017,2.00401 -1.21573,0 -2.05724,-1.10213 -2.05724,-2.00401 0,-1.05846 0.55552,-1.85207 1.41594,-2.11253 0.0662,-0.02 0.13392,-0.037 0.2036,-0.0506 0.13936,-0.0272 0.28573,-0.0413 0.4377,-0.0413 z m 52.97454,0 c 1.21573,0 2.05724,0.90179 2.05724,2.20451 0,0.90188 -0.84151,2.00401 -2.05724,2.00401 -1.1222,0 -1.87017,-1.10213 -1.87017,-2.00401 0,-1.30272 0.74797,-2.20451 1.87017,-2.20451 z m -52.88101,0.50074 c -0.5611,0 -1.30948,0.50113 -1.30948,1.40302 0,0.70145 0.74838,1.20251 1.30948,1.20251 1.02869,0 1.49604,-0.50106 1.49604,-1.20251 0,-0.90189 -0.46735,-1.40302 -1.49604,-1.40302 z m 52.78748,0 c -1.02869,0 -1.49655,0.50113 -1.49655,1.40302 0,0.70145 0.46786,1.20251 1.49655,1.20251 0.5611,0 1.30896,-0.50106 1.30896,-1.20251 0,-0.90189 -0.74786,-1.40302 -1.30896,-1.40302 z m -30.29634,4.23798 c 0.44256,0.0133 0.86449,0.15866 1.26194,0.47181 2.52492,2.00418 -5.8912,7.81658 -11.96982,6.61407 3.51859,-0.78916 7.60994,-7.17908 10.70788,-7.08588 z m 7.80521,0 c 3.09794,-0.0932 7.18929,6.29672 10.70787,7.08588 -0.37991,0.0752 -0.76882,0.12273 -1.16375,0.14572 -5.92406,0.34493 -13.17369,-4.88087 -10.80658,-6.75979 0.29809,-0.23486 0.61016,-0.37549 0.93431,-0.43667 0.10805,-0.0204 0.2175,-0.0318 0.32815,-0.0351 z m -19.9223,7.86774 c 0.31932,1.7e-4 0.69027,0.12633 1.22215,0.5209 0.18703,0.60126 0.4675,1.90398 -0.46768,2.40502 -1.30923,0.60126 -3.08591,-1.40301 -1.9637,-2.60552 0.47343,-0.11274 0.79868,-0.32062 1.20923,-0.3204 z m 32.03939,0 c 0.41055,-2.2e-4 0.73579,0.20766 1.20922,0.3204 0.98194,1.05219 -0.25546,2.71832 -1.45727,2.71559 -0.17169,-3.9e-4 -0.34278,-0.0349 -0.50643,-0.11007 -0.93518,-0.50104 -0.65471,-1.80376 -0.46767,-2.40502 0.46538,-0.34525 0.80748,-0.48504 1.09967,-0.5147 0.0417,-0.004 0.0826,-0.006 0.12248,-0.006 z M 72.401614,188.91526 c 4.09649,6.14544 -1.787616,12.05144 -1.638659,17.6382 0.223447,6.46468 2.457777,11.6525 2.979146,17.23926 0.744809,9.09843 -9.756665,18.51614 -13.03383,27.53476 -1.86203,0.7981 -2.60719,2.1552 -3.054077,2.9533 -0.595844,-1.35678 -0.744406,-2.71399 -0.446484,-3.99097 -3.1282,0.31925 -8.192847,7.82179 -4.096391,12.84986 -0.446885,0.0599 -0.865607,0.0247 -1.243852,-0.0925 -0.09456,-0.0293 -0.186682,-0.0634 -0.275952,-0.10283 -0.981975,-0.43341 -1.631896,-1.4658 -1.683101,-2.83756 -3.873017,5.42714 2.308837,12.3704 6.405293,9.81646 -4.543334,0.55868 -8.044127,-3.51161 -6.703466,-7.58197 0.893773,1.03755 2.607267,1.75608 4.692737,1.35703 -3.798527,-5.90601 -0.894023,-9.65725 2.010729,-12.37082 -0.148956,1.11735 0.297757,2.63378 1.340487,4.30981 1.042739,-1.75584 1.713083,-3.27198 3.426148,-3.51141 2.755795,-0.0798 3.947496,0.95751 4.021976,2.95279 -4.617825,0.23943 -5.436943,4.38977 -1.340486,8.22068 4.617825,3.67131 9.012323,13.32839 -1.861902,12.61009 1.787547,0.31925 2.830092,0.71818 5.958292,-0.31936 0.297931,0.71829 1.191942,2.15508 2.607076,2.63394 -8.714282,9.4975 -19.216135,6.22508 -25.249104,0.95757 -3.277165,2.71357 -7.597004,5.34711 -16.162321,2.23449 0.893773,-0.87792 1.713059,-1.51643 2.308903,-2.15491 -1.191696,-0.87792 -2.309095,-2.63383 -4.394564,-3.75119 1.936504,-1.03754 3.798683,-0.63821 5.586222,-0.63821 -0.07449,-1.67603 -0.07476,-3.033 0.297656,-3.35225 1.266179,2.47415 6.480197,3.6714 9.384957,3.7512 -0.330509,-0.81308 -0.619706,-1.61444 -0.869714,-2.40399 -7.750249,-24.47611 22.159414,-37.80821 26.416475,-49.79231 0.819288,-2.2347 1.638432,-5.98598 0.744658,-8.93899 -1.787548,-3.7511 -5.064428,-1.03729 -4.915462,2.79363 0,3.66631 -2.356649,5.29832 -4.553728,5.48804 -0.146472,0.0126 -0.292359,0.0191 -0.436666,0.0191 2.755796,-4.94828 -3.649709,-17.6382 6.479708,-17.6382 -6.405365,-6.46469 8.118588,-11.25373 7.299296,-15.88276 z m 9.919808,0.4899 c -1.028689,5.81213 17.207291,11.82446 9.164816,19.94142 12.320882,0 5.158405,14.95305 7.844482,21.53615 0.08665,0.21236 0.183326,0.41614 0.291455,0.6103 -2.899029,0 -6.265767,-2.00406 -6.265767,-6.91431 0.187038,-4.81004 -3.927817,-8.21762 -6.172233,-3.5078 -0.280553,0.92694 -0.426525,1.91653 -0.471806,2.92334 -0.04528,1.00681 0.01005,2.03084 0.132808,3.02669 0.245526,1.9917 0.759997,3.87065 1.274341,5.27358 5.517523,15.53243 45.355532,32.86888 32.076082,65.53708 3.64717,-0.10021 10.19346,-1.60329 11.78326,-4.70979 0.46763,0.40085 0.46763,2.10413 0.37413,4.20853 2.24441,0 4.5826,-0.50121 7.01405,0.8015 -2.61849,1.40294 -4.02174,3.60749 -5.51801,4.70979 0.74813,0.80167 1.77684,1.60348 2.89904,2.70578 -10.75447,3.90816 -16.17806,0.6016 -20.29281,-2.80551 -7.5749,6.61381 -20.760946,10.72239 -31.702462,-1.20251 1.776822,-0.60126 2.899109,-2.40542 3.273186,-3.30729 3.927718,1.30272 5.23678,0.80185 7.481197,0.40101 -13.653507,0.90189 -8.135911,-11.22352 -2.337842,-15.83315 5.143446,-4.81004 4.114968,-10.02071 -1.683101,-10.32133 0.09352,-2.50524 1.589687,-3.80801 5.049821,-3.70778 1.613172,0.22547 2.489835,1.35278 3.379638,2.83238 0.296603,0.4932 0.594603,1.0255 0.921903,1.57665 1.30924,-2.10439 1.87065,-4.00811 1.68362,-5.41104 3.64716,3.40711 7.29428,8.1169 2.52491,15.53238 2.61849,0.50105 4.76943,-0.40104 5.89163,-1.70377 1.57812,4.79126 -2.18626,9.58224 -7.36337,9.58443 -0.34514,1.5e-4 -0.69663,-0.0208 -1.05317,-0.0646 5.14345,3.2067 12.90531,-5.51163 8.04241,-12.32586 -0.0935,2.50524 -1.77706,4.10867 -4.02146,3.80804 5.14344,-6.31318 -1.21564,-15.73254 -5.14336,-16.13338 0.37407,1.60335 0.18693,3.30699 -0.56121,5.01054 -0.5611,-1.00209 -1.495934,-2.70569 -3.83387,-3.70778 -4.114757,-11.32364 -17.301096,-23.14872 -16.365926,-34.57257 0.654623,-7.01465 3.4603,-13.52824 3.740857,-21.64519 0.187028,-7.01465 -7.200726,-14.42982 -2.057239,-22.14593 z m 6.56239,31.02446 h 5.17e-4 c -0.03288,0.0344 -0.06544,0.0711 -0.09715,0.11007 0.03171,-0.039 0.06375,-0.0756 0.09663,-0.11007 z M 50.87683,230.5768 c 4.617817,-0.0798 4.096373,6.8638 0.670243,9.33794 0.52137,-3.43187 0.223531,-6.46474 -0.670243,-9.33794 z m 4.127913,2.13786 c 1.223867,-0.021 1.690733,0.90473 1.83038,2.25154 -0.446887,0.27934 -0.782057,0.53877 -1.107943,0.80822 -0.325886,0.26945 -0.642487,0.54892 -1.052132,0.86816 0.446891,-1.19716 0.595783,-1.99541 0.07441,-3.91087 0.08845,-0.01 0.173691,-0.016 0.255281,-0.017 z m 54.342937,8.99945 c -0.84166,2.70565 -1.26243,5.52437 -1.14412,8.58242 0.0394,1.01935 0.13866,2.0652 0.30231,3.14244 -4.30179,-3.10648 -4.95625,-11.82507 0.84181,-11.72486 z m -5.18315,2.68459 c 0.10245,0.002 0.20935,0.009 0.3204,0.0212 -0.40917,1.50313 -0.48928,2.45808 -0.35502,3.33003 0.0806,0.52317 0.23815,1.01659 0.44855,1.58026 -1.02869,-0.80167 -1.58977,-1.4028 -2.71198,-2.10426 0.13151,-1.26828 0.49384,-2.23936 1.31517,-2.63447 0.13689,-0.0659 0.28667,-0.11574 0.4501,-0.14831 0.16343,-0.0326 0.3407,-0.0477 0.53278,-0.0444 z m -48.521066,28.63753 c -1.25687,0 -2.382382,0.9115 -2.518192,2.20917 -0.0091,0.0865 -0.01395,0.17479 -0.01395,0.26458 0,1.35678 1.191484,2.39468 2.532145,2.39468 1.266178,0 2.383317,-1.0379 2.383317,-2.39468 0,-1.4366 -1.117139,-2.47375 -2.383317,-2.47375 z m 0,0.79788 c 0.893774,0 1.489832,0.71842 1.489832,1.75597 0,0.71829 -0.596058,1.59628 -1.489832,1.59628 -0.968256,0 -1.63866,-0.87799 -1.63866,-1.59628 0,-1.03755 0.670404,-1.75597 1.63866,-1.75597 z m 0.07441,0.39894 c -0.446887,0 -1.04283,0.39946 -1.04283,1.11777 0,0.55866 0.595943,0.95756 1.04283,0.95756 0.819291,0 1.191659,-0.3989 1.191659,-0.95756 0,-0.71831 -0.372368,-1.11777 -1.191659,-1.11777 z m 17.913119,3.37551 c 0.352476,0.0106 0.688562,0.12628 1.005106,0.37569 2.010954,1.59621 -4.69252,6.22511 -9.533785,5.26738 2.802348,-0.62852 6.061348,-5.71727 8.528679,-5.64307 z m -9.650574,6.26628 c 0.254318,1.4e-4 0.549459,0.10019 0.973067,0.41445 0.148965,0.47886 0.372747,1.51659 -0.37207,1.91564 -1.042731,0.47887 -2.45802,-1.11759 -1.564246,-2.07532 0.377063,-0.0898 0.636268,-0.25494 0.963249,-0.25477 z m 39.382101,11.15074 c -1.5898,0 -2.99259,1.3025 -2.99259,3.10627 0,1.70356 1.40279,3.00654 2.99259,3.00654 1.68331,0 3.17965,-1.30298 3.17965,-3.00654 0,-1.80377 -1.49634,-3.10627 -3.17965,-3.10627 z m 0,1.00201 c 1.21572,0 2.05775,0.90179 2.05775,2.20452 0,0.90187 -0.84203,2.00452 -2.05775,2.00452 -1.12221,0 -1.87017,-1.10265 -1.87017,-2.00452 0,-1.05847 0.49396,-1.85208 1.28105,-2.11254 0.0606,-0.02 0.12263,-0.037 0.18656,-0.0506 0.12785,-0.0272 0.26228,-0.0413 0.40256,-0.0413 z m -0.0935,0.50126 c -1.02869,0 -1.49603,0.50113 -1.49603,1.40302 0,0.70145 0.46734,1.20251 1.49603,1.20251 0.56111,0 1.30948,-0.50106 1.30948,-1.20251 0,-0.90189 -0.74837,-1.40302 -1.30948,-1.40302 z m -22.491137,4.23747 c 0.09681,-0.003 0.194818,4.3e-4 0.293522,0.01 0.197409,0.0188 0.39814,0.0615 0.602548,0.12505 2.963916,0.92093 6.623604,6.23583 9.812321,6.951 -6.078617,1.20251 -14.495251,-4.60937 -11.970329,-6.61355 0.397448,-0.31315 0.819375,-0.45902 1.261938,-0.47232 z m 12.11709,7.86774 c 0.410552,-2.2e-4 0.736311,0.20765 1.209745,0.32039 1.122209,1.20251 -0.654985,3.20678 -1.964221,2.60552 -0.93518,-0.50104 -0.65471,-1.80376 -0.467671,-2.40502 0.531876,-0.39457 0.902829,-0.52072 1.222147,-0.52089 z" /><path
       d="m 400.63941,90.101494 h -17.47354 l 0.11024,-12.89845 h 17.3633 q 6.50435,0 10.9692,-2.921444 4.46484,-2.976566 6.72483,-8.654089 2.31511,-5.677523 2.31511,-13.725273 v -3.913633 q 0,-6.173617 -1.32292,-10.858951 -1.2678,-4.685335 -3.80339,-7.882387 -2.53559,-3.197051 -6.22874,-4.795577 -3.69315,-1.653648 -8.48872,-1.653648 H 382.83514 V 9.8444704 h 17.96964 q 8.04775,0 14.71746,2.7560796 6.72483,2.700957 11.63065,7.772143 4.90582,5.071185 7.55166,12.126748 2.70096,7.000441 2.70096,15.599407 v 3.80339 q 0,8.543845 -2.70096,15.599407 -2.64584,7.055563 -7.55166,12.126748 -4.8507,5.016064 -11.63065,7.772143 -6.72483,2.700958 -14.88283,2.700958 z M 392.53654,9.8444704 V 90.101494 H 376.00006 V 9.8444704 Z M 480.56571,76.651828 V 50.083225 q 0,-2.866322 -0.93707,-4.90582 -0.93706,-2.094621 -2.92144,-3.252174 -1.92926,-1.157553 -5.01607,-1.157553 -2.64583,0 -4.57509,0.937067 -1.92925,0.881945 -2.97656,2.590714 -1.04731,1.653648 -1.04731,3.913633 h -15.87502 q 0,-3.80339 1.76389,-7.220928 1.76389,-3.417538 5.12631,-6.008252 3.36242,-2.645836 7.99263,-4.134119 4.68533,-1.488283 10.4731,-1.488283 6.94532,0 12.34723,2.315107 5.40192,2.315106 8.48873,6.945319 3.14193,4.630213 3.14193,11.575532 v 25.521293 q 0,4.905821 0.60634,8.047751 0.60633,3.086808 1.76389,5.401915 v 0.937067 h -16.04038 q -1.15756,-2.42535 -1.7639,-6.063374 -0.55121,-3.693146 -0.55121,-7.386292 z m 2.09462,-22.875457 0.11024,8.984818 H 473.896 q -3.14193,0 -5.45704,0.716581 -2.31511,0.71658 -3.80339,2.039498 -1.48828,1.267797 -2.20486,2.976566 -0.66146,1.708769 -0.66146,3.748267 0,2.039499 0.93707,3.693146 0.93706,1.598526 2.70095,2.535593 1.76389,0.881945 4.13412,0.881945 3.58291,0 6.22874,-1.433161 2.64584,-1.433161 4.079,-3.527781 1.48828,-2.09462 1.5434,-3.968754 l 4.18924,6.724833 q -0.88194,2.259985 -2.42535,4.685335 -1.48828,2.425349 -3.80339,4.575091 -2.3151,2.09462 -5.56728,3.47266 -3.25217,1.322917 -7.71702,1.322917 -5.67752,0 -10.30773,-2.259984 -4.57509,-2.315107 -7.27605,-6.338982 -2.64584,-4.078997 -2.64584,-9.260426 0,-4.685335 1.76389,-8.323359 1.76389,-3.638024 5.18143,-6.118496 3.47266,-2.535592 8.65409,-3.803389 5.18143,-1.322918 12.0165,-1.322918 z M 524.33225,43.193028 V 90.101494 H 508.45724 V 30.459942 h 14.88282 z m -2.3151,14.99307 h -4.29949 q 0,-6.61459 1.70877,-11.906262 1.70877,-5.346793 4.79558,-9.095061 3.08681,-3.803389 7.33117,-5.787766 4.29948,-2.039499 9.59116,-2.039499 4.18924,0 7.6619,1.212675 3.47265,1.212675 5.95313,3.858511 2.53559,2.645836 3.85851,7.000441 1.37804,4.354605 1.37804,10.638465 V 90.101494 H 544.01066 V 52.012481 q 0,-3.968754 -1.10243,-6.173618 -1.10244,-2.204863 -3.25218,-3.086808 -2.09462,-0.937067 -5.18143,-0.937067 -3.19705,0 -5.56728,1.267796 -2.3151,1.267797 -3.85851,3.527782 -1.48828,2.204863 -2.25998,5.181428 -0.7717,2.976566 -0.7717,6.394104 z m 77.50094,33.017827 q -6.94532,0 -12.45748,-2.204863 -5.51216,-2.259985 -9.37067,-6.228739 -3.80339,-3.968753 -5.84289,-9.205304 -2.0395,-5.291672 -2.0395,-11.244802 v -2.204864 q 0,-6.779954 1.92926,-12.402356 1.92925,-5.622401 5.51216,-9.75652 3.63802,-4.134118 8.81945,-6.338982 5.18143,-2.259985 11.68578,-2.259985 6.33898,0 11.2448,2.094621 4.90582,2.09462 8.21311,5.95313 3.36242,3.858511 5.07119,9.260426 1.70877,5.346794 1.70877,11.906262 v 6.61459 H 576.58751 V 54.603195 h 31.80515 V 53.39052 q 0,-3.307295 -1.21267,-5.898009 -1.15756,-2.645836 -3.52779,-4.18924 -2.37022,-1.543405 -6.06337,-1.543405 -3.14193,0 -5.40191,1.37804 -2.25999,1.37804 -3.69315,3.858511 -1.37804,2.480471 -2.09462,5.842887 -0.66146,3.307295 -0.66146,7.276049 v 2.204864 q 0,3.582902 0.99219,6.614589 1.04731,3.031687 2.92144,5.236551 1.92926,2.204863 4.63022,3.417538 2.75607,1.212675 6.22873,1.212675 4.29949,0 7.99263,-1.653648 3.74827,-1.708769 6.44923,-5.126307 l 7.71702,8.37848 q -1.87413,2.700958 -5.12631,5.181429 -3.19705,2.480471 -7.71702,4.078997 -4.51997,1.543404 -10.30773,1.543404 z M 662.24645,30.459942 V 41.704745 H 627.51986 V 30.459942 Z M 636.11882,15.74248 h 15.87502 v 56.389378 q 0,2.590714 0.66146,3.968754 0.71658,1.37804 2.09462,1.929255 1.37804,0.496095 3.47266,0.496095 1.48828,0 2.64583,-0.110244 1.21268,-0.165364 2.0395,-0.330729 l 0.0551,11.685775 q -2.03949,0.661459 -4.40972,1.04731 -2.37023,0.385851 -5.23655,0.385851 -5.23655,0 -9.15018,-1.708769 -3.85852,-1.76389 -5.95314,-5.622401 -2.09462,-3.858511 -2.09462,-10.142371 z m 51.86941,14.717462 V 90.101494 H 672.05809 V 30.459942 Z M 671.0659,14.915656 q 0,-3.47266 2.42535,-5.7326445 2.42535,-2.2599849 6.50435,-2.2599849 4.02387,0 6.44922,2.2599849 2.48047,2.2599845 2.48047,5.7326445 0,3.47266 -2.48047,5.732645 -2.42535,2.259984 -6.44922,2.259984 -4.079,0 -6.50435,-2.259984 -2.42535,-2.259985 -2.42535,-5.732645 z m 62.28738,58.704485 q 0,-1.708769 -0.99219,-3.086809 -0.99219,-1.378039 -3.69315,-2.535593 -2.64584,-1.212674 -7.6619,-2.204863 -4.51997,-0.992188 -8.4336,-2.480471 -3.85851,-1.543404 -6.72483,-3.693146 -2.8112,-2.149742 -4.40973,-5.071186 -1.59853,-2.976565 -1.59853,-6.779954 0,-3.748268 1.59853,-7.055563 1.65365,-3.307295 4.68533,-5.842887 3.08681,-2.590715 7.49654,-4.023876 4.46485,-1.488283 10.03213,-1.488283 7.77214,0 13.33942,2.480472 5.6224,2.480471 8.59897,6.835076 3.03168,4.299483 3.03168,9.811641 h -15.87501 q 0,-2.315106 -0.99219,-4.134118 -0.93707,-1.874134 -2.97657,-2.921444 -1.98437,-1.102432 -5.18142,-1.102432 -2.64584,0 -4.5751,0.937067 -1.92925,0.881945 -2.97656,2.42535 -0.99219,1.488283 -0.99219,3.307295 0,1.378039 0.55122,2.480471 0.60633,1.04731 1.92925,1.929255 1.32292,0.881946 3.41754,1.653648 2.14974,0.71658 5.29167,1.322918 6.44923,1.322918 11.52041,3.472659 5.07119,2.09462 8.04775,5.732645 2.97657,3.582903 2.97657,9.42579 0,3.968754 -1.76389,7.276049 -1.76389,3.307295 -5.07119,5.787766 -3.30729,2.42535 -7.93751,3.80339 -4.57509,1.322917 -10.30773,1.322917 -8.32336,0 -14.11113,-2.976565 -5.73264,-2.976565 -8.70921,-7.551657 -2.92144,-4.630213 -2.92144,-9.480912 h 15.04819 q 0.11024,3.252174 1.65365,5.23655 1.59852,1.984377 4.02387,2.866323 2.48048,0.881945 5.3468,0.881945 3.08681,0 5.12631,-0.826824 2.03949,-0.881945 3.0868,-2.315106 1.10244,-1.488283 1.10244,-3.417538 z M 774.97008,5.3796223 V 90.101494 H 759.09506 V 5.3796223 Z M 812.563,30.459942 786.65586,60.00511 772.76522,74.061113 766.97745,62.595824 778.00177,48.594943 793.49093,30.459942 Z m -16.48135,59.641552 -17.63891,-27.560791 10.9692,-9.591155 24.97007,37.151946 z M 851.58908,76.651828 V 50.083225 q 0,-2.866322 -0.93707,-4.90582 -0.93707,-2.094621 -2.92144,-3.252174 -1.92926,-1.157553 -5.01607,-1.157553 -2.64583,0 -4.57509,0.937067 -1.92925,0.881945 -2.97656,2.590714 -1.04731,1.653648 -1.04731,3.913633 h -15.87502 q 0,-3.80339 1.76389,-7.220928 1.76389,-3.417538 5.12631,-6.008252 3.36242,-2.645836 7.99263,-4.134119 4.68533,-1.488283 10.4731,-1.488283 6.94532,0 12.34723,2.315107 5.40192,2.315106 8.48873,6.945319 3.14193,4.630213 3.14193,11.575532 v 25.521293 q 0,4.905821 0.60633,8.047751 0.60634,3.086808 1.76389,5.401915 v 0.937067 h -16.04038 q -1.15755,-2.42535 -1.76389,-6.063374 -0.55121,-3.693146 -0.55121,-7.386292 z m 2.09462,-22.875457 0.11024,8.984818 h -8.87457 q -3.14193,0 -5.45704,0.716581 -2.31511,0.71658 -3.80339,2.039498 -1.48828,1.267797 -2.20486,2.976566 -0.66146,1.708769 -0.66146,3.748267 0,2.039499 0.93707,3.693146 0.93706,1.598526 2.70095,2.535593 1.76389,0.881945 4.13412,0.881945 3.5829,0 6.22874,-1.433161 2.64584,-1.433161 4.079,-3.527781 1.48828,-2.09462 1.5434,-3.968754 l 4.18924,6.724833 q -0.88194,2.259985 -2.42535,4.685335 -1.48828,2.425349 -3.80339,4.575091 -2.3151,2.09462 -5.56728,3.47266 -3.25217,1.322917 -7.71702,1.322917 -5.67752,0 -10.30773,-2.259984 -4.5751,-2.315107 -7.27605,-6.338982 -2.64584,-4.078997 -2.64584,-9.260426 0,-4.685335 1.76389,-8.323359 1.76389,-3.638024 5.18143,-6.118496 3.47266,-2.535592 8.65409,-3.803389 5.18143,-1.322918 12.0165,-1.322918 z M 908.86042,9.8444704 h 29.93102 q 9.2053,0 15.81989,2.7560796 6.66971,2.756079 10.25261,8.157994 3.58291,5.401915 3.58291,13.284301 0,6.449225 -2.20487,11.079438 -2.14974,4.575091 -6.11849,7.6619 -3.91363,3.031687 -9.20531,4.850699 l -5.23655,2.756079 H 919.66425 L 919.554,47.492511 h 19.34768 q 4.3546,0 7.22093,-1.543404 2.86632,-1.543405 4.29948,-4.299484 1.48828,-2.756079 1.48828,-6.394103 0,-3.858511 -1.43316,-6.669712 -1.43316,-2.8112 -4.3546,-4.299483 -2.92145,-1.488283 -7.33117,-1.488283 h -13.39455 v 67.303452 h -16.53647 z m 44.86896,80.2570236 -18.30036,-35.773907 17.47354,-0.110243 18.52085,35.112448 v 0.771702 z m 53.90892,1.102431 q -6.9453,0 -12.45748,-2.204863 -5.51216,-2.259985 -9.37067,-6.228739 -3.80339,-3.968753 -5.84289,-9.205304 -2.0395,-5.291672 -2.0395,-11.244802 v -2.204864 q 0,-6.779954 1.92926,-12.402356 1.92925,-5.622401 5.51216,-9.75652 3.63802,-4.134118 8.81945,-6.338982 5.18143,-2.259985 11.68577,-2.259985 6.339,0 11.2448,2.094621 4.9058,2.09462 8.2131,5.95313 3.3624,3.858511 5.0712,9.260426 1.7088,5.346794 1.7088,11.906262 v 6.61459 H 984.70772 V 54.603195 h 31.80518 V 53.39052 q 0,-3.307295 -1.2127,-5.898009 -1.1576,-2.645836 -3.5278,-4.18924 -2.3702,-1.543405 -6.0634,-1.543405 -3.1419,0 -5.4019,1.37804 -2.25996,1.37804 -3.69312,3.858511 -1.37804,2.480471 -2.09462,5.842887 -0.66146,3.307295 -0.66146,7.276049 v 2.204864 q 0,3.582902 0.99219,6.614589 1.04731,3.031687 2.92144,5.236551 1.92926,2.204863 4.63017,3.417538 2.7561,1.212675 6.2288,1.212675 4.2995,0 7.9926,-1.653648 3.7483,-1.708769 6.4492,-5.126307 l 7.7171,8.37848 q -1.8742,2.700958 -5.1263,5.181429 -3.1971,2.480471 -7.7171,4.078997 -4.5199,1.543404 -10.3077,1.543404 z m 65.76,-17.583784 q 0,-1.708769 -0.9921,-3.086809 -0.9922,-1.378039 -3.6932,-2.535593 -2.6458,-1.212674 -7.6619,-2.204863 -4.52,-0.992188 -8.4336,-2.480471 -3.8585,-1.543404 -6.7248,-3.693146 -2.8112,-2.149742 -4.4097,-5.071186 -1.5986,-2.976565 -1.5986,-6.779954 0,-3.748268 1.5986,-7.055563 1.6536,-3.307295 4.6853,-5.842887 3.0868,-2.590715 7.4965,-4.023876 4.4649,-1.488283 10.0322,-1.488283 7.7721,0 13.3394,2.480472 5.6224,2.480471 8.5989,6.835076 3.0317,4.299483 3.0317,9.811641 h -15.875 q 0,-2.315106 -0.9922,-4.134118 -0.937,-1.874134 -2.9765,-2.921444 -1.9844,-1.102432 -5.1815,-1.102432 -2.6458,0 -4.5751,0.937067 -1.9292,0.881945 -2.9765,2.42535 -0.9922,1.488283 -0.9922,3.307295 0,1.378039 0.5512,2.480471 0.6063,1.04731 1.9293,1.929255 1.3229,0.881946 3.4175,1.653648 2.1497,0.71658 5.2917,1.322918 6.4492,1.322918 11.5204,3.472659 5.0712,2.09462 8.0477,5.732645 2.9766,3.582903 2.9766,9.42579 0,3.968754 -1.7639,7.276049 -1.7639,3.307295 -5.0712,5.787766 -3.3073,2.42535 -7.9375,3.80339 -4.5751,1.322917 -10.3077,1.322917 -8.3234,0 -14.1112,-2.976565 -5.7326,-2.976565 -8.7092,-7.551657 -2.9214,-4.630213 -2.9214,-9.480912 h 15.0482 q 0.1102,3.252174 1.6536,5.23655 1.5986,1.984377 4.0239,2.866323 2.4805,0.881945 5.3468,0.881945 3.0868,0 5.1263,-0.826824 2.0395,-0.881945 3.0868,-2.315106 1.1024,-1.488283 1.1024,-3.417538 z m 41.6168,-31.69491 v 71.106839 h -15.875 V 30.459942 h 14.7174 z m 37.7583,17.694028 v 1.157553 q 0,6.504347 -1.5434,12.071627 -1.4883,5.567279 -4.4098,9.701398 -2.9214,4.078997 -7.276,6.394104 -4.2995,2.259984 -9.9219,2.259984 -5.457,0 -9.4809,-2.204863 -4.0239,-2.204863 -6.78,-6.173617 -2.7009,-4.023875 -4.3546,-9.315547 -1.6536,-5.291672 -2.5356,-11.355046 v -3.031687 q 0.882,-6.504347 2.5356,-11.906262 1.6537,-5.457037 4.3546,-9.42579 2.7561,-4.023876 6.7249,-6.228739 4.0239,-2.204864 9.4258,-2.204864 5.6775,0 9.977,2.149742 4.3546,2.149742 7.276,6.173617 2.9766,4.023876 4.4649,9.591156 1.5434,5.567279 1.5434,12.347234 z m -15.875,1.157553 v -1.157553 q 0,-3.803389 -0.6615,-7.000441 -0.6615,-3.252173 -2.0395,-5.677523 -1.3229,-2.425349 -3.5278,-3.748267 -2.1497,-1.37804 -5.2365,-1.37804 -3.2522,0 -5.5673,1.04731 -2.26,1.04731 -3.6932,3.031687 -1.4331,1.984377 -2.1497,4.740456 -0.7166,2.756079 -0.8819,6.228739 v 7.6619 q 0.2756,4.078997 1.5434,7.33117 1.2678,3.197052 3.9136,5.071186 2.6458,1.874134 6.9453,1.874134 3.1419,0 5.2917,-1.37804 2.1497,-1.433161 3.4726,-3.913632 1.3781,-2.480472 1.9844,-5.732645 0.6064,-3.252173 0.6064,-7.000441 z m 61.0196,15.048192 V 30.459942 h 15.875 v 59.641552 h -14.938 z m 1.7638,-12.236991 4.6854,-0.110243 q 0,5.953131 -1.3781,11.079438 -1.378,5.071185 -4.1341,8.819453 -2.7561,3.693146 -6.9453,5.787766 -4.1892,2.039498 -9.8668,2.039498 -4.3546,0 -8.0477,-1.212674 -3.638,-1.267797 -6.2839,-3.913633 -2.5907,-2.700957 -4.079,-6.890197 -1.4331,-4.244362 -1.4331,-10.197493 V 30.459942 h 15.875 v 38.640229 q 0,2.645836 0.6063,4.464848 0.6615,1.819012 1.819,2.976566 1.1576,1.157553 2.701,1.653647 1.5985,0.496094 3.5278,0.496094 4.9058,0 7.717,-1.984377 2.8663,-1.984377 4.0239,-5.401915 1.2126,-3.472659 1.2126,-7.717021 z m 26.1828,-58.1532691 h 15.875 V 76.431341 l -1.5985,13.670153 h -14.2765 z m 53.6333,54.2396371 v 1.157553 q 0,6.669711 -1.4331,12.236991 -1.3781,5.56728 -4.2995,9.646277 -2.9215,4.023875 -7.2761,6.28386 -4.2995,2.204863 -10.1423,2.204863 -5.4571,0 -9.481,-2.204863 -3.9687,-2.204863 -6.6697,-6.228739 -2.7009,-4.023875 -4.3546,-9.42579 -1.6536,-5.401915 -2.4804,-11.796019 v -2.535592 q 0.8268,-6.394104 2.4804,-11.796019 1.6537,-5.401915 4.3546,-9.42579 2.701,-4.023876 6.6697,-6.228739 3.9688,-2.204864 9.3707,-2.204864 5.898,0 10.2526,2.259985 4.4098,2.204864 7.2761,6.283861 2.9214,4.023875 4.2995,9.591155 1.4331,5.512158 1.4331,12.18187 z m -15.875,1.157553 v -1.157553 q 0,-3.638025 -0.5512,-6.835077 -0.4961,-3.252173 -1.7639,-5.677523 -1.2678,-2.480471 -3.4727,-3.913632 -2.1497,-1.433161 -5.5672,-1.433161 -3.2522,0 -5.5122,1.102432 -2.26,1.102431 -3.7483,3.086808 -1.4331,1.984377 -2.2048,4.740456 -0.7166,2.700958 -0.8268,5.953131 v 7.220927 q 0.1653,4.354605 1.4331,7.717022 1.3229,3.307295 3.9688,5.23655 2.7009,1.874134 7.0004,1.874134 3.3624,0 5.5673,-1.322918 2.2049,-1.322918 3.4175,-3.748268 1.2678,-2.425349 1.7639,-5.677523 0.4961,-3.307294 0.4961,-7.165805 z M 1306.1216,5.4347439 V 90.101494 h -15.9301 V 5.4347439 Z m 29.876,25.0251981 v 59.641552 h -15.9302 V 30.459942 Z m -16.9224,-15.544286 q 0,-3.47266 2.4254,-5.7326445 2.4253,-2.2599849 6.5043,-2.2599849 4.0239,0 6.4493,2.2599849 2.4804,2.2599845 2.4804,5.7326445 0,3.47266 -2.4804,5.732645 -2.4254,2.259984 -6.4493,2.259984 -4.079,0 -6.5043,-2.259984 -2.4254,-2.259985 -2.4254,-5.732645 z m 54.6806,63.885914 q 2.9214,0 5.1814,-1.102432 2.26,-1.157553 3.5278,-3.197052 1.3229,-2.09462 1.3781,-4.905821 h 14.9379 q -0.055,6.283861 -3.3624,11.189681 -3.3073,4.8507 -8.8746,7.6619 -5.5673,2.756079 -12.4575,2.756079 -6.9453,0 -12.1267,-2.315106 -5.1263,-2.315106 -8.5439,-6.394103 -3.4175,-4.134119 -5.1263,-9.591156 -1.7087,-5.512158 -1.7087,-11.796018 v -1.598526 q 0,-6.338982 1.7087,-11.796019 1.7088,-5.512158 5.1263,-9.591155 3.4176,-4.134119 8.5439,-6.449225 5.1263,-2.315107 12.0165,-2.315107 7.3312,0 12.8433,2.811201 5.5673,2.811201 8.7092,8.047751 3.1971,5.181429 3.2522,12.292113 h -14.9379 q -0.055,-2.976566 -1.2678,-5.401915 -1.1576,-2.42535 -3.4176,-3.858511 -2.2048,-1.488283 -5.457,-1.488283 -3.4727,0 -5.6775,1.488283 -2.2049,1.433161 -3.4176,3.968754 -1.2127,2.480471 -1.7087,5.677523 -0.441,3.14193 -0.441,6.61459 v 1.598526 q 0,3.472659 0.441,6.669711 0.4409,3.197052 1.6536,5.677523 1.2678,2.480471 3.4727,3.913632 2.2048,1.433162 5.7326,1.433162 z m 66.3664,-2.149742 V 50.083225 q 0,-2.866322 -0.937,-4.90582 -0.9371,-2.094621 -2.9215,-3.252174 -1.9292,-1.157553 -5.0161,-1.157553 -2.6458,0 -4.575,0.937067 -1.9293,0.881945 -2.9766,2.590714 -1.0473,1.653648 -1.0473,3.913633 h -15.875 q 0,-3.80339 1.7639,-7.220928 1.7638,-3.417538 5.1263,-6.008252 3.3624,-2.645836 7.9926,-4.134119 4.6853,-1.488283 10.4731,-1.488283 6.9453,0 12.3472,2.315107 5.4019,2.315106 8.4887,6.945319 3.142,4.630213 3.142,11.575532 v 25.521293 q 0,4.905821 0.6063,8.047751 0.6064,3.086808 1.7639,5.401915 v 0.937067 h -16.0404 q -1.1575,-2.42535 -1.7639,-6.063374 -0.5512,-3.693146 -0.5512,-7.386292 z m 2.0946,-22.875457 0.1103,8.984818 h -8.8746 q -3.1419,0 -5.457,0.716581 -2.3151,0.71658 -3.8034,2.039498 -1.4883,1.267797 -2.2049,2.976566 -0.6614,1.708769 -0.6614,3.748267 0,2.039499 0.937,3.693146 0.9371,1.598526 2.701,2.535593 1.7639,0.881945 4.1341,0.881945 3.5829,0 6.2287,-1.433161 2.6459,-1.433161 4.079,-3.527781 1.4883,-2.09462 1.5434,-3.968754 l 4.1893,6.724833 q -0.882,2.259985 -2.4254,4.685335 -1.4882,2.425349 -3.8034,4.575091 -2.3151,2.09462 -5.5672,3.47266 -3.2522,1.322917 -7.7171,1.322917 -5.6775,0 -10.3077,-2.259984 -4.5751,-2.315107 -7.276,-6.338982 -2.6459,-4.078997 -2.6459,-9.260426 0,-4.685335 1.7639,-8.323359 1.7639,-3.638024 5.1814,-6.118496 3.4727,-2.535592 8.6541,-3.803389 5.1815,-1.322918 12.0165,-1.322918 z"
       id="text1"
       style="font-weight:bold;font-size:112.889px;line-height:1.25;font-family:Roboto;-inkscape-font-specification:'Roboto, Bold';stroke-width:0.264583;fill:#ffffff"
       aria-label="Danetiska Respublica" /><g
       id="text5"
       style="font-size:112.889px;line-height:1.05;font-family:Roboto;-inkscape-font-specification:'Roboto, Normal';stroke-width:0.264583;fill:#ffffff"
       aria-label="Ministeriom Culturas,Educatziones, i Recercas"><path
         d="m 379.3625,129.78935 h 10.30774 l 26.29299,65.42932 26.23788,-65.42932 h 10.36285 l -32.63197,80.25702 h -8.04775 z m -3.36241,0 h 9.09506 l 1.48828,48.94796 v 31.30906 h -10.58334 z m 70.77611,0 h 9.09506 v 80.25702 h -10.58334 v -31.30906 z m 37.31731,20.61547 v 59.64155 h -10.25262 v -59.64155 z m -11.02432,-15.81989 q 0,-2.48048 1.48829,-4.18924 1.5434,-1.70877 4.51997,-1.70877 2.92144,0 4.46484,1.70877 1.59853,1.70876 1.59853,4.18924 0,2.37022 -1.59853,4.07899 -1.5434,1.65365 -4.46484,1.65365 -2.97657,0 -4.51997,-1.65365 -1.48829,-1.70877 -1.48829,-4.07899 z m 37.59292,28.55298 v 46.90846 h -10.19749 v -59.64155 h 9.64627 z m -2.42535,14.8277 -4.24436,-0.16536 q 0.0551,-6.1185 1.81901,-11.29993 1.76389,-5.23655 4.96094,-9.09506 3.19706,-3.85851 7.60678,-5.95313 4.46485,-2.14974 9.86676,-2.14974 4.40973,0 7.93751,1.21267 3.52778,1.15756 6.00826,3.74827 2.53559,2.59071 3.85851,6.72483 1.32291,4.079 1.32291,9.97701 v 39.0812 h -10.25261 v -39.19144 q 0,-4.68534 -1.37804,-7.49654 -1.37804,-2.86632 -4.02388,-4.13412 -2.64583,-1.32292 -6.50434,-1.32292 -3.80339,0 -6.94532,1.59853 -3.08681,1.59853 -5.3468,4.40973 -2.20486,2.8112 -3.47265,6.44922 -1.21268,3.58291 -1.21268,7.60678 z m 65.64981,-27.56079 v 59.64155 h -10.25261 v -59.64155 z m -11.02432,-15.81989 q 0,-2.48048 1.48829,-4.18924 1.5434,-1.70877 4.51997,-1.70877 2.92144,0 4.46484,1.70877 1.59853,1.70876 1.59853,4.18924 0,2.37022 -1.59853,4.07899 -1.5434,1.65365 -4.46484,1.65365 -2.97657,0 -4.51997,-1.65365 -1.48829,-1.70877 -1.48829,-4.07899 z m 62.12202,59.64155 q 0,-2.20487 -0.99218,-4.079 -0.93707,-1.92926 -3.91364,-3.47266 -2.92144,-1.59853 -8.81945,-2.75608 -4.96094,-1.04731 -8.98482,-2.48047 -3.96875,-1.43316 -6.77995,-3.47266 -2.75608,-2.0395 -4.24436,-4.79558 -1.48829,-2.75608 -1.48829,-6.44922 0,-3.52778 1.54341,-6.66971 1.59852,-3.14193 4.46485,-5.56728 2.92144,-2.42535 7.00044,-3.80339 4.07899,-1.37804 9.09506,-1.37804 7.1658,0 12.23699,2.53559 5.07118,2.53559 7.77214,6.77996 2.70096,4.18924 2.70096,9.31554 h -10.19749 q 0,-2.48047 -1.48829,-4.79557 -1.43316,-2.37023 -4.24436,-3.91364 -2.75608,-1.5434 -6.77995,-1.5434 -4.24436,0 -6.8902,1.32292 -2.59071,1.26779 -3.80339,3.25217 -1.15755,1.98438 -1.15755,4.18924 0,1.65365 0.55121,2.97657 0.60634,1.26779 2.09462,2.37022 1.48829,1.04731 4.18924,1.98438 2.70096,0.93707 6.8902,1.87413 7.33117,1.65365 12.07163,3.96876 4.74045,2.3151 7.05556,5.67752 2.31511,3.36242 2.31511,8.158 0,3.91363 -1.65365,7.1658 -1.59853,3.25217 -4.68533,5.6224 -3.03169,2.31511 -7.27605,3.63803 -4.18924,1.26779 -9.42579,1.26779 -7.88239,0 -13.33943,-2.8112 -5.45703,-2.8112 -8.26823,-7.27605 -2.81121,-4.46484 -2.81121,-9.42579 h 10.25262 q 0.22049,4.18924 2.42535,6.66971 2.20486,2.42535 5.40191,3.47266 3.19706,0.99219 6.33899,0.99219 4.18924,0 7.00044,-1.10243 2.86632,-1.10243 4.3546,-3.03169 1.48828,-1.92925 1.48828,-4.40972 z m 48.507,-43.82166 v 7.82726 h -32.24612 v -7.82726 z m -21.33205,-14.49698 h 10.19749 v 59.36595 q 0,3.03168 0.93707,4.57509 0.93707,1.5434 2.42535,2.0395 1.48828,0.49609 3.19705,0.49609 1.2678,0 2.64584,-0.22048 1.43316,-0.27561 2.14974,-0.44098 l 0.0551,8.32336 q -1.21267,0.38585 -3.19705,0.71658 -1.92926,0.38585 -4.68533,0.38585 -3.74827,0 -6.8902,-1.48828 -3.14193,-1.48828 -5.01607,-4.96094 -1.81901,-3.52778 -1.81901,-9.48091 z m 58.04302,75.24096 q -6.22873,0 -11.29992,-2.09462 -5.01606,-2.14974 -8.65409,-6.00825 -3.5829,-3.85851 -5.51216,-9.15018 -1.92925,-5.29167 -1.92925,-11.57553 v -2.31511 q 0,-7.27605 2.14974,-12.95357 2.14974,-5.73265 5.84289,-9.7014 3.69314,-3.96875 8.37848,-6.00825 4.68533,-2.0395 9.7014,-2.0395 6.3941,0 11.02431,2.20486 4.68534,2.20486 7.6619,6.17362 2.97657,3.91363 4.40973,9.26042 1.43316,5.29168 1.43316,11.57554 v 4.57509 h -44.53824 v -8.32336 h 34.34075 v -0.7717 q -0.22049,-3.96876 -1.65365,-7.71702 -1.37804,-3.74827 -4.40973,-6.17362 -3.03168,-2.42535 -8.26823,-2.42535 -3.47266,0 -6.39411,1.48828 -2.92144,1.43316 -5.01606,4.29948 -2.09462,2.86633 -3.25217,7.00045 -1.15756,4.13411 -1.15756,9.53603 v 2.31511 q 0,4.24436 1.15756,7.99263 1.21267,3.69314 3.47266,6.50434 2.3151,2.8112 5.56728,4.40973 3.30729,1.59852 7.49653,1.59852 5.40192,0 9.15018,-2.20486 3.74827,-2.20486 6.55947,-5.89801 l 6.17362,4.90582 q -1.92926,2.92145 -4.90582,5.56728 -2.97657,2.64584 -7.33117,4.29949 -4.29949,1.65364 -10.1975,1.65364 z m 45.30994,-51.37331 v 50.27088 h -10.1975 v -59.64155 h 9.92189 z m 18.63109,-9.7014 -0.0551,9.48091 q -1.2678,-0.27561 -2.42535,-0.33073 -1.10243,-0.11024 -2.53559,-0.11024 -3.52778,0 -6.22874,1.10243 -2.70096,1.10243 -4.57509,3.08681 -1.87414,1.98438 -2.97657,4.74046 -1.04731,2.70095 -1.37804,5.95313 l -2.86632,1.65364 q 0,-5.40191 1.04731,-10.14237 1.10243,-4.74045 3.36242,-8.37848 2.25998,-3.69314 5.73264,-5.73264 3.52778,-2.09462 8.37848,-2.09462 1.10243,0 2.5356,0.27561 1.43316,0.22048 1.98437,0.49609 z m 20.50525,0.33073 v 59.64155 H 784.3959 V 150.40482 Z M 783.6242,134.58493 q 0,-2.48048 1.48828,-4.18924 1.54341,-1.70877 4.51997,-1.70877 2.92145,0 4.46485,1.70877 1.59853,1.70876 1.59853,4.18924 0,2.37022 -1.59853,4.07899 -1.5434,1.65365 -4.46485,1.65365 -2.97656,0 -4.51997,-1.65365 -1.48828,-1.70877 -1.48828,-4.07899 z m 24.69445,46.30212 v -1.26779 q 0,-6.44923 1.87414,-11.96139 1.87413,-5.56727 5.40191,-9.64627 3.52778,-4.13412 8.54385,-6.39411 5.01606,-2.3151 11.2448,-2.3151 6.28386,0 11.29992,2.3151 5.07119,2.25999 8.59897,6.39411 3.5829,4.079 5.45704,9.64627 1.87413,5.51216 1.87413,11.96139 v 1.26779 q 0,6.44923 -1.87413,11.96139 -1.87414,5.51216 -5.45704,9.64627 -3.52778,4.079 -8.54384,6.39411 -4.96095,2.25998 -11.24481,2.25998 -6.28386,0 -11.29992,-2.25998 -5.01607,-2.31511 -8.59897,-6.39411 -3.52778,-4.13411 -5.40191,-9.64627 -1.87414,-5.51216 -1.87414,-11.96139 z m 10.1975,-1.26779 v 1.26779 q 0,4.46485 1.04731,8.43361 1.04731,3.91363 3.14193,6.94532 2.14974,3.03168 5.34679,4.79557 3.19705,1.70877 7.44141,1.70877 4.18924,0 7.33117,-1.70877 3.19705,-1.76389 5.29167,-4.79557 2.09462,-3.03169 3.14193,-6.94532 1.10244,-3.96876 1.10244,-8.43361 v -1.26779 q 0,-4.40973 -1.10244,-8.32336 -1.04731,-3.96875 -3.19705,-7.00044 -2.09462,-3.08681 -5.29167,-4.8507 -3.14193,-1.76389 -7.38629,-1.76389 -4.18924,0 -7.38629,1.76389 -3.14193,1.76389 -5.29167,4.8507 -2.09462,3.03169 -3.14193,7.00044 -1.04731,3.91363 -1.04731,8.32336 z m 67.02785,-17.3633 v 47.79041 h -10.25261 v -59.64155 h 9.70139 z m -2.09462,15.70965 -4.74046,-0.16536 q 0.0551,-6.1185 1.59853,-11.29993 1.5434,-5.23655 4.57509,-9.09506 3.03169,-3.85851 7.55166,-5.95313 4.51997,-2.14974 10.4731,-2.14974 4.18924,0 7.71702,1.21267 3.52778,1.15756 6.1185,3.69315 2.59071,2.53559 4.02387,6.50435 1.43316,3.96875 1.43316,9.59115 v 39.74266 h -10.19749 v -39.24656 q 0,-4.68534 -1.59853,-7.49654 -1.5434,-2.8112 -4.40972,-4.079 -2.86633,-1.32292 -6.72484,-1.32292 -4.51997,0 -7.55165,1.59853 -3.03169,1.59853 -4.8507,4.40973 -1.81901,2.8112 -2.64584,6.44922 -0.7717,3.58291 -0.7717,7.60678 z m 38.64023,-5.6224 -6.83508,2.09462 q 0.0551,-4.90582 1.59853,-9.42579 1.59852,-4.51997 4.57509,-8.04775 3.03169,-3.52778 7.44141,-5.56728 4.40973,-2.09462 10.08725,-2.09462 4.79558,0 8.48873,1.26779 3.74826,1.2678 6.28386,3.91364 2.59071,2.59071 3.91363,6.66971 1.32292,4.079 1.32292,9.7014 v 39.19144 h -10.25262 v -39.30169 q 0,-5.01606 -1.59852,-7.77214 -1.54341,-2.8112 -4.40973,-3.91363 -2.8112,-1.15756 -6.72483,-1.15756 -3.36242,0 -5.95313,1.15756 -2.59072,1.15755 -4.35461,3.19705 -1.76389,1.98438 -2.70096,4.57509 -0.88194,2.59072 -0.88194,5.51216 z m 130.30739,12.18187 h 10.5834 q -0.8269,7.60678 -4.3546,13.61503 -3.5278,6.00825 -9.977,9.53603 -6.4493,3.47266 -16.0955,3.47266 -7.0556,0 -12.8434,-2.64583 -5.7326,-2.64584 -9.8667,-7.49654 -4.1342,-4.90582 -6.3941,-11.74089 -2.2049,-6.8902 -2.2049,-15.3238 v -7.99263 q 0,-8.43361 2.2049,-15.26868 2.2599,-6.8902 6.4492,-11.79602 4.2443,-4.90582 10.1975,-7.55166 5.9531,-2.64583 13.3945,-2.64583 9.0951,0 15.3789,3.41753 6.2839,3.41754 9.7566,9.48092 3.5277,6.00825 4.3546,13.94576 h -10.5834 q -0.7717,-5.6224 -2.8663,-9.64628 -2.0946,-4.079 -5.9531,-6.28386 -3.8585,-2.20486 -10.0873,-2.20486 -5.3468,0 -9.4258,2.03949 -4.0238,2.0395 -6.7799,5.78777 -2.701,3.74827 -4.079,8.98482 -1.3781,5.23655 -1.3781,11.63065 v 8.10288 q 0,5.898 1.2127,11.07943 1.2678,5.18143 3.8034,9.09506 2.5356,3.91364 6.4492,6.17362 3.9137,2.20486 9.2605,2.20486 6.7799,0 10.8038,-2.14974 4.0239,-2.14974 6.0634,-6.17361 2.0946,-4.02388 2.9765,-9.64628 z m 59.9723,11.7409 v -45.86116 h 10.2526 v 59.64155 h -9.7565 z m 1.9292,-12.56772 4.2444,-0.11025 q 0,5.95313 -1.2678,11.02432 -1.2127,5.01606 -3.9687,8.70921 -2.7561,3.69314 -7.221,5.78776 -4.4648,2.0395 -10.8589,2.0395 -4.3546,0 -7.9927,-1.26779 -3.5829,-1.2678 -6.1736,-3.91364 -2.5907,-2.64583 -4.0238,-6.89019 -1.3781,-4.24437 -1.3781,-10.1975 v -38.47486 h 10.1975 v 38.58511 q 0,4.02387 0.882,6.66971 0.937,2.59071 2.4804,4.13412 1.5986,1.48828 3.5278,2.09462 1.9844,0.60633 4.079,0.60633 6.5043,0 10.3077,-2.48047 3.8034,-2.53559 5.4571,-6.77995 1.7087,-4.29948 1.7087,-9.53603 z m 34.892,-58.31864 v 84.66675 h -10.2526 v -84.66675 z m 41.3412,25.0252 v 7.82726 h -32.2461 v -7.82726 z m -21.3321,-14.49698 h 10.1975 v 59.36595 q 0,3.03168 0.9371,4.57509 0.9371,1.5434 2.4253,2.0395 1.4883,0.49609 3.1971,0.49609 1.2678,0 2.6458,-0.22048 1.4332,-0.27561 2.1498,-0.44098 l 0.055,8.32336 q -1.2127,0.38585 -3.1971,0.71658 -1.9292,0.38585 -4.6853,0.38585 -3.7483,0 -6.8902,-1.48828 -3.1419,-1.48828 -5.0161,-4.96094 -1.819,-3.52778 -1.819,-9.48091 z m 69.784,60.35814 v -45.86116 h 10.2526 v 59.64155 h -9.7565 z m 1.9293,-12.56772 4.2443,-0.11025 q 0,5.95313 -1.2678,11.02432 -1.2126,5.01606 -3.9687,8.70921 -2.7561,3.69314 -7.221,5.78776 -4.4648,2.0395 -10.8589,2.0395 -4.3546,0 -7.9926,-1.26779 -3.5829,-1.2678 -6.1737,-3.91364 -2.5907,-2.64583 -4.0238,-6.89019 -1.3781,-4.24437 -1.3781,-10.1975 v -38.47486 h 10.1975 v 38.58511 q 0,4.02387 0.882,6.66971 0.937,2.59071 2.4804,4.13412 1.5986,1.48828 3.5278,2.09462 1.9844,0.60633 4.079,0.60633 6.5044,0 10.3078,-2.48047 3.8033,-2.53559 5.457,-6.77995 1.7088,-4.29948 1.7088,-9.53603 z m 34.01,-23.92277 v 50.27088 h -10.1975 v -59.64155 h 9.9218 z m 18.631,-9.7014 -0.055,9.48091 q -1.2678,-0.27561 -2.4253,-0.33073 -1.1025,-0.11024 -2.5356,-0.11024 -3.5278,0 -6.2288,1.10243 -2.7009,1.10243 -4.575,3.08681 -1.8742,1.98438 -2.9766,4.74046 -1.0473,2.70095 -1.3781,5.95313 l -2.8663,1.65364 q 0,-5.40191 1.0473,-10.14237 1.1025,-4.74045 3.3625,-8.37848 2.2599,-3.69314 5.7326,-5.73264 3.5278,-2.09462 8.3785,-2.09462 1.1024,0 2.5356,0.27561 1.4331,0.22048 1.9843,0.49609 z m 42.3885,49.77479 v -30.70272 q 0,-3.52778 -1.4331,-6.1185 -1.3781,-2.64583 -4.1893,-4.079 -2.8112,-1.43316 -6.9453,-1.43316 -3.8585,0 -6.7799,1.32292 -2.8664,1.32292 -4.52,3.47266 -1.5985,2.14974 -1.5985,4.63021 h -10.1975 q 0,-3.19705 1.6536,-6.33898 1.6537,-3.14193 4.7405,-5.67752 3.1419,-2.59071 7.4965,-4.079 4.4097,-1.5434 9.8116,-1.5434 6.5044,0 11.4653,2.20486 5.0161,2.20486 7.8273,6.66971 2.8663,4.40973 2.8663,11.07944 v 27.78128 q 0,2.97656 0.4961,6.33898 0.5512,3.36242 1.5985,5.78777 v 0.88194 h -10.6384 q -0.7717,-1.76389 -1.2127,-4.68533 -0.441,-2.97657 -0.441,-5.51216 z m 1.7639,-25.96227 0.1103,7.16581 h -10.3078 q -4.3546,0 -7.7721,0.71658 -3.4176,0.66146 -5.7327,2.0395 -2.3151,1.37804 -3.5277,3.47266 -1.2127,2.0395 -1.2127,4.79558 0,2.8112 1.2678,5.1263 1.2678,2.31511 3.8034,3.69315 2.5907,1.32292 6.339,1.32292 4.6853,0 8.2682,-1.98438 3.5829,-1.98438 5.6775,-4.8507 2.1498,-2.86632 2.3151,-5.56728 l 4.3546,4.90582 q -0.3858,2.31511 -2.0946,5.12631 -1.7088,2.8112 -4.5751,5.40191 -2.8112,2.5356 -6.7248,4.24437 -3.8585,1.65364 -8.7092,1.65364 -6.0634,0 -10.6385,-2.37022 -4.52,-2.37023 -7.0556,-6.33899 -2.4804,-4.02387 -2.4804,-8.98481 0,-4.79558 1.8741,-8.43361 1.8741,-3.69314 5.4019,-6.11849 3.5278,-2.48047 8.4887,-3.74827 4.961,-1.2678 11.0795,-1.2678 z m 59.2006,20.33987 q 0,-2.20487 -0.9922,-4.079 -0.937,-1.92926 -3.9136,-3.47266 -2.9215,-1.59853 -8.8195,-2.75608 -4.9609,-1.04731 -8.9848,-2.48047 -3.9687,-1.43316 -6.7799,-3.47266 -2.7561,-2.0395 -4.2444,-4.79558 -1.4883,-2.75608 -1.4883,-6.44922 0,-3.52778 1.5434,-6.66971 1.5986,-3.14193 4.4649,-5.56728 2.9214,-2.42535 7.0004,-3.80339 4.079,-1.37804 9.0951,-1.37804 7.1658,0 12.237,2.53559 5.0712,2.53559 7.7721,6.77996 2.701,4.18924 2.701,9.31554 h -10.1975 q 0,-2.48047 -1.4883,-4.79557 -1.4332,-2.37023 -4.2444,-3.91364 -2.756,-1.5434 -6.7799,-1.5434 -4.2444,0 -6.8902,1.32292 -2.5907,1.26779 -3.8034,3.25217 -1.1576,1.98438 -1.1576,4.18924 0,1.65365 0.5513,2.97657 0.6063,1.26779 2.0946,2.37022 1.4883,1.04731 4.1892,1.98438 2.701,0.93707 6.8902,1.87413 7.3312,1.65365 12.0716,3.96876 4.7405,2.3151 7.0556,5.67752 2.3151,3.36242 2.3151,8.158 0,3.91363 -1.6536,7.1658 -1.5986,3.25217 -4.6854,5.6224 -3.0317,2.31511 -7.276,3.63803 -4.1893,1.26779 -9.4258,1.26779 -7.8824,0 -13.3394,-2.8112 -5.4571,-2.8112 -8.2683,-7.27605 -2.8112,-4.46484 -2.8112,-9.42579 h 10.2526 q 0.2205,4.18924 2.4254,6.66971 2.2049,2.42535 5.4019,3.47266 3.1971,0.99219 6.339,0.99219 4.1892,0 7.0004,-1.10243 2.8663,-1.10243 4.3546,-3.03169 1.4883,-1.92925 1.4883,-4.40972 z m 32.7974,3.69314 v 8.21312 q 0,5.01606 -2.5356,10.58334 -2.5356,5.6224 -7.1107,9.37067 l -5.7878,-4.02387 q 1.7639,-2.42535 2.9766,-4.96095 1.2127,-2.48047 1.819,-5.18142 0.6615,-2.64584 0.6615,-5.62241 v -8.37848 z"
         id="path1"
         style="fill:#ffffff" /><path
         d="m 426.98755,319.92572 v 8.65408 h -42.49874 v -8.65408 z m -40.349,-71.60294 v 80.25702 h -10.63846 v -80.25702 z m 34.7266,34.50611 v 8.65409 h -36.87634 v -8.65409 z m 5.07118,-34.50611 v 8.70921 h -41.94752 v -8.70921 z m 48.72748,68.68149 v -73.09122 h 10.25262 v 84.66675 h -9.37067 z M 435.0353,299.42049 v -1.15756 q 0,-6.83507 1.65365,-12.40235 1.70877,-5.6224 4.79558,-9.64628 3.14193,-4.02387 7.44141,-6.17362 4.35461,-2.20486 9.7014,-2.20486 5.6224,0 9.81164,1.98438 4.24436,1.92925 7.16581,5.67752 2.97656,3.69315 4.68533,8.9297 1.70877,5.23655 2.37023,11.85114 v 5.07118 q -0.60634,6.55947 -2.37023,11.79602 -1.70877,5.23655 -4.68533,8.9297 -2.92145,3.69314 -7.16581,5.67752 -4.24436,1.92926 -9.92188,1.92926 -5.23655,0 -9.59116,-2.25999 -4.29948,-2.25998 -7.44141,-6.33898 -3.08681,-4.079 -4.79558,-9.59116 -1.65365,-5.56728 -1.65365,-12.07162 z m 10.25262,-1.15756 v 1.15756 q 0,4.46484 0.88194,8.37848 0.93707,3.91363 2.86632,6.89019 1.92926,2.97657 4.90582,4.68534 2.97657,1.65365 7.11069,1.65365 5.07118,0 8.32336,-2.14974 3.30729,-2.14975 5.29167,-5.67753 1.98438,-3.52778 3.08681,-7.6619 v -13.2843 q -0.66146,-3.03169 -1.92926,-5.84289 -1.21267,-2.86632 -3.19705,-5.07118 -1.92925,-2.25999 -4.79558,-3.58291 -2.8112,-1.32291 -6.66971,-1.32291 -4.18924,0 -7.22093,1.76389 -2.97656,1.70877 -4.90582,4.74045 -1.92925,2.97657 -2.86632,6.94532 -0.88194,3.91364 -0.88194,8.37848 z m 92.43889,16.53648 v -45.86116 h 10.25261 v 59.64155 h -9.75652 z m 1.92926,-12.56772 4.24436,-0.11025 q 0,5.95313 -1.2678,11.02432 -1.21267,5.01606 -3.96875,8.70921 -2.75608,3.69315 -7.22093,5.78777 -4.46485,2.0395 -10.85895,2.0395 -4.35461,0 -7.99263,-1.2678 -3.5829,-1.2678 -6.17362,-3.91363 -2.59071,-2.64584 -4.02387,-6.8902 -1.37804,-4.24436 -1.37804,-10.19749 v -38.47487 h 10.19749 v 38.58511 q 0,4.02387 0.88194,6.66971 0.93707,2.59071 2.48048,4.13412 1.59852,1.48828 3.52778,2.09462 1.98437,0.60634 4.07899,0.60634 6.50435,0 10.30774,-2.48047 3.80339,-2.5356 5.45704,-6.77996 1.70877,-4.29948 1.70877,-9.53603 z m 47.68016,19.07206 q 3.63802,0 6.72483,-1.48828 3.08681,-1.48828 5.07119,-4.079 1.98438,-2.64583 2.25998,-6.00825 h 9.7014 q -0.27561,5.29167 -3.5829,9.86677 -3.25217,4.51997 -8.54385,7.33117 -5.29167,2.75608 -11.63065,2.75608 -6.72483,0 -11.7409,-2.37023 -4.96094,-2.37023 -8.26823,-6.50435 -3.25218,-4.13412 -4.90583,-9.48091 -1.59852,-5.40192 -1.59852,-11.41017 v -2.31511 q 0,-6.00825 1.59852,-11.35504 1.65365,-5.40192 4.90583,-9.53604 3.30729,-4.13411 8.26823,-6.50434 5.01607,-2.37023 11.7409,-2.37023 7.00044,0 12.23699,2.86632 5.23655,2.8112 8.21312,7.71702 3.03168,4.8507 3.30729,11.02432 h -9.7014 q -0.2756,-3.69315 -2.09462,-6.66971 -1.76389,-2.97657 -4.8507,-4.74046 -3.03168,-1.81901 -7.11068,-1.81901 -4.68533,0 -7.88239,1.87413 -3.14193,1.81902 -5.01606,4.96095 -1.81901,3.08681 -2.64584,6.89019 -0.7717,3.74827 -0.7717,7.6619 v 2.31511 q 0,3.91363 0.7717,7.71702 0.77171,3.80339 2.59072,6.8902 1.87413,3.08681 5.01606,4.96094 3.19705,1.81901 7.93751,1.81901 z m 70.39026,-2.92144 v -30.70272 q 0,-3.52778 -1.43317,-6.1185 -1.37803,-2.64583 -4.18924,-4.07899 -2.8112,-1.43316 -6.94531,-1.43316 -3.85852,0 -6.77996,1.32291 -2.86632,1.32292 -4.51997,3.47266 -1.59852,2.14975 -1.59852,4.63022 h -10.1975 q 0,-3.19706 1.65365,-6.33899 1.65365,-3.14193 4.74046,-5.67752 3.14193,-2.59071 7.49653,-4.079 4.40973,-1.5434 9.81164,-1.5434 6.50435,0 11.46529,2.20486 5.01607,2.20487 7.82727,6.66971 2.86632,4.40973 2.86632,11.07944 v 27.78128 q 0,2.97657 0.49609,6.33898 0.55122,3.36242 1.59853,5.78777 v 0.88194 h -10.63847 q -0.7717,-1.76389 -1.21267,-4.68533 -0.44097,-2.97657 -0.44097,-5.51216 z m 1.76389,-25.96226 0.11024,7.1658 h -10.30774 q -4.3546,0 -7.77214,0.71658 -3.41754,0.66146 -5.73264,2.0395 -2.31511,1.37804 -3.52778,3.47266 -1.21268,2.0395 -1.21268,4.79558 0,2.8112 1.2678,5.1263 1.26779,2.31511 3.80339,3.69315 2.59071,1.32292 6.33898,1.32292 4.68533,0 8.26824,-1.98438 3.5829,-1.98438 5.67752,-4.8507 2.14974,-2.86632 2.3151,-5.56728 l 4.35461,4.90582 q -0.38585,2.31511 -2.09462,5.12631 -1.70877,2.8112 -4.57509,5.40192 -2.8112,2.53559 -6.72483,4.24436 -3.85852,1.65365 -8.70921,1.65365 -6.06338,0 -10.63847,-2.37023 -4.51997,-2.37023 -7.05556,-6.33898 -2.48047,-4.02388 -2.48047,-8.98482 0,-4.79558 1.87413,-8.4336 1.87413,-3.69315 5.40191,-6.1185 3.52779,-2.48047 8.48873,-3.74827 4.96094,-1.26779 11.07944,-1.26779 z m 49.44407,-23.4818 v 7.82727 h -32.24613 v -7.82727 z M 687.6024,254.44128 h 10.19749 v 59.36594 q 0,3.03169 0.93707,4.57509 0.93706,1.54341 2.42535,2.0395 1.48828,0.49609 3.19705,0.49609 1.2678,0 2.64583,-0.22048 1.43317,-0.27561 2.14975,-0.44098 l 0.0551,8.32336 q -1.21268,0.38585 -3.19705,0.71658 -1.92926,0.38586 -4.68534,0.38586 -3.74827,0 -6.8902,-1.48829 -3.14193,-1.48828 -5.01606,-4.96094 -1.81901,-3.52778 -1.81901,-9.48091 z m 77.72143,65.76004 v 8.37848 h -43.38069 v -8.37848 z m -1.59853,-44.04214 -39.46705,52.42062 h -6.22874 v -7.49653 l 39.19144,-52.14502 h 6.50435 z m -4.51997,-7.22093 v 8.4336 h -40.73485 v -8.4336 z m 28.77348,0 v 59.64155 h -10.25262 v -59.64155 z m -11.02432,-15.81989 q 0,-2.48047 1.48829,-4.18924 1.5434,-1.70877 4.51996,-1.70877 2.92145,0 4.46485,1.70877 1.59853,1.70877 1.59853,4.18924 0,2.37023 -1.59853,4.07899 -1.5434,1.65365 -4.46485,1.65365 -2.97656,0 -4.51996,-1.65365 -1.48829,-1.70876 -1.48829,-4.07899 z m 24.69445,46.30213 v -1.2678 q 0,-6.44922 1.87414,-11.96138 1.87413,-5.56728 5.40191,-9.64628 3.52778,-4.13412 8.54385,-6.3941 5.01606,-2.31511 11.2448,-2.31511 6.28386,0 11.29993,2.31511 5.07118,2.25998 8.59896,6.3941 3.58291,4.079 5.45704,9.64628 1.87413,5.51216 1.87413,11.96138 v 1.2678 q 0,6.44922 -1.87413,11.96138 -1.87413,5.51216 -5.45704,9.64628 -3.52778,4.07899 -8.54384,6.3941 -4.96095,2.25999 -11.24481,2.25999 -6.28386,0 -11.29992,-2.25999 -5.01606,-2.31511 -8.59897,-6.3941 -3.52778,-4.13412 -5.40191,-9.64628 -1.87414,-5.51216 -1.87414,-11.96138 z m 10.1975,-1.2678 v 1.2678 q 0,4.46484 1.04731,8.4336 1.04731,3.91363 3.14193,6.94532 2.14974,3.03168 5.34679,4.79558 3.19705,1.70876 7.44141,1.70876 4.18924,0 7.33117,-1.70876 3.19706,-1.7639 5.29168,-4.79558 2.09462,-3.03169 3.14193,-6.94532 1.10243,-3.96876 1.10243,-8.4336 v -1.2678 q 0,-4.40973 -1.10243,-8.32336 -1.04731,-3.96875 -3.19706,-7.00044 -2.09462,-3.08681 -5.29167,-4.8507 -3.14193,-1.76389 -7.38629,-1.76389 -4.18924,0 -7.38629,1.76389 -3.14193,1.76389 -5.29167,4.8507 -2.09462,3.03169 -3.14193,7.00044 -1.04731,3.91363 -1.04731,8.32336 z m 67.08297,-16.48135 v 46.90846 h -10.19749 v -59.64155 h 9.64628 z m -2.42535,14.8277 -4.24436,-0.16536 q 0.0551,-6.1185 1.81901,-11.29993 1.76389,-5.23655 4.96095,-9.09506 3.19705,-3.85851 7.60678,-5.95313 4.46484,-2.14974 9.86676,-2.14974 4.40972,0 7.93751,1.21267 3.52778,1.15756 6.00825,3.74827 2.53559,2.59072 3.85851,6.72484 1.32292,4.07899 1.32292,9.977 v 39.0812 h -10.25262 v -39.19144 q 0,-4.68534 -1.37804,-7.49654 -1.37804,-2.86632 -4.02387,-4.13412 -2.64584,-1.32291 -6.50435,-1.32291 -3.80339,0 -6.94532,1.59852 -3.08681,1.59853 -5.34679,4.40973 -2.20486,2.8112 -3.47266,6.44922 -1.21268,3.58291 -1.21268,7.60678 z m 79.31995,33.1832 q -6.22874,0 -11.29992,-2.09463 -5.01607,-2.14974 -8.65409,-6.00825 -3.58291,-3.85851 -5.51216,-9.15018 -1.92926,-5.29167 -1.92926,-11.57553 v -2.31511 q 0,-7.27605 2.14975,-12.95357 2.14974,-5.73265 5.84288,-9.7014 3.69315,-3.96875 8.37848,-6.00825 4.68534,-2.0395 9.7014,-2.0395 6.39411,0 11.02432,2.20486 4.68533,2.20487 7.6619,6.17362 2.97656,3.91363 4.40972,9.26043 1.43317,5.29167 1.43317,11.57553 v 4.57509 h -44.53824 v -8.32336 h 34.34074 v -0.7717 q -0.22048,-3.96876 -1.65364,-7.71702 -1.37804,-3.74827 -4.40973,-6.17362 -3.03169,-2.42535 -8.26824,-2.42535 -3.47266,0 -6.3941,1.48828 -2.92145,1.43316 -5.01607,4.29949 -2.09462,2.86632 -3.25217,7.00044 -1.15755,4.13412 -1.15755,9.53603 v 2.31511 q 0,4.24436 1.15755,7.99263 1.21268,3.69314 3.47266,6.50434 2.31511,2.8112 5.56728,4.40973 3.3073,1.59853 7.49654,1.59853 5.40191,0 9.15018,-2.20487 3.74827,-2.20486 6.55947,-5.89801 l 6.17361,4.90582 q -1.92925,2.92145 -4.90582,5.56728 -2.97656,2.64584 -7.33117,4.29949 -4.29948,1.65365 -10.19749,1.65365 z m 69.83909,-16.92233 q 0,-2.20486 -0.9922,-4.079 -0.9371,-1.92925 -3.9136,-3.47266 -2.9215,-1.59852 -8.8195,-2.75608 -4.9609,-1.04731 -8.9848,-2.48047 -3.96877,-1.43316 -6.77997,-3.47266 -2.75608,-2.0395 -4.24436,-4.79557 -1.48828,-2.75608 -1.48828,-6.44923 0,-3.52778 1.5434,-6.66971 1.59853,-3.14193 4.46485,-5.56728 2.92144,-2.42535 7.00046,-3.80339 4.079,-1.37804 9.095,-1.37804 7.1658,0 12.237,2.53559 5.0712,2.5356 7.7722,6.77996 2.7009,4.18924 2.7009,9.31554 h -10.1975 q 0,-2.48047 -1.4882,-4.79557 -1.4332,-2.37023 -4.2444,-3.91364 -2.7561,-1.5434 -6.78,-1.5434 -4.2443,0 -6.8902,1.32292 -2.5907,1.26779 -3.8033,3.25217 -1.1576,1.98438 -1.1576,4.18924 0,1.65365 0.5512,2.97657 0.6064,1.26779 2.0946,2.37023 1.4883,1.04731 4.1893,1.98437 2.7009,0.93707 6.8902,1.87414 7.3311,1.65364 12.0716,3.96875 4.7405,2.31511 7.0556,5.67752 2.3151,3.36242 2.3151,8.158 0,3.91363 -1.6537,7.1658 -1.5985,3.25218 -4.6853,5.6224 -3.0317,2.31511 -7.2761,3.63803 -4.1892,1.2678 -9.4258,1.2678 -7.8823,0 -13.33937,-2.81121 -5.45704,-2.8112 -8.26824,-7.27604 -2.8112,-4.46485 -2.8112,-9.42579 h 10.25261 q 0.22049,4.18924 2.4254,6.66971 2.2048,2.42535 5.4019,3.47266 3.197,0.99218 6.3389,0.99218 4.1893,0 7.0005,-1.10243 2.8663,-1.10243 4.3546,-3.03168 1.4883,-1.92926 1.4883,-4.40973 z m 32.7973,3.69315 v 8.21311 q 0,5.01607 -2.5356,10.58334 -2.5356,5.62241 -7.1107,9.37067 l -5.7877,-4.02387 q 1.7638,-2.42535 2.9765,-4.96094 1.2127,-2.48048 1.819,-5.18143 0.6615,-2.64584 0.6615,-5.6224 v -8.37848 z m 52.0348,-47.51481 v 59.64155 h -10.2526 v -59.64155 z m -11.0244,-15.81989 q 0,-2.48047 1.4883,-4.18924 1.5434,-1.70877 4.52,-1.70877 2.9214,0 4.4649,1.70877 1.5985,1.70877 1.5985,4.18924 0,2.37023 -1.5985,4.07899 -1.5435,1.65365 -4.4649,1.65365 -2.9766,0 -4.52,-1.65365 -1.4883,-1.70876 -1.4883,-4.07899 z m 56.9407,-4.79558 h 26.5686 q 9.0399,0 15.2686,2.75608 6.2839,2.75608 9.5361,8.15799 3.3073,5.3468 3.3073,13.17406 0,5.51216 -2.26,10.08725 -2.2049,4.51997 -6.3941,7.71702 -4.1341,3.14193 -9.9219,4.68534 l -2.9766,1.15755 h -24.97 l -0.1103,-8.65409 h 18.8516 q 5.7326,0 9.536,-1.98438 3.8034,-2.03949 5.7327,-5.45703 1.9292,-3.41754 1.9292,-7.55166 0,-4.63021 -1.819,-8.10287 -1.819,-3.47266 -5.7326,-5.34679 -3.8585,-1.92926 -9.977,-1.92926 h -15.9302 v 71.54781 h -10.6384 z m 46.9084,80.25702 -19.513,-36.38024 11.0794,-0.0551 19.7887,35.7739 v 0.66146 z m 45.8612,1.10244 q -6.2288,0 -11.3,-2.09463 -5.016,-2.14974 -8.654,-6.00825 -3.5829,-3.85851 -5.5122,-9.15018 -1.9293,-5.29167 -1.9293,-11.57553 v -2.31511 q 0,-7.27605 2.1498,-12.95357 2.1497,-5.73265 5.8429,-9.7014 3.6931,-3.96875 8.3784,-6.00825 4.6854,-2.0395 9.7014,-2.0395 6.3942,0 11.0244,2.20486 4.6853,2.20487 7.6619,6.17362 2.9765,3.91363 4.4097,9.26043 1.4332,5.29167 1.4332,11.57553 v 4.57509 h -44.5383 v -8.32336 h 34.3408 v -0.7717 q -0.2205,-3.96876 -1.6537,-7.71702 -1.378,-3.74827 -4.4097,-6.17362 -3.0317,-2.42535 -8.2683,-2.42535 -3.4726,0 -6.3941,1.48828 -2.9214,1.43316 -5.016,4.29949 -2.0946,2.86632 -3.2522,7.00044 -1.1575,4.13412 -1.1575,9.53603 v 2.31511 q 0,4.24436 1.1575,7.99263 1.2127,3.69314 3.4727,6.50434 2.3151,2.8112 5.5672,4.40973 3.3073,1.59853 7.4966,1.59853 5.4019,0 9.1502,-2.20487 3.7482,-2.20486 6.5594,-5.89801 l 6.1736,4.90582 q -1.9292,2.92145 -4.9058,5.56728 -2.9765,2.64584 -7.3311,4.29949 -4.2995,1.65365 -10.1975,1.65365 z m 58.9801,-8.37849 q 3.638,0 6.7248,-1.48828 3.0868,-1.48828 5.0712,-4.079 1.9844,-2.64583 2.26,-6.00825 h 9.7014 q -0.2756,5.29167 -3.5829,9.86677 -3.2522,4.51997 -8.5439,7.33117 -5.2916,2.75608 -11.6306,2.75608 -6.7249,0 -11.7409,-2.37023 -4.961,-2.37023 -8.2683,-6.50435 -3.2521,-4.13412 -4.9058,-9.48091 -1.5985,-5.40192 -1.5985,-11.41017 v -2.31511 q 0,-6.00825 1.5985,-11.35504 1.6537,-5.40192 4.9058,-9.53604 3.3073,-4.13411 8.2683,-6.50434 5.016,-2.37023 11.7409,-2.37023 7.0004,0 12.237,2.86632 5.2365,2.8112 8.2131,7.71702 3.0317,4.8507 3.3073,11.02432 h -9.7014 q -0.2756,-3.69315 -2.0946,-6.66971 -1.7639,-2.97657 -4.8507,-4.74046 -3.0317,-1.81901 -7.1107,-1.81901 -4.6854,0 -7.8824,1.87413 -3.1419,1.81902 -5.0161,4.96095 -1.819,3.08681 -2.6458,6.89019 -0.7717,3.74827 -0.7717,7.6619 v 2.31511 q 0,3.91363 0.7717,7.71702 0.7717,3.80339 2.5907,6.8902 1.8741,3.08681 5.0161,4.96094 3.197,1.81901 7.9375,1.81901 z m 59.9723,8.37849 q -6.2288,0 -11.3,-2.09463 -5.016,-2.14974 -8.6541,-6.00825 -3.5829,-3.85851 -5.5121,-9.15018 -1.9293,-5.29167 -1.9293,-11.57553 v -2.31511 q 0,-7.27605 2.1498,-12.95357 2.1497,-5.73265 5.8429,-9.7014 3.6931,-3.96875 8.3784,-6.00825 4.6854,-2.0395 9.7014,-2.0395 6.3941,0 11.0244,2.20486 4.6853,2.20487 7.6619,6.17362 2.9765,3.91363 4.4097,9.26043 1.4331,5.29167 1.4331,11.57553 v 4.57509 h -44.5382 v -8.32336 h 34.3408 v -0.7717 q -0.2205,-3.96876 -1.6537,-7.71702 -1.378,-3.74827 -4.4097,-6.17362 -3.0317,-2.42535 -8.2683,-2.42535 -3.4726,0 -6.3941,1.48828 -2.9214,1.43316 -5.016,4.29949 -2.0946,2.86632 -3.2522,7.00044 -1.1576,4.13412 -1.1576,9.53603 v 2.31511 q 0,4.24436 1.1576,7.99263 1.2127,3.69314 3.4727,6.50434 2.3151,2.8112 5.5672,4.40973 3.3073,1.59853 7.4966,1.59853 5.4019,0 9.1502,-2.20487 3.7482,-2.20486 6.5594,-5.89801 l 6.1736,4.90582 q -1.9292,2.92145 -4.9058,5.56728 -2.9765,2.64584 -7.3311,4.29949 -4.2995,1.65365 -10.1975,1.65365 z m 45.3099,-51.37332 v 50.27088 h -10.1975 v -59.64155 h 9.9219 z m 18.6311,-9.7014 -0.055,9.48091 q -1.2678,-0.2756 -2.4253,-0.33073 -1.1024,-0.11024 -2.5356,-0.11024 -3.5278,0 -6.2287,1.10243 -2.701,1.10243 -4.5751,3.08681 -1.8742,1.98438 -2.9766,4.74046 -1.0473,2.70096 -1.378,5.95313 l -2.8664,1.65365 q 0,-5.40192 1.0473,-10.14237 1.1025,-4.74046 3.3625,-8.37849 2.2599,-3.69314 5.7326,-5.73264 3.5278,-2.09462 8.3785,-2.09462 1.1024,0 2.5356,0.27561 1.4331,0.22048 1.9844,0.49609 z m 32.2462,52.69623 q 3.638,0 6.7248,-1.48828 3.0868,-1.48828 5.0712,-4.079 1.9844,-2.64583 2.26,-6.00825 h 9.7014 q -0.2756,5.29167 -3.5829,9.86677 -3.2522,4.51997 -8.5439,7.33117 -5.2917,2.75608 -11.6306,2.75608 -6.7249,0 -11.7409,-2.37023 -4.961,-2.37023 -8.2683,-6.50435 -3.2521,-4.13412 -4.9058,-9.48091 -1.5985,-5.40192 -1.5985,-11.41017 v -2.31511 q 0,-6.00825 1.5985,-11.35504 1.6537,-5.40192 4.9058,-9.53604 3.3073,-4.13411 8.2683,-6.50434 5.016,-2.37023 11.7409,-2.37023 7.0004,0 12.237,2.86632 5.2365,2.8112 8.2131,7.71702 3.0317,4.8507 3.3073,11.02432 h -9.7014 q -0.2756,-3.69315 -2.0947,-6.66971 -1.7638,-2.97657 -4.8507,-4.74046 -3.0316,-1.81901 -7.1106,-1.81901 -4.6854,0 -7.8824,1.87413 -3.142,1.81902 -5.0161,4.96095 -1.819,3.08681 -2.6458,6.89019 -0.7717,3.74827 -0.7717,7.6619 v 2.31511 q 0,3.91363 0.7717,7.71702 0.7717,3.80339 2.5907,6.8902 1.8741,3.08681 5.0161,4.96094 3.197,1.81901 7.9375,1.81901 z m 70.3902,-2.92144 v -30.70272 q 0,-3.52778 -1.4331,-6.1185 -1.3781,-2.64583 -4.1893,-4.07899 -2.8112,-1.43316 -6.9453,-1.43316 -3.8585,0 -6.78,1.32291 -2.8663,1.32292 -4.5199,3.47266 -1.5985,2.14975 -1.5985,4.63022 h -10.1975 q 0,-3.19706 1.6536,-6.33899 1.6537,-3.14193 4.7405,-5.67752 3.1419,-2.59071 7.4965,-4.079 4.4097,-1.5434 9.8116,-1.5434 6.5044,0 11.4653,2.20486 5.0161,2.20487 7.8273,6.66971 2.8663,4.40973 2.8663,11.07944 v 27.78128 q 0,2.97657 0.4961,6.33898 0.5512,3.36242 1.5985,5.78777 v 0.88194 h -10.6384 q -0.7717,-1.76389 -1.2127,-4.68533 -0.441,-2.97657 -0.441,-5.51216 z m 1.7639,-25.96226 0.1103,7.1658 h -10.3078 q -4.3546,0 -7.7721,0.71658 -3.4176,0.66146 -5.7327,2.0395 -2.3151,1.37804 -3.5277,3.47266 -1.2127,2.0395 -1.2127,4.79558 0,2.8112 1.2678,5.1263 1.2678,2.31511 3.8034,3.69315 2.5907,1.32292 6.3389,1.32292 4.6854,0 8.2683,-1.98438 3.5829,-1.98438 5.6775,-4.8507 2.1497,-2.86632 2.3151,-5.56728 l 4.3546,4.90582 q -0.3858,2.31511 -2.0946,5.12631 -1.7088,2.8112 -4.5751,5.40192 -2.8112,2.53559 -6.7248,4.24436 -3.8585,1.65365 -8.7092,1.65365 -6.0634,0 -10.6385,-2.37023 -4.52,-2.37023 -7.0556,-6.33898 -2.4804,-4.02388 -2.4804,-8.98482 0,-4.79558 1.8741,-8.4336 1.8741,-3.69315 5.4019,-6.1185 3.5278,-2.48047 8.4887,-3.74827 4.961,-1.26779 11.0795,-1.26779 z m 59.2005,20.33986 q 0,-2.20486 -0.9921,-4.079 -0.9371,-1.92925 -3.9137,-3.47266 -2.9214,-1.59852 -8.8194,-2.75608 -4.961,-1.04731 -8.9848,-2.48047 -3.9688,-1.43316 -6.78,-3.47266 -2.7561,-2.0395 -4.2444,-4.79557 -1.4882,-2.75608 -1.4882,-6.44923 0,-3.52778 1.5434,-6.66971 1.5985,-3.14193 4.4648,-5.56728 2.9215,-2.42535 7.0004,-3.80339 4.079,-1.37804 9.0951,-1.37804 7.1658,0 12.237,2.53559 5.0712,2.5356 7.7721,6.77996 2.701,4.18924 2.701,9.31554 h -10.1975 q 0,-2.48047 -1.4883,-4.79557 -1.4331,-2.37023 -4.2443,-3.91364 -2.7561,-1.5434 -6.78,-1.5434 -4.2444,0 -6.8902,1.32292 -2.5907,1.26779 -3.8034,3.25217 -1.1575,1.98438 -1.1575,4.18924 0,1.65365 0.5512,2.97657 0.6063,1.26779 2.0946,2.37023 1.4883,1.04731 4.1892,1.98437 2.701,0.93707 6.8902,1.87414 7.3312,1.65364 12.0717,3.96875 4.7404,2.31511 7.0555,5.67752 2.3151,3.36242 2.3151,8.158 0,3.91363 -1.6536,7.1658 -1.5985,3.25218 -4.6853,5.6224 -3.0317,2.31511 -7.2761,3.63803 -4.1892,1.2678 -9.4258,1.2678 -7.8824,0 -13.3394,-2.81121 -5.457,-2.8112 -8.2682,-7.27604 -2.8112,-4.46485 -2.8112,-9.42579 h 10.2526 q 0.2205,4.18924 2.4253,6.66971 2.2049,2.42535 5.4019,3.47266 3.1971,0.99218 6.339,0.99218 4.1893,0 7.0005,-1.10243 2.8663,-1.10243 4.3546,-3.03168 1.4882,-1.92926 1.4882,-4.40973 z"
         id="path2"
         style="fill:#ffffff" /></g></g></svg>
