<?xml version="1.0" encoding="UTF-8" standalone="no"?>
<!-- Created with Inkscape (http://www.inkscape.org/) -->

<svg
   width="1609.8728mm"
   height="357.99985mm"
   viewBox="0 0 1609.8728 357.99985"
   version="1.1"
   id="svg1"
   xml:space="preserve"
   xmlns="http://www.w3.org/2000/svg"
   xmlns:svg="http://www.w3.org/2000/svg"><defs
     id="defs1" /><g
     id="layer1"
     style="display:inline;fill:#ffffff"
     transform="translate(3.9999237,4.0000921)"><path
       id="path27"
       style="baseline-shift:baseline;display:inline;overflow:visible;opacity:1;vector-effect:none;fill:#ffffff;stroke-linecap:round;enable-background:accumulate;stop-color:#000000;stop-opacity:1"
       d="M -3.9999237,-4.0000921 V 199.99986 c -7.93e-5,85.00451 68.9953907,153.99999 153.9999037,153.9999 85.00451,9e-5 153.99998,-68.99539 153.9999,-153.9999 V -4.0000921 Z M -1.6784063e-4,1.805237e-4 H 30.000068 V 174.99983 H 59.999787 V 1.805237e-4 H 90.000023 V 174.99983 H 120.00026 V 1.805237e-4 h 29.99972 V 174.99983 h 150.00015 v 25.00003 a 149.99985,149.99985 0 0 1 -1.24076,19.25154 149.99985,149.99985 0 0 1 -28.75948,70.74865 v -114.9997 h -30.00024 v 144.75654 a 149.99985,149.99985 0 0 1 -29.99972,17.71985 V 175.00035 H 179.9997 v 171.96883 a 149.99985,149.99985 0 0 1 -29.9992,3.03031 h -5.2e-4 V 175.00035 H 4.0001048 v -5.2e-4 H -1.6784063e-4 Z M 219.55387,27.125657 c 5.14349,7.71611 -2.24426,15.131791 -2.05724,22.146451 0.28056,8.11694 3.08624,14.630541 3.74086,21.645191 0.93517,11.42385 -12.25065,23.248409 -16.36541,34.572051 -2.33793,1.00209 -3.27329,2.70569 -3.83439,3.70778 -0.74813,-1.70355 -0.93527,-3.40719 -0.56121,-5.01054 -3.92771,0.40084 -10.2868,9.82072 -5.14335,16.13389 -0.5611,0.0752 -1.08727,0.0314 -1.56218,-0.11575 -0.11873,-0.0368 -0.23415,-0.0802 -0.34623,-0.12971 -1.00877,-0.44523 -1.73842,-1.39396 -2.00556,-2.66754 -0.0594,-0.28301 -0.0958,-0.58188 -0.10749,-0.89503 -4.8629,6.81423 2.89947,15.53255 8.04292,12.32586 -5.70454,0.70147 -10.09985,-4.40916 -8.41654,-9.51983 1.12221,1.30272 3.27263,2.2043 5.89111,1.70325 -4.76937,-7.41548 -1.12173,-12.12527 2.52543,-15.53238 -0.18703,1.40293 0.37386,3.30716 1.6831,5.41155 1.30925,-2.2046 2.15065,-4.10891 4.30155,-4.40955 3.46013,-0.10022 4.95683,1.20255 5.05033,3.70779 -5.79807,0.30062 -6.82706,5.51181 -1.68361,10.32185 5.79807,4.60963 11.31566,16.73451 -2.33785,15.83262 2.24442,0.40085 3.55348,0.90224 7.4812,-0.40049 0.37408,0.90188 1.49637,2.70552 3.27319,3.30678 -10.94152,11.9249 -24.12704,7.81632 -31.70194,1.20251 -4.11476,3.40711 -9.53886,6.71419 -20.29334,2.80603 1.12221,-1.1023 2.15092,-1.90411 2.89905,-2.70578 -1.49628,-1.1023 -2.89901,-3.30685 -5.51749,-4.70979 2.43144,-1.30271 4.76911,-0.8015 7.01352,-0.8015 -0.0935,-2.1044 -0.0935,-3.8082 0.37414,-4.20905 1.58979,3.1065 8.13609,4.60958 11.78326,4.70979 -0.41498,-1.02088 -0.77802,-2.02655 -1.09192,-3.0179 -9.73107,-30.73181 27.82342,-47.471623 33.16851,-62.518665 1.02873,-2.80586 2.05704,-7.515854 0.93483,-11.223604 -2.24442,-4.709808 -6.35927,-1.302756 -6.17223,3.507279 0,4.60336 -2.95842,6.652382 -5.71697,6.890536 -0.1839,0.01588 -0.36709,0.02377 -0.54828,0.02377 3.46013,-6.21298 -4.5824,-22.145935 8.13593,-22.145935 -8.04247,-8.11695 10.19299,-14.129805 9.1643,-19.941935 z m 10.89184,0 c -1.02868,5.81213 17.2073,11.824985 9.16482,19.941935 12.32089,0 5.1584,14.952567 7.84448,21.535636 0.0867,0.212357 0.18333,0.416143 0.29146,0.610299 -2.89903,0 -6.26577,-2.004057 -6.26577,-6.914307 0.18704,-4.81004 -3.9273,-8.217109 -6.17172,-3.507279 -1.1222,3.70775 -0.0939,8.417744 0.93483,11.223604 5.51752,15.53243 45.35605,32.868355 32.0766,65.536565 3.64717,-0.10021 10.19346,-1.60329 11.78326,-4.70979 0.46763,0.40085 0.46763,2.10465 0.37413,4.20905 2.24441,0 4.58208,-0.50121 7.01353,0.8015 -2.61848,1.40294 -4.02122,3.60749 -5.51749,4.70979 0.74813,0.80167 1.77683,1.60348 2.89904,2.70578 -10.75447,3.90816 -16.17857,0.60108 -20.29333,-2.80603 -5.20775,4.54699 -13.06782,7.90993 -21.02714,5.69267 -0.72358,-0.20156 -1.44763,-0.4491 -2.17093,-0.7462 -2.8932,-1.18842 -5.76901,-3.16776 -8.50439,-6.14898 1.77682,-0.60126 2.89911,-2.4049 3.27319,-3.30678 3.92771,1.30273 5.23729,0.80134 7.48171,0.40049 -2.13336,0.14093 -3.79857,-0.0364 -5.06791,-0.4532 -6.8544,-2.25067 -2.16205,-11.49005 2.73007,-15.37942 5.14344,-4.81004 4.11445,-10.02123 -1.68362,-10.32185 0.0818,-2.19209 1.2375,-3.46341 3.84318,-3.67988 0.37223,-0.0309 0.77412,-0.0404 1.20664,-0.0279 1.61318,0.22548 2.49021,1.35316 3.38016,2.83291 0.29665,0.49325 0.59459,1.02549 0.9219,1.57664 1.30924,-2.10439 1.87013,-4.00862 1.6831,-5.41155 3.64717,3.40711 7.29429,8.1169 2.52492,15.53238 2.61848,0.50105 4.76942,-0.40053 5.89163,-1.70325 1.5781,4.79125 -2.18626,9.58223 -7.36338,9.58443 -0.34514,1.4e-4 -0.69663,-0.0208 -1.05317,-0.0646 5.14345,3.20669 12.90531,-5.51163 8.04241,-12.32586 -0.0935,2.50524 -1.77654,4.10867 -4.02095,3.80803 5.14345,-6.31317 -1.21563,-15.73305 -5.14335,-16.13389 0.37407,1.60335 0.18693,3.30699 -0.56121,5.01054 -0.42082,-0.75156 -1.05233,-1.89798 -2.32802,-2.84685 -0.42523,-0.31629 -0.92188,-0.61041 -1.50637,-0.86093 -4.11475,-11.323644 -17.30058,-23.148201 -16.36541,-34.572051 0.65463,-7.01465 3.4603,-13.528251 3.74086,-21.645191 0.17534,-6.576243 -6.30753,-13.50485 -2.88044,-20.703129 0.22847,-0.479885 0.50122,-0.961066 0.82268,-1.443322 z m -37.91809,52.309468 c 5.79805,-0.10022 5.1436,8.617869 0.8418,11.724349 0.65463,-4.30899 0.2804,-8.116819 -0.8418,-11.724349 z m 64.94487,0 c -0.84166,2.705648 -1.26243,5.523995 -1.14412,8.581905 0.0394,1.019304 0.13865,2.065197 0.30231,3.142444 -4.3018,-3.10648 -4.95625,-11.824569 0.84181,-11.724349 z m -59.76173,2.684074 c 0.19209,-0.0033 0.36935,0.01188 0.53279,0.04444 0.16343,0.03256 0.31321,0.08246 0.4501,0.148311 0.82132,0.395102 1.18366,1.366185 1.31516,2.634465 -1.12221,0.70146 -1.68329,1.302594 -2.71198,2.104264 0.21041,-0.563674 0.368,-1.05667 0.44855,-1.579749 0.13426,-0.871797 0.0541,-1.826885 -0.35501,-3.330029 0.11105,-0.0127 0.21795,-0.0197 0.32039,-0.0217 z m 54.57858,0 c 0.10245,0.0018 0.20934,0.0092 0.3204,0.0217 -0.49098,1.803773 -0.50861,2.81822 -0.25012,3.846794 0.0862,0.342858 0.20286,0.687202 0.34313,1.062984 -1.02869,-0.80167 -1.58977,-1.402804 -2.71198,-2.104264 0.13151,-1.26828 0.49421,-2.23936 1.31569,-2.634465 0.13691,-0.06585 0.28665,-0.115747 0.4501,-0.148311 0.16344,-0.03257 0.3407,-0.04774 0.53278,-0.04444 z m -0.80202,50.626881 c -1.58979,0 -2.99258,1.30302 -2.99258,3.10679 0,1.70356 1.40279,3.00602 2.99258,3.00602 1.68332,0 3.17965,-1.30246 3.17965,-3.00602 0,-1.80377 -1.49633,-3.10679 -3.17965,-3.10679 z m -52.97454,5.2e-4 c -1.5781,0 -2.99204,1.14463 -3.1626,2.77399 -0.0114,0.10862 -0.017,0.21954 -0.017,0.33228 0,1.70356 1.49634,3.00602 3.17965,3.00602 1.58979,0 2.99258,-1.30246 2.99258,-3.00602 0,-1.80377 -1.40279,-3.10627 -2.99258,-3.10627 z m 0,1.00201 c 1.12221,0 1.87017,0.90179 1.87017,2.20451 0,0.90188 -0.74796,2.00401 -1.87017,2.00401 -1.21573,0 -2.05724,-1.10213 -2.05724,-2.00401 0,-1.05846 0.55552,-1.85207 1.41594,-2.11253 0.0662,-0.02 0.13392,-0.037 0.2036,-0.0506 0.13936,-0.0272 0.28573,-0.0413 0.4377,-0.0413 z m 52.97454,0 c 1.21573,0 2.05724,0.90179 2.05724,2.20451 0,0.90188 -0.84151,2.00401 -2.05724,2.00401 -1.1222,0 -1.87017,-1.10213 -1.87017,-2.00401 0,-1.30272 0.74797,-2.20451 1.87017,-2.20451 z m -52.88101,0.50074 c -0.5611,0 -1.30948,0.50113 -1.30948,1.40302 0,0.70145 0.74838,1.20251 1.30948,1.20251 1.02869,0 1.49604,-0.50106 1.49604,-1.20251 0,-0.90189 -0.46735,-1.40302 -1.49604,-1.40302 z m 52.78748,0 c -1.02869,0 -1.49655,0.50113 -1.49655,1.40302 0,0.70145 0.46786,1.20251 1.49655,1.20251 0.5611,0 1.30896,-0.50106 1.30896,-1.20251 0,-0.90189 -0.74786,-1.40302 -1.30896,-1.40302 z m -30.29634,4.23798 c 0.44256,0.0133 0.86449,0.15866 1.26194,0.47181 2.52492,2.00418 -5.8912,7.81658 -11.96982,6.61407 3.51859,-0.78916 7.60994,-7.17908 10.70788,-7.08588 z m 7.80521,0 c 3.09794,-0.0932 7.18929,6.29672 10.70787,7.08588 -0.37991,0.0752 -0.76882,0.12273 -1.16375,0.14572 -5.92406,0.34493 -13.17369,-4.88087 -10.80658,-6.75979 0.29809,-0.23486 0.61016,-0.37549 0.93431,-0.43667 0.10805,-0.0204 0.2175,-0.0318 0.32815,-0.0351 z m -19.9223,7.86774 c 0.31932,1.7e-4 0.69027,0.12633 1.22215,0.5209 0.18703,0.60126 0.4675,1.90398 -0.46768,2.40502 -1.30923,0.60126 -3.08591,-1.40301 -1.9637,-2.60552 0.47343,-0.11274 0.79868,-0.32062 1.20923,-0.3204 z m 32.03939,0 c 0.41055,-2.2e-4 0.73579,0.20766 1.20922,0.3204 0.98194,1.05219 -0.25546,2.71832 -1.45727,2.71559 -0.17169,-3.9e-4 -0.34278,-0.0349 -0.50643,-0.11007 -0.93518,-0.50104 -0.65471,-1.80376 -0.46767,-2.40502 0.46538,-0.34525 0.80748,-0.48504 1.09967,-0.5147 0.0417,-0.004 0.0826,-0.006 0.12248,-0.006 z M 72.401614,188.91526 c 4.09649,6.14544 -1.787616,12.05144 -1.638659,17.6382 0.223447,6.46468 2.457777,11.6525 2.979146,17.23926 0.744809,9.09843 -9.756665,18.51614 -13.03383,27.53476 -1.86203,0.7981 -2.60719,2.1552 -3.054077,2.9533 -0.595844,-1.35678 -0.744406,-2.71399 -0.446484,-3.99097 -3.1282,0.31925 -8.192847,7.82179 -4.096391,12.84986 -0.446885,0.0599 -0.865607,0.0247 -1.243852,-0.0925 -0.09456,-0.0293 -0.186682,-0.0634 -0.275952,-0.10283 -0.981975,-0.43341 -1.631896,-1.4658 -1.683101,-2.83756 -3.873017,5.42714 2.308837,12.3704 6.405293,9.81646 -4.543334,0.55868 -8.044127,-3.51161 -6.703466,-7.58197 0.893773,1.03755 2.607267,1.75608 4.692737,1.35703 -3.798527,-5.90601 -0.894023,-9.65725 2.010729,-12.37082 -0.148956,1.11735 0.297757,2.63378 1.340487,4.30981 1.042739,-1.75584 1.713083,-3.27198 3.426148,-3.51141 2.755795,-0.0798 3.947496,0.95751 4.021976,2.95279 -4.617825,0.23943 -5.436943,4.38977 -1.340486,8.22068 4.617825,3.67131 9.012323,13.32839 -1.861902,12.61009 1.787547,0.31925 2.830092,0.71818 5.958292,-0.31936 0.297931,0.71829 1.191942,2.15508 2.607076,2.63394 -8.714282,9.4975 -19.216135,6.22508 -25.249104,0.95757 -3.277165,2.71357 -7.597004,5.34711 -16.162321,2.23449 0.893773,-0.87792 1.713059,-1.51643 2.308903,-2.15491 -1.191696,-0.87792 -2.309095,-2.63383 -4.394564,-3.75119 1.936504,-1.03754 3.798683,-0.63821 5.586222,-0.63821 -0.07449,-1.67603 -0.07476,-3.033 0.297656,-3.35225 1.266179,2.47415 6.480197,3.6714 9.384957,3.7512 -0.330509,-0.81308 -0.619706,-1.61444 -0.869714,-2.40399 -7.750249,-24.47611 22.159414,-37.80821 26.416475,-49.79231 0.819288,-2.2347 1.638432,-5.98598 0.744658,-8.93899 -1.787548,-3.7511 -5.064428,-1.03729 -4.915462,2.79363 0,3.66631 -2.356649,5.29832 -4.553728,5.48804 -0.146472,0.0126 -0.292359,0.0191 -0.436666,0.0191 2.755796,-4.94828 -3.649709,-17.6382 6.479708,-17.6382 -6.405365,-6.46469 8.118588,-11.25373 7.299296,-15.88276 z m 9.919808,0.4899 c -1.028689,5.81213 17.207291,11.82446 9.164816,19.94142 12.320882,0 5.158405,14.95305 7.844482,21.53615 0.08665,0.21236 0.183326,0.41614 0.291455,0.6103 -2.899029,0 -6.265767,-2.00406 -6.265767,-6.91431 0.187038,-4.81004 -3.927817,-8.21762 -6.172233,-3.5078 -0.280553,0.92694 -0.426525,1.91653 -0.471806,2.92334 -0.04528,1.00681 0.01005,2.03084 0.132808,3.02669 0.245526,1.9917 0.759997,3.87065 1.274341,5.27358 5.517523,15.53243 45.355532,32.86888 32.076082,65.53708 3.64717,-0.10021 10.19346,-1.60329 11.78326,-4.70979 0.46763,0.40085 0.46763,2.10413 0.37413,4.20853 2.24441,0 4.5826,-0.50121 7.01405,0.8015 -2.61849,1.40294 -4.02174,3.60749 -5.51801,4.70979 0.74813,0.80167 1.77684,1.60348 2.89904,2.70578 -10.75447,3.90816 -16.17806,0.6016 -20.29281,-2.80551 -7.5749,6.61381 -20.760946,10.72239 -31.702462,-1.20251 1.776822,-0.60126 2.899109,-2.40542 3.273186,-3.30729 3.927718,1.30272 5.23678,0.80185 7.481197,0.40101 -13.653507,0.90189 -8.135911,-11.22352 -2.337842,-15.83315 5.143446,-4.81004 4.114968,-10.02071 -1.683101,-10.32133 0.09352,-2.50524 1.589687,-3.80801 5.049821,-3.70778 1.613172,0.22547 2.489835,1.35278 3.379638,2.83238 0.296603,0.4932 0.594603,1.0255 0.921903,1.57665 1.30924,-2.10439 1.87065,-4.00811 1.68362,-5.41104 3.64716,3.40711 7.29428,8.1169 2.52491,15.53238 2.61849,0.50105 4.76943,-0.40104 5.89163,-1.70377 1.57812,4.79126 -2.18626,9.58224 -7.36337,9.58443 -0.34514,1.5e-4 -0.69663,-0.0208 -1.05317,-0.0646 5.14345,3.2067 12.90531,-5.51163 8.04241,-12.32586 -0.0935,2.50524 -1.77706,4.10867 -4.02146,3.80804 5.14344,-6.31318 -1.21564,-15.73254 -5.14336,-16.13338 0.37407,1.60335 0.18693,3.30699 -0.56121,5.01054 -0.5611,-1.00209 -1.495934,-2.70569 -3.83387,-3.70778 -4.114757,-11.32364 -17.301096,-23.14872 -16.365926,-34.57257 0.654623,-7.01465 3.4603,-13.52824 3.740857,-21.64519 0.187028,-7.01465 -7.200726,-14.42982 -2.057239,-22.14593 z m 6.56239,31.02446 h 5.17e-4 c -0.03288,0.0344 -0.06544,0.0711 -0.09715,0.11007 0.03171,-0.039 0.06375,-0.0756 0.09663,-0.11007 z M 50.87683,230.5768 c 4.617817,-0.0798 4.096373,6.8638 0.670243,9.33794 0.52137,-3.43187 0.223531,-6.46474 -0.670243,-9.33794 z m 4.127913,2.13786 c 1.223867,-0.021 1.690733,0.90473 1.83038,2.25154 -0.446887,0.27934 -0.782057,0.53877 -1.107943,0.80822 -0.325886,0.26945 -0.642487,0.54892 -1.052132,0.86816 0.446891,-1.19716 0.595783,-1.99541 0.07441,-3.91087 0.08845,-0.01 0.173691,-0.016 0.255281,-0.017 z m 54.342937,8.99945 c -0.84166,2.70565 -1.26243,5.52437 -1.14412,8.58242 0.0394,1.01935 0.13866,2.0652 0.30231,3.14244 -4.30179,-3.10648 -4.95625,-11.82507 0.84181,-11.72486 z m -5.18315,2.68459 c 0.10245,0.002 0.20935,0.009 0.3204,0.0212 -0.40917,1.50313 -0.48928,2.45808 -0.35502,3.33003 0.0806,0.52317 0.23815,1.01659 0.44855,1.58026 -1.02869,-0.80167 -1.58977,-1.4028 -2.71198,-2.10426 0.13151,-1.26828 0.49384,-2.23936 1.31517,-2.63447 0.13689,-0.0659 0.28667,-0.11574 0.4501,-0.14831 0.16343,-0.0326 0.3407,-0.0477 0.53278,-0.0444 z m -48.521066,28.63753 c -1.25687,0 -2.382382,0.9115 -2.518192,2.20917 -0.0091,0.0865 -0.01395,0.17479 -0.01395,0.26458 0,1.35678 1.191484,2.39468 2.532145,2.39468 1.266178,0 2.383317,-1.0379 2.383317,-2.39468 0,-1.4366 -1.117139,-2.47375 -2.383317,-2.47375 z m 0,0.79788 c 0.893774,0 1.489832,0.71842 1.489832,1.75597 0,0.71829 -0.596058,1.59628 -1.489832,1.59628 -0.968256,0 -1.63866,-0.87799 -1.63866,-1.59628 0,-1.03755 0.670404,-1.75597 1.63866,-1.75597 z m 0.07441,0.39894 c -0.446887,0 -1.04283,0.39946 -1.04283,1.11777 0,0.55866 0.595943,0.95756 1.04283,0.95756 0.819291,0 1.191659,-0.3989 1.191659,-0.95756 0,-0.71831 -0.372368,-1.11777 -1.191659,-1.11777 z m 17.913119,3.37551 c 0.352476,0.0106 0.688562,0.12628 1.005106,0.37569 2.010954,1.59621 -4.69252,6.22511 -9.533785,5.26738 2.802348,-0.62852 6.061348,-5.71727 8.528679,-5.64307 z m -9.650574,6.26628 c 0.254318,1.4e-4 0.549459,0.10019 0.973067,0.41445 0.148965,0.47886 0.372747,1.51659 -0.37207,1.91564 -1.042731,0.47887 -2.45802,-1.11759 -1.564246,-2.07532 0.377063,-0.0898 0.636268,-0.25494 0.963249,-0.25477 z m 39.382101,11.15074 c -1.5898,0 -2.99259,1.3025 -2.99259,3.10627 0,1.70356 1.40279,3.00654 2.99259,3.00654 1.68331,0 3.17965,-1.30298 3.17965,-3.00654 0,-1.80377 -1.49634,-3.10627 -3.17965,-3.10627 z m 0,1.00201 c 1.21572,0 2.05775,0.90179 2.05775,2.20452 0,0.90187 -0.84203,2.00452 -2.05775,2.00452 -1.12221,0 -1.87017,-1.10265 -1.87017,-2.00452 0,-1.05847 0.49396,-1.85208 1.28105,-2.11254 0.0606,-0.02 0.12263,-0.037 0.18656,-0.0506 0.12785,-0.0272 0.26228,-0.0413 0.40256,-0.0413 z m -0.0935,0.50126 c -1.02869,0 -1.49603,0.50113 -1.49603,1.40302 0,0.70145 0.46734,1.20251 1.49603,1.20251 0.56111,0 1.30948,-0.50106 1.30948,-1.20251 0,-0.90189 -0.74837,-1.40302 -1.30948,-1.40302 z m -22.491137,4.23747 c 0.09681,-0.003 0.194818,4.3e-4 0.293522,0.01 0.197409,0.0188 0.39814,0.0615 0.602548,0.12505 2.963916,0.92093 6.623604,6.23583 9.812321,6.951 -6.078617,1.20251 -14.495251,-4.60937 -11.970329,-6.61355 0.397448,-0.31315 0.819375,-0.45902 1.261938,-0.47232 z m 12.11709,7.86774 c 0.410552,-2.2e-4 0.736311,0.20765 1.209745,0.32039 1.122209,1.20251 -0.654985,3.20678 -1.964221,2.60552 -0.93518,-0.50104 -0.65471,-1.80376 -0.467671,-2.40502 0.531876,-0.39457 0.902829,-0.52072 1.222147,-0.52089 z" /><text
       xml:space="preserve"
       style="font-style:normal;font-variant:normal;font-weight:bold;font-stretch:normal;font-size:112.889px;line-height:1.25;font-family:Roboto;-inkscape-font-specification:'Roboto, Bold';font-variant-ligatures:normal;font-variant-caps:normal;font-variant-numeric:normal;font-variant-east-asian:normal;fill:#ffffff;stroke-width:0.264583"
       x="368.83426"
       y="90.101494"
       id="text1"><tspan
         style="font-style:normal;font-variant:normal;font-weight:bold;font-stretch:normal;font-size:112.889px;font-family:Roboto;-inkscape-font-specification:'Roboto, Bold';font-variant-ligatures:normal;font-variant-caps:normal;font-variant-numeric:normal;font-variant-east-asian:normal;fill:#ffffff;stroke-width:0.264583"
         x="368.83426"
         y="90.101494"
         id="tspan4">Danetiska Respublica</tspan></text><text
       xml:space="preserve"
       style="font-style:normal;font-variant:normal;font-weight:normal;font-stretch:normal;font-size:112.889px;line-height:1.05;font-family:Roboto;-inkscape-font-specification:'Roboto, Normal';font-variant-ligatures:normal;font-variant-caps:normal;font-variant-numeric:normal;font-variant-east-asian:normal;fill:#ffffff;stroke-width:0.264583"
       x="366.68454"
       y="210.04637"
       id="text5"><tspan
         id="tspan5"
         style="font-style:normal;font-variant:normal;font-weight:normal;font-stretch:normal;font-size:112.889px;line-height:1.05;font-family:Roboto;-inkscape-font-specification:'Roboto, Normal';font-variant-ligatures:normal;font-variant-caps:normal;font-variant-numeric:normal;font-variant-east-asian:normal;fill:#ffffff;stroke-width:0.264583"
         x="366.68454"
         y="210.04637">Ministeriom Culturas,</tspan><tspan
         style="font-style:normal;font-variant:normal;font-weight:normal;font-stretch:normal;font-size:112.889px;line-height:1.05;font-family:Roboto;-inkscape-font-specification:'Roboto, Normal';font-variant-ligatures:normal;font-variant-caps:normal;font-variant-numeric:normal;font-variant-east-asian:normal;fill:#ffffff;stroke-width:0.264583"
         x="366.68454"
         y="328.5798"
         id="tspan6">Educatziones, i Recercas</tspan></text></g></svg>
