<?xml version="1.0" encoding="UTF-8"?>
<!-- Created with Grafika (https://www.grafika.cc/) -->
<svg version="1.0" xmlns="http://www.w3.org/2000/svg" xmlns:svg="http://www.w3.org/2000/svg" width="1080" height="1080" viewBox="-540.000000 -540.000000 1080.000000 1080.000000" preserveAspectRatio="xMinYMin meet">
	<rect x="-540.0" y="-540.0" width="1080" height="1080" fill="#FFFFFF" />
	<path d="M-430.4306945800781,265.6550598144531 L-430.8807067871094,265.6550598144531 Q-431.3306579589844,265.6550598144531 -435.04095458984375,267.5945739746094 Q-438.7512512207031,269.5340881347656 -441.22467041015625,272.8789367675781 Q-443.6981201171875,276.2237854003906 -445.35638427734375,280.3275146484375 Q-447.0146789550781,284.4312438964844 -447.4084167480469,289.88433837890625 Q-447.8021545410156,295.3374328613281 -446.0310974121094,299.9750671386719 Q-444.2600402832031,304.6126708984375 -440.8027038574219,307.170654296875 Q-437.34539794921875,309.7286071777344 -431.6396179199219,310.1220703125 Q-425.933837890625,310.5155334472656 -419.9185485839844,308.77301025390625 Q-413.9032897949219,307.0304870605469 -408.5064392089844,303.4886474609375 Q-403.109619140625,299.9468078613281 -399.45556640625,295.2528991699219 Q-395.801513671875,290.5589904785156 -394.45245361328125,286.0615234375 Q-393.1033935546875,281.56402587890625 -394.45245361328125,277.4603271484375 Q-395.801513671875,273.3565979003906 -399.5400390625,269.3650817871094 Q-403.2785949707031,265.3735656738281 -408.6752014160156,263.6590270996094 Q-414.0717468261719,261.9444885253906 -419.8060302734375,262.11322021484375 Q-425.54034423828125,262.2819519042969 -429.925048828125,264.2777404785156 Q-434.30975341796875,266.2735290527344 -437.6545715332031,269.7588195800781 L-441.16845703125,274.2560119628906" fill-rule="evenodd" style="fill:none;stroke:#100C07;stroke-linecap:round;stroke-linejoin:round;stroke-width:8.692770957946777;" />
	<path d="M-426.7206726074219,310.5155334472656 L-426.7486572265625,310.5155334472656 Q-426.77667236328125,310.5155334472656 -426.01776123046875,315.7436218261719 L-425.2588806152344,320.9717102050781 L-424.1910400390625,332.1588439941406 L-423.8535461425781,344.8078308105469 L-423.2351379394531,357.96209716796875 L-422.1672668457031,367.8564758300781 L-421.829833984375,373.22503662109375 Q-421.4923400878906,378.5935974121094 -421.8577880859375,383.5690002441406 L-423.1225891113281,391.4110412597656" fill-rule="evenodd" style="fill:none;stroke:#100C07;stroke-linecap:round;stroke-linejoin:round;stroke-width:8.692770957946777;" />
	<path d="M-426.6647033691406,395.9649963378906 L-426.7206726074219,395.9649963378906 Q-426.77667236328125,395.9649963378906 -430.2902526855469,399.7032470703125 Q-433.8038330078125,403.4415588378906 -437.0644226074219,407.7702941894531 L-444.11956787109375,417.13037109375 L-447.9140930175781,422.1617736816406 L-451.7088623046875,427.44610595703125 Q-455.503662109375,432.73046875 -457.9490966796875,437.2276611328125 L-463.0926818847656,447.2906494140625" fill-rule="evenodd" style="fill:none;stroke:#100C07;stroke-linecap:round;stroke-linejoin:round;stroke-width:8.692770957946777;" />
	<path d="M-424.9219665527344,393.49127197265625 L-424.97821044921875,393.49127197265625 Q-425.034423828125,393.49127197265625 -421.8580627441406,398.3539123535156 L-418.68170166015625,403.2165832519531 L-413.11639404296875,411.4240417480469 L-407.213623046875,419.8565368652344 L-404.4589538574219,423.70758056640625 Q-401.70428466796875,427.5586242675781 -398.3874206542969,433.01141357421875 Q-395.0705871582031,438.4642639160156 -393.49652099609375,442.3432922363281 L-391.9224548339844,445.9973449707031" fill-rule="evenodd" style="fill:none;stroke:#100C07;stroke-linecap:round;stroke-linejoin:round;stroke-width:8.692770957946777;" />
	<path d="M-427.1141662597656,334.8009948730469 L-427.1983642578125,334.7447509765625 Q-427.2826232910156,334.6884765625 -431.72381591796875,338.4550476074219 Q-436.1650390625,342.2215881347656 -441.30889892578125,347.6466979980469 L-446.4527587890625,353.0718078613281 L-451.399658203125,358.21539306640625 Q-456.34649658203125,363.3589782714844 -459.6353759765625,367.3222351074219 L-464.1046142578125,374.0401916503906" fill-rule="evenodd" style="fill:none;stroke:#100C07;stroke-linecap:round;stroke-linejoin:round;stroke-width:8.692770957946777;" />
	<path d="M-432.23004150390625,333.901611328125 L-432.23004150390625,333.8736572265625 Q-432.23004150390625,333.84564208984375 -425.8213195800781,334.80126953125 Q-419.4126281738281,335.7569274902344 -415.4773254394531,337.8931579589844 Q-411.54205322265625,340.0293884277344 -407.4665832519531,342.58734130859375 Q-403.39111328125,345.1452941894531 -400.3551940917969,347.84344482421875 Q-397.3193359375,350.5415954589844 -393.9744567871094,355.2357482910156 L-385.85125732421875,364.3708801269531" fill-rule="evenodd" style="fill:none;stroke:#100C07;stroke-linecap:round;stroke-linejoin:round;stroke-width:8.692770957946777;" />
	<path d="M327.21575927734375,-325.5083923339844 L327.21575927734375,-325.4786376953125 Q327.21575927734375,-325.44891357421875 328.6726989746094,-322.8918762207031 Q330.129638671875,-320.3348388671875 330.99188232421875,-318.1941223144531 L331.8541259765625,-316.0534362792969 L333.5191650390625,-311.4150390625 L335.03558349609375,-306.68756103515625 L336.31402587890625,-302.4061584472656 L337.97906494140625,-296.39996337890625 L338.6034851074219,-294.2442932128906 L339.6440734863281,-291.8509521484375" fill-rule="evenodd" style="fill:none;stroke:#100C07;stroke-linecap:round;stroke-linejoin:round;stroke-width:8.692770957946777;" />
	<path d="M325.58062744140625,-327.322021484375 L325.8481750488281,-327.39630126953125 Q326.11578369140625,-327.4706115722656 329.4458312988281,-329.1058654785156 Q332.77587890625,-330.74114990234375 335.12481689453125,-332.0197448730469 Q337.4737548828125,-333.29833984375 340.1644287109375,-334.6512145996094 L342.8551330566406,-336.00408935546875 L345.3973693847656,-337.2677307128906 Q347.9395751953125,-338.5313415527344 350.2883605957031,-339.5570068359375 Q352.6371765136719,-340.58270263671875 354.7333068847656,-341.3558654785156 Q356.8294677734375,-342.1290283203125 359.5202941894531,-343.0208740234375 Q362.21112060546875,-343.9127502441406 363.87615966796875,-341.14764404296875 Q365.5411682128906,-338.38250732421875 366.0318298339844,-336.1080017089844 L366.5224304199219,-333.83349609375 L367.38470458984375,-329.0761413574219 L368.54443359375,-323.90289306640625 L369.7633361816406,-319.1753845214844 L371.07171630859375,-314.8045959472656 L373.27191162109375,-308.05511474609375 L374.044921875,-305.4832763671875 Q374.81793212890625,-302.91143798828125 375.769287109375,-301.0085754394531 L376.83966064453125,-298.9571228027344" fill-rule="evenodd" style="fill:none;stroke:#100C07;stroke-linecap:round;stroke-linejoin:round;stroke-width:8.692770957946777;" />
	<path d="M337.4142761230469,-291.018310546875 L337.4142761230469,-291.0332336425781 Q337.4142761230469,-291.0481872558594 339.986083984375,-291.74688720703125 Q342.55792236328125,-292.44561767578125 345.63519287109375,-293.040283203125 Q348.7124328613281,-293.63494873046875 351.849365234375,-294.0809020996094 Q354.98626708984375,-294.5268249511719 357.97442626953125,-294.98773193359375 Q360.96258544921875,-295.4486083984375 363.7722473144531,-296.0135192871094 Q366.5819091796875,-296.57843017578125 368.8564147949219,-297.23260498046875 L372.82586669921875,-298.5406494140625" fill-rule="evenodd" style="fill:none;stroke:#100C07;stroke-linecap:round;stroke-linejoin:round;stroke-width:8.692770957946777;" />
	<path d="M371.1607971191406,-325.44891357421875 L371.33917236328125,-325.4786376953125 Q371.5174865722656,-325.5083923339844 373.6286315917969,-326.3556823730469 Q375.7397155761719,-327.2030029296875 378.87646484375,-327.6788330078125 L386.7702941894531,-328.5113525390625" fill-rule="evenodd" style="fill:none;stroke:#100C07;stroke-linecap:round;stroke-linejoin:round;stroke-width:8.692770957946777;" />
	<path d="M383.55926513671875,-345.1615905761719 L383.55926513671875,-345.1318359375 Q383.55926513671875,-345.10211181640625 385.4918518066406,-342.15863037109375 Q387.4244689941406,-339.21514892578125 388.7475891113281,-336.65814208984375 Q390.07073974609375,-334.1011047363281 391.2748718261719,-331.1724548339844 L392.47900390625,-328.2437438964844 L394.32257080078125,-322.6241455078125 L395.0955505371094,-320.14154052734375 Q395.86859130859375,-317.6589660644531 396.4632568359375,-314.31396484375 L398.0391845703125,-307.99591064453125" fill-rule="evenodd" style="fill:none;stroke:#100C07;stroke-linecap:round;stroke-linejoin:round;stroke-width:8.692770957946777;" />
	<path d="M396.40374755859375,-310.6717834472656 L396.3889465332031,-310.59747314453125 Q396.3741455078125,-310.523193359375 398.52978515625,-310.4784851074219 Q400.6854248046875,-310.43377685546875 405.2344665527344,-311.9947509765625 Q409.783447265625,-313.5557556152344 412.7418518066406,-314.64105224609375 Q415.70025634765625,-315.7263488769531 419.0155029296875,-316.989990234375 Q422.33074951171875,-318.2536315917969 426.0919189453125,-319.755126953125 Q429.8531188964844,-321.256591796875 433.7926330566406,-322.72833251953125 L437.7321472167969,-324.2000732421875 L441.6123046875,-325.5975036621094 Q445.4924621582031,-326.99493408203125 449.0753173828125,-328.1545104980469 Q452.65814208984375,-329.3141174316406 455.8544006347656,-330.1614074707031 Q459.0506591796875,-331.00872802734375 461.9495849609375,-331.6778564453125 Q464.8484802246094,-332.3469543457031 467.7176208496094,-332.9414978027344 Q470.5868225097656,-333.5360107421875 473.2033386230469,-334.0415954589844 Q475.81988525390625,-334.54718017578125 479.38775634765625,-335.4687805175781 Q482.95562744140625,-336.390380859375 485.2599182128906,-337.4311218261719 L488.6643981933594,-339.21514892578125" fill-rule="evenodd" style="fill:none;stroke:#100C07;stroke-linecap:round;stroke-linejoin:round;stroke-width:8.692770957946777;" />
	<path d="M378.32647705078125,-348.10504150390625 L378.32647705078125,-348.1347961425781 Q378.32647705078125,-348.16455078125 381.64154052734375,-348.8782043457031 Q384.9566650390625,-349.5918884277344 388.10833740234375,-350.42437744140625 L391.2600402832031,-351.25689697265625 L397.9796447753906,-353.0705261230469 L401.7110900878906,-354.0517578125 Q405.4425048828125,-355.03302001953125 409.4415588378906,-356.3262634277344 Q413.4405517578125,-357.6195068359375 417.7369079589844,-358.9278564453125 Q422.03326416015625,-360.2361755371094 426.32977294921875,-361.3808288574219 Q430.6262512207031,-362.5254821777344 434.50628662109375,-363.41748046875 L438.3863220214844,-364.30950927734375 L441.478515625,-365.02301025390625 Q444.57073974609375,-365.7365417480469 446.9344787597656,-366.25689697265625 Q449.2982177734375,-366.77728271484375 453.05938720703125,-367.5800476074219 Q456.820556640625,-368.3828125 459.68988037109375,-369.0815124511719 L462.5592041015625,-369.7802429199219 L464.7891540527344,-370.3303527832031 Q467.01910400390625,-370.8804931640625 469.471923828125,-370.9398498535156 Q471.9247741699219,-370.9991760253906 473.9911804199219,-371.5195617675781 Q476.0576171875,-372.0399475097656 478.2875061035156,-372.35223388671875 Q480.5174560546875,-372.6645202636719 482.6285705566406,-373.0509338378906 Q484.7396545410156,-373.4373474121094 484.6206970214844,-370.8505859375 L484.5016784667969,-368.2638244628906 L484.2490539550781,-365.67718505859375 Q483.9963684082031,-363.090576171875 484.2937316894531,-359.6117858886719 Q484.591064453125,-356.13299560546875 486.36016845703125,-352.906982421875 Q488.12921142578125,-349.68096923828125 490.2698974609375,-347.34698486328125 L492.41058349609375,-345.01300048828125 L493.94183349609375,-343.2884826660156 L495.47308349609375,-341.41534423828125" fill-rule="evenodd" style="fill:none;stroke:#100C07;stroke-linecap:round;stroke-linejoin:round;stroke-width:8.692770957946777;" />
	<path d="M310.357421875,-306.5685729980469 L310.3276672363281,-306.5685729980469 L310.2979431152344,-306.5685729980469 L312.4684143066406,-306.6131286621094 Q314.63885498046875,-306.65765380859375 318.4892578125,-307.26727294921875 Q322.33966064453125,-307.87689208984375 325.4913635253906,-308.4120788574219 L331.0513610839844,-309.6905517578125" fill-rule="evenodd" style="fill:none;stroke:#100C07;stroke-linecap:round;stroke-linejoin:round;stroke-width:8.692770957946777;" />
	<path d="M298.8807678222656,-320.8105163574219 L298.8807678222656,-320.5726623535156 Q298.8807678222656,-320.3348388671875 300.12945556640625,-316.6777038574219 L301.3781433105469,-313.02056884765625 L303.3107604980469,-305.349609375 L305.689453125,-298.3029479980469 L306.4029541015625,-295.6864318847656 Q307.1164855957031,-293.06988525390625 307.2652282714844,-290.4385681152344 Q307.4139709472656,-287.8072509765625 306.03131103515625,-286.03814697265625 Q304.648681640625,-284.26910400390625 302.4782409667969,-283.70416259765625 Q300.30780029296875,-283.1392517089844 297.6912536621094,-282.2174987792969 Q295.0747375488281,-281.2957458496094 292.47314453125,-280.552490234375 Q289.87158203125,-279.8092041015625 287.6861877441406,-279.36328125 Q285.50079345703125,-278.9173583984375 283.25604248046875,-278.51580810546875 Q281.01129150390625,-278.1142883300781 278.439453125,-277.4007568359375 Q275.86761474609375,-276.687255859375 273.1767578125,-275.7507019042969 Q270.4859619140625,-274.81414794921875 267.86944580078125,-274.02618408203125 Q265.2529296875,-273.23822021484375 262.5918273925781,-272.2571105957031 Q259.9307556152344,-271.2760009765625 257.4777526855469,-270.1461486816406 Q255.02476501464844,-269.01629638671875 252.95838928222656,-268.2135314941406 L250.8919677734375,-267.4107666015625 L248.2755889892578,-266.42950439453125 Q245.65919494628906,-265.4482727050781 243.59280395507812,-264.5562438964844 Q241.5264129638672,-263.66424560546875 239.14772033691406,-262.4750671386719 L236.76904296875,-261.2858581542969 L234.6580810546875,-260.2153625488281 Q232.54710388183594,-259.1448669433594 230.43600463867188,-257.970458984375 Q228.32492065429688,-256.79608154296875 226.12472534179688,-255.90406799316406 L223.9245147705078,-255.0120391845703 L221.84317016601562,-254.17953491210938 Q219.76181030273438,-253.34701538085938 218.66172790527344,-255.9190216064453 Q217.56161499023438,-258.4909973144531 217.1899871826172,-260.9587707519531 Q216.81834411621094,-263.42657470703125 216.1641845703125,-265.522705078125 L215.510009765625,-267.6188659667969 L213.9044952392578,-273.1787109375 L212.86402893066406,-278.53076171875 L212.25440979003906,-281.2215881347656 Q211.64479064941406,-283.91241455078125 210.2028045654297,-285.9341125488281 L208.76083374023438,-287.9558410644531 L207.6012420654297,-289.7843933105469 Q206.44163513183594,-291.61297607421875 205.60911560058594,-293.6050720214844 Q204.776611328125,-295.59716796875 207.46742248535156,-296.3108215332031 Q210.15826416015625,-297.0245056152344 213.16122436523438,-297.6934509277344 Q216.1641845703125,-298.3624572753906 219.71726989746094,-299.6408996582031 Q223.27035522460938,-300.9193420410156 227.5369415283203,-302.24249267578125 Q231.8035430908203,-303.56561279296875 234.0484619140625,-304.3088684082031 Q236.29335021972656,-305.0521240234375 238.8651885986328,-305.9739074707031 Q241.43701171875,-306.8956604003906 244.06834411621094,-307.8769226074219 Q246.69967651367188,-308.858154296875 249.37570190429688,-309.8987731933594 Q252.0517120361328,-310.93939208984375 254.4600067138672,-311.8313903808594 Q256.8682861328125,-312.723388671875 259.0684814453125,-313.4814453125 Q261.2687072753906,-314.239501953125 263.30535888671875,-314.8639221191406 Q265.3420104980469,-315.48834228515625 267.4530944824219,-316.1127624511719 Q269.564208984375,-316.7371826171875 273.59295654296875,-318.0008239746094 Q277.6217346191406,-319.26446533203125 280.49090576171875,-319.8888854980469 Q283.36004638671875,-320.5133056640625 285.7982482910156,-320.8106384277344 Q288.2364501953125,-321.1080017089844 290.98663330078125,-321.5539245605469 Q293.73681640625,-321.9998779296875 296.20458984375,-322.4309997558594 L300.48626708984375,-323.24871826171875" fill-rule="evenodd" style="fill:none;stroke:#100C07;stroke-linecap:round;stroke-linejoin:round;stroke-width:8.692770957946777;" />
	<path d="M218.12669372558594,-279.09552001953125 L218.31997680664062,-279.1104736328125 Q218.5132598876953,-279.12542724609375 221.79861450195312,-280.3295593261719 Q225.08396911621094,-281.53369140625 227.25457763671875,-282.0986328125 Q229.4251708984375,-282.66357421875 231.64016723632812,-283.1542053222656 Q233.85516357421875,-283.64483642578125 236.337890625,-284.2543029785156 Q238.82064819335938,-284.86376953125 241.49652099609375,-285.68133544921875 Q244.17239379882812,-286.4989013671875 246.98219299316406,-287.420654296875 Q249.79200744628906,-288.3424072265625 252.4678955078125,-289.2789611816406 Q255.14376831054688,-290.21551513671875 257.76031494140625,-291.0332336425781 Q260.3768310546875,-291.8509521484375 262.90411376953125,-292.5942077636719 Q265.431396484375,-293.33746337890625 267.9734802246094,-293.99163818359375 L270.51556396484375,-294.64581298828125 L275.4215393066406,-295.8946533203125 L277.7555236816406,-296.504150390625 Q280.08953857421875,-297.1136169433594 283.73187255859375,-298.19891357421875 Q287.37420654296875,-299.2842102050781 289.88653564453125,-300.2950439453125 Q292.39886474609375,-301.305908203125 294.82208251953125,-302.0938720703125 L301.0510559082031,-303.506103515625" fill-rule="evenodd" style="fill:none;stroke:#100C07;stroke-linecap:round;stroke-linejoin:round;stroke-width:8.692770957946777;" />
	<path d="M229.7522430419922,-298.39202880859375 L229.7522430419922,-298.2434387207031 Q229.7522430419922,-298.0948181152344 231.2090301513672,-295.09173583984375 Q232.66583251953125,-292.088623046875 233.51329040527344,-289.85870361328125 L234.36074829101562,-287.6287536621094 L235.69866943359375,-283.0501708984375 L237.03662109375,-278.59027099609375 L238.12191772460938,-275.587158203125 L240.1585693359375,-270.68133544921875" fill-rule="evenodd" style="fill:none;stroke:#100C07;stroke-linecap:round;stroke-linejoin:round;stroke-width:8.692770957946777;" />
	<path d="M249.22695922851562,-308.32269287109375 L249.2864532470703,-308.1295471191406 Q249.345947265625,-307.9364013671875 250.69882202148438,-305.3941650390625 Q252.0517120361328,-302.8519287109375 252.9437255859375,-300.5476989746094 L253.83572387695312,-298.24346923828125 L255.53036499023438,-293.9321594238281 L257.01690673828125,-289.68035888671875 L259.15789794921875,-282.45550537109375 L259.7376403808594,-280.1363220214844 L261.2687072753906,-276.0330810546875" fill-rule="evenodd" style="fill:none;stroke:#100C07;stroke-linecap:round;stroke-linejoin:round;stroke-width:8.692770957946777;" />
	<path d="M270.5750732421875,-314.7451171875 L270.5750732421875,-314.6260986328125 Q270.5750732421875,-314.5071105957031 272.3738708496094,-311.9205017089844 Q274.1726989746094,-309.3338623046875 275.2877502441406,-307.1484375 Q276.4028015136719,-304.9630432128906 277.4879455566406,-302.2276611328125 Q278.5730895996094,-299.4923095703125 279.3313293457031,-296.5487060546875 L280.08953857421875,-293.6050720214844 L281.3084716796875,-288.31280517578125 L282.2004699707031,-285.1165466308594 L284.5494384765625,-280.552490234375" fill-rule="evenodd" style="fill:none;stroke:#100C07;stroke-linecap:round;stroke-linejoin:round;stroke-width:8.692770957946777;" />
	<path d="M394.3820495605469,-332.04949951171875 L394.4117736816406,-332.04949951171875 L394.4415283203125,-332.04949951171875 L396.7309875488281,-332.9414978027344 Q399.02044677734375,-333.83349609375 401.9193420410156,-334.7105407714844 Q404.8182678222656,-335.587646484375 407.6576843261719,-336.40533447265625 Q410.4971008300781,-337.2230529785156 413.36627197265625,-338.24884033203125 Q416.2354431152344,-339.274658203125 419.7142333984375,-340.0624694824219 Q423.1930236816406,-340.85028076171875 427.1772155761719,-341.81658935546875 Q431.16143798828125,-342.78289794921875 433.2873229980469,-343.4222717285156 Q435.4132385253906,-344.0616455078125 437.5093994140625,-344.7156677246094 Q439.60552978515625,-345.3696594238281 443.2031555175781,-346.55902099609375 L446.80078125,-347.74835205078125 L450.2199401855469,-348.8782043457031 Q453.6390686035156,-350.008056640625 456.96929931640625,-350.7513122558594 Q460.29949951171875,-351.4945983886719 462.9605712890625,-351.9704284667969 Q465.62164306640625,-352.4462585449219 468.1042175292969,-352.9814453125 Q470.5868225097656,-353.5166015625 472.7869873046875,-354.2598571777344 L477.7524719238281,-355.805908203125" fill-rule="evenodd" style="fill:none;stroke:#100C07;stroke-linecap:round;stroke-linejoin:round;stroke-width:8.692770957946777;" />
	<path d="M402.6775207519531,-351.9406433105469 L402.6477966308594,-351.9406433105469 Q402.6180725097656,-351.9406433105469 404.2383728027344,-349.6512145996094 Q405.8586730957031,-347.3617858886719 406.7953796386719,-345.0427551269531 L407.73211669921875,-342.72369384765625 L409.5457458496094,-337.5501403808594 L411.270263671875,-332.5550537109375 L411.968994140625,-330.4439697265625 Q412.667724609375,-328.3328857421875 413.901611328125,-325.6570129394531 L416.8005065917969,-321.28619384765625" fill-rule="evenodd" style="fill:none;stroke:#100C07;stroke-linecap:round;stroke-linejoin:round;stroke-width:8.692770957946777;" />
	<path d="M430.0611877441406,-361.7226867675781 L430.1206970214844,-361.7226867675781 Q430.18017578125,-361.7226867675781 431.4586486816406,-358.7048034667969 Q432.7370910644531,-355.6868896484375 433.3912353515625,-353.1893615722656 L434.04541015625,-350.69183349609375 L435.1752624511719,-345.45904541015625 L435.7996520996094,-342.9911193847656 Q436.4241027832031,-340.523193359375 437.286376953125,-338.3974304199219 Q438.14862060546875,-336.2716979980469 439.5013427734375,-333.89300537109375 L442.6976318359375,-329.76019287109375" fill-rule="evenodd" style="fill:none;stroke:#100C07;stroke-linecap:round;stroke-linejoin:round;stroke-width:8.692770957946777;" />
	<path d="M456.8504638671875,-367.6099548339844 L456.8504638671875,-367.6395568847656 Q456.8504638671875,-367.6691589355469 458.12890625,-365.2608642578125 Q459.4073486328125,-362.8525695800781 460.12103271484375,-360.3104553222656 L460.8346862792969,-357.7684020996094 L462.440185546875,-352.3568420410156 L464.1647033691406,-347.3617858886719 L465.5918884277344,-344.0019836425781 L469.21929931640625,-336.33087158203125" fill-rule="evenodd" style="fill:none;stroke:#100C07;stroke-linecap:round;stroke-linejoin:round;stroke-width:8.692770957946777;" />
	<path d="M-367.09637451171875,258.5594482421875 L-366.2956848144531,258.38140869140625 Q-365.49493408203125,258.203369140625 -357.7102966308594,252.82080078125 Q-349.92559814453125,247.438232421875 -341.251220703125,240.98789978027344 L-332.57684326171875,234.53759765625 L-321.9888610839844,227.15325927734375 L-309.7117614746094,218.70166015625 L-296.7225646972656,209.53790283203125 L-281.8644714355469,199.1279296875 L-266.3836975097656,187.82958984375 L-250.19168090820312,175.64013671875 L-234.7109375,163.45166015625 L-219.67567443847656,151.61920166015625 L-206.15237426757812,140.942626953125 L-193.42977905273438,130.8001708984375 L-182.2190704345703,121.36981201171875 L-171.36538696289062,112.8287353515625 L-160.6002197265625,104.109619140625 L-155.2176513671875,99.79476928710938 Q-149.8350830078125,95.47991180419922 -143.87413024902344,91.20938110351562 L-137.91317749023438,86.9388427734375 L-125.546630859375,77.775146484375 L-111.66726684570312,68.166748046875 L-96.27593994140625,57.934814453125 L-78.57110595703125,46.012874603271484 L-60.154178619384766,33.6463623046875 L-41.56005859375,21.27978515625 L-32.663360595703125,15.2745361328125 L-23.76666259765625,9.269287109375 L-15.447906494140625,3.575408935546875 Q-7.129150390625,-2.11846923828125 0.566497802734375,-7.901855945587158 L8.26214599609375,-13.68524169921875 L15.468902587890625,-19.06781005859375 L22.6756591796875,-24.45037841796875 L36.6435546875,-34.681396484375 L42.871124267578125,-39.485595703125 Q49.098690032958984,-44.289794921875 55.1043701171875,-48.4713134765625 L61.11004638671875,-52.65283203125 L66.670654296875,-56.389739990234375 Q72.23126220703125,-60.12664794921875 77.39107513427734,-64.21914672851562 L82.5509033203125,-68.31163787841797 L92.69335174560547,-75.96258544921875 L110.84375,-90.464599609375 L120.18508911132812,-97.6266098022461 Q129.52642822265625,-104.78863525390625 134.77569580078125,-108.43648529052734 L140.02496337890625,-112.0843505859375 L145.40753173828125,-115.73178100585938 Q150.79010009765625,-119.37920379638672 155.95034790039062,-123.29412841796875 Q161.110595703125,-127.20904541015625 170.6746826171875,-133.92599487304688 Q180.23876953125,-140.6429443359375 188.2014617919922,-147.27127075195312 L196.1641845703125,-153.89959716796875 L204.61627197265625,-160.83929443359375 Q213.068359375,-167.77899169921875 222.009765625,-174.45162963867188 L230.951171875,-181.124267578125 L238.73583984375,-186.95147705078125 Q246.5205078125,-192.77867126464844 251.9477996826172,-197.4052734375 Q257.3750915527344,-202.0318603515625 262.2683410644531,-206.61373901367188 Q267.16156005859375,-211.1956024169922 272.4551086425781,-215.55474853515625 Q277.7486572265625,-219.91387939453125 284.99969482421875,-225.02984619140625 L292.250732421875,-230.14581298828125 L298.92333984375,-235.08328247070312 Q305.595947265625,-240.02078247070312 311.20086669921875,-245.4033660888672 Q316.8057861328125,-250.78594970703125 322.7224426269531,-254.74513244628906 L331.04119873046875,-260.66180419921875" fill-rule="evenodd" style="fill:none;stroke:#F5060B;stroke-linecap:round;stroke-linejoin:round;stroke-width:8.692770957946777;" />
	<path d="M330.9516906738281,-259.3270263671875 L330.9074401855469,-259.3270263671875 Q330.8631591796875,-259.3270263671875 331.8418884277344,-252.03172302246094 L332.82061767578125,-244.73641967773438 L333.887939453125,-230.94650268554688 L333.887939453125,-214.04234313964844 L334.06597900390625,-200.51904296875 L335.311279296875,-186.01702880859375 L335.48931884765625,-169.02435302734375 L335.0447082519531,-151.4080810546875 L334.7771911621094,-134.8599853515625 L334.5106201171875,-118.13390350341797 L333.35382080078125,-101.94189453125 L332.77545166015625,-94.20150756835938 Q332.19708251953125,-86.46112060546875 332.3750915527344,-79.87750244140625 L332.5530700683594,-73.29388427734375 L331.75244140625,-60.037166595458984 L330.9516906738281,-47.226009368896484 L331.48583984375,-31.4786376953125 L331.48583984375,-17.42120361328125 L332.19708251953125,-1.67388916015625 L332.5530700683594,14.60760498046875 L332.73114013671875,30.621583938598633 L332.2864990234375,45.212158203125 L332.1084899902344,59.714229583740234 L333.17578125,75.551025390625 L333.17578125,88.62884521484375 L333.17578125,103.39836883544922 L333.887939453125,117.6329345703125 L334.4219970703125,133.82489013671875 L335.6673583984375,149.572265625 L336.37860107421875,165.76519775390625 L337.44677734375,181.3345184326172 L338.51409912109375,194.05712890625 L339.04815673828125,210.783203125 L340.115478515625,225.2852783203125 L341.36083984375,238.63055419921875 L342.96221923828125,252.06439208984375 L343.8519287109375,258.95977783203125 L347.23321533203125,272.70538330078125" fill-rule="evenodd" style="fill:none;stroke:#F5060B;stroke-linecap:round;stroke-linejoin:round;stroke-width:8.692770957946777;" />
	<path d="M-364.33819580078125,263.3636169433594 L-365.04986572265625,263.3636169433594 Q-365.7615661621094,263.3636169433594 -358.82232666015625,265.76568603515625 Q-351.8830871582031,268.16778564453125 -343.1639709472656,268.07879638671875 Q-334.4448547363281,267.98980712890625 -325.4143981933594,267.36712646484375 Q-316.38397216796875,266.74444580078125 -306.4642639160156,265.2320556640625 Q-296.54449462890625,263.71966552734375 -286.98040771484375,262.65191650390625 Q-277.41632080078125,261.58416748046875 -268.2525634765625,261.1395568847656 L-259.0888366699219,260.6949462890625 L-250.3249969482422,260.6949462890625 L-241.56114196777344,260.6949462890625 L-233.50987243652344,261.22857666015625 Q-225.45858764648438,261.76220703125 -217.98526000976562,262.20684814453125 L-210.51193237304688,262.6514587402344 L-202.9938507080078,263.0965576171875 Q-195.4757843017578,263.5416259765625 -187.2460479736328,263.71966552734375 Q-179.01629638671875,263.897705078125 -171.2763671875,263.85296630859375 Q-163.53643798828125,263.8082275390625 -155.5290069580078,263.3636169433594 Q-147.52157592773438,262.91900634765625 -139.1585235595703,263.05230712890625 Q-130.7954559326172,263.18560791015625 -124.03380584716797,263.76397705078125 Q-117.27215576171875,264.34234619140625 -108.01937866210938,264.6094055175781 Q-98.7666015625,264.87646484375 -90.44830322265625,264.7427062988281 Q-82.12999725341797,264.60894775390625 -73.05526733398438,265.05401611328125 Q-63.980525970458984,265.49908447265625 -56.907100677490234,265.8547058105469 Q-49.83367919921875,266.2102966308594 -41.648651123046875,265.8547058105469 Q-33.463623046875,265.49908447265625 -26.168304443359375,265.3210754394531 Q-18.87298583984375,265.14306640625 -12.511688232421875,265.3210754394531 Q-6.150390625,265.49908447265625 0.8335570693016052,265.6771240234375 Q7.8175048828125,265.85516357421875 14.712462425231934,266.0327453613281 Q21.607421875,266.2102966308594 28.280059814453125,266.74444580078125 Q34.95269775390625,267.278564453125 41.71435546875,267.81219482421875 Q48.47601318359375,268.3458251953125 56.172119140625,268.301513671875 Q63.86822509765625,268.25726318359375 71.51913452148438,267.990234375 Q79.1700439453125,267.72320556640625 86.37680053710938,267.81219482421875 Q93.58355712890625,267.90118408203125 100.5675048828125,268.16778564453125 Q107.55145263671875,268.43438720703125 115.15811157226562,268.52337646484375 L122.76476287841797,268.6124267578125 L130.10479736328125,268.6124267578125 L144.91815185546875,268.6124267578125 L152.3914794921875,268.6124267578125 L167.071533203125,268.16778564453125 L174.54489135742188,268.16778564453125 L182.0182342529297,268.16778564453125 L188.69088745117188,268.3458251953125 Q195.363525390625,268.52386474609375 201.8138427734375,268.6128845214844 L208.26416015625,268.701904296875 L214.93679809570312,268.701904296875 L228.3710479736328,268.701904296875 L235.13267517089844,268.701904296875 L241.67202758789062,268.5681457519531 Q248.2113494873047,268.43438720703125 254.75027465820312,267.9897766113281 Q261.2891845703125,267.545166015625 267.739501953125,267.1448059082031 Q274.1898193359375,266.74444580078125 281.9744873046875,266.61114501953125 Q289.7591552734375,266.47784423828125 297.67755126953125,266.5668640136719 Q305.595947265625,266.6558837890625 312.4466247558594,266.74444580078125 Q319.29730224609375,266.8330078125 325.9252014160156,267.45611572265625 L337.71337890625,267.63372802734375" fill-rule="evenodd" style="fill:none;stroke:#F5060B;stroke-linecap:round;stroke-linejoin:round;stroke-width:8.692770957946777;" />
	<path d="M338.3810729980469,222.82093811035156 L338.4203796386719,222.86024475097656 Q338.4596862792969,222.8995361328125 335.7102966308594,223.48858642578125 Q332.96087646484375,224.07765197753906 329.2493896484375,224.37228393554688 Q325.5379333496094,224.66690063476562 320.9032897949219,224.6078643798828 Q316.2686462402344,224.548828125 311.9483642578125,224.25439453125 Q307.6280822753906,223.95997619628906 304.2698974609375,223.97950744628906 Q300.91168212890625,223.99905395507812 297.4162292480469,224.43112182617188 Q293.9207763671875,224.86317443847656 291.0929870605469,225.6682891845703 Q288.26519775390625,226.473388671875 288.52032470703125,230.87225341796875 Q288.7754821777344,235.27110290527344 289.38427734375,238.19725036621094 L289.9930725097656,241.1233673095703 L290.5232849121094,243.951171875 Q291.0534973144531,246.77896118164062 292.48712158203125,251.62965393066406 Q293.9207763671875,256.4803161621094 295.1777038574219,259.5634765625 L296.8271789550781,262.9609375" fill-rule="evenodd" style="fill:none;stroke:#F5060B;stroke-linecap:round;stroke-linejoin:round;stroke-width:8.692770957946777;" />
	<path d="M-263.4613037109375,189.40847778320312 L-263.50567626953125,189.40847778320312 Q-263.550048828125,189.40847778320312 -260.002197265625,193.73275756835938 L-256.454345703125,198.05703735351562 L-252.2408447265625,203.7778778076172 L-247.85035705566406,210.0757598876953 L-243.548583984375,216.2844696044922 L-241.66371154785156,219.1007080078125 Q-239.77883911132812,221.91697692871094 -237.0069580078125,227.1945037841797 Q-234.23507690429688,232.47206115722656 -233.32598876953125,237.57229614257812 Q-232.41688537597656,242.67254638671875 -232.92686462402344,247.08535766601562 Q-233.4368133544922,251.49818420410156 -234.90023803710938,254.82440185546875 L-237.96066284179688,260.50128173828125" fill-rule="evenodd" style="fill:none;stroke:#F5060B;stroke-linecap:round;stroke-linejoin:round;stroke-width:8.692770957946777;" />
	<path d="M-184.56324768066406,185.683349609375 L-184.56324768066406,185.7277374267578 Q-184.56324768066406,185.77210998535156 -185.56130981445312,189.31996154785156 Q-186.55935668945312,192.8677978515625 -188.75462341308594,197.1697998046875 Q-190.94989013671875,201.47178649902344 -194.74169921875,206.039794921875 Q-198.5334930419922,210.60780334472656 -202.76902770996094,213.9783935546875 Q-207.0045623779297,217.34898376464844 -210.7519989013672,218.6128387451172 Q-214.49942016601562,219.87667846679688 -217.9808349609375,217.5926971435547 Q-221.46224975585938,215.30870056152344 -222.10531616210938,210.5634307861328 Q-222.7484130859375,205.8181610107422 -220.73065185546875,201.6492919921875 Q-218.71287536621094,197.4804229736328 -215.7858123779297,195.37367248535156 Q-212.8587188720703,193.26695251464844 -209.26626586914062,192.8457489013672 Q-205.67379760742188,192.42454528808594 -201.10581970214844,195.2628631591797 Q-196.53781127929688,198.10121154785156 -194.00985717773438,200.34083557128906 Q-191.48191833496094,202.58045959472656 -189.0650177001953,204.93113708496094 Q-186.64810180664062,207.2818145751953 -184.2086944580078,209.3439483642578 Q-181.769287109375,211.4060821533203 -178.28787231445312,213.77880859375 L-171.21421813964844,216.86109924316406" fill-rule="evenodd" style="fill:none;stroke:#F5060B;stroke-linecap:round;stroke-linejoin:round;stroke-width:8.692770957946777;" />
	<path d="M357.99090576171875,-38.93035888671875 L357.95196533203125,-38.89141845703125 Q357.91302490234375,-38.85247802734375 359.2557678222656,-33.92926025390625 L360.5984802246094,-29.00604248046875 L361.9607849121094,-22.1953125 L362.9724426269531,-14.061431884765625 L364.0232238769531,-5.53814697265625 L364.7237548828125,2.59613037109375 L365.1131286621094,9.3289794921875 L365.2299499511719,13.6099853515625 Q365.3467712402344,17.8909912109375 364.6849670410156,14.913772583007812 Q364.0232238769531,11.936553955078125 365.73577880859375,7.480224609375 Q367.4483337402344,3.023895263671875 369.0245056152344,0.708251953125 Q370.6006774902344,-1.607391357421875 372.50775146484375,-3.72833251953125 Q374.4148254394531,-5.849273681640625 376.6136474609375,-7.7952728271484375 Q378.8124694824219,-9.74127197265625 382.8210754394531,-11.239761352539062 Q386.8297119140625,-12.738250732421875 389.90435791015625,-11.045257568359375 Q392.97906494140625,-9.352264404296875 395.35302734375,-4.5652313232421875 Q397.7269592285156,0.2218017578125 398.7777099609375,3.0045166015625 L399.8285217285156,5.7872314453125 L401.4631652832031,11.39178466796875 L402.5724792480469,15.166778564453125 L404.61553955078125,21.082489013671875" fill-rule="evenodd" style="fill:none;stroke:#F5060B;stroke-linecap:round;stroke-linejoin:round;stroke-width:8.692770957946777;" />
	<path d="M499.3057861328125,560.2508544921875 L499.7437438964844,551.965576171875 L500.1817321777344,543.6802978515625" fill-rule="evenodd" style="fill:none;stroke:#F5060B;stroke-linecap:round;stroke-linejoin:round;stroke-width:8.692770957946777;" />
	<path d="M-61.2027587890625,-65.712890625 L-61.116790771484375,-65.02557373046875 Q-61.03082275390625,-64.3382568359375 -61.03082275390625,-57.46435546875 L-61.03082275390625,-50.5904541015625 L-61.33148193359375,-41.353973388671875 L-59.05487060546875,-20.08905029296875" fill-rule="evenodd" style="fill:none;stroke:#F5060B;stroke-linecap:round;stroke-linejoin:round;stroke-width:8.692770957946777;" />
	<path d="M-84.48727416992188,-12.269957542419434 L-84.53004455566406,-12.012054443359375 Q-84.57281494140625,-11.754150390625 -76.195556640625,-9.864166259765625 Q-67.81829833984375,-7.974181652069092 -58.581817626953125,-9.09088134765625 Q-49.345333099365234,-10.20758056640625 -42.428680419921875,-12.87127685546875 Q-35.51202392578125,-15.53497314453125 -28.767271041870117,-21.377685546875 Q-22.022520065307617,-27.220396041870117 -19.91741943359375,-34.1370849609375 Q-17.81231689453125,-41.05377197265625 -21.249267578125,-47.970428466796875 Q-24.68621826171875,-54.8870849609375 -31.6888427734375,-61.159210205078125 Q-38.69146728515625,-67.43133544921875 -48.400569915771484,-68.76318359375 Q-58.109676361083984,-70.09503173828125 -68.59202575683594,-68.07589721679688 L-88.009765625,-58.581478118896484" fill-rule="evenodd" style="fill:none;stroke:#F5060B;stroke-linecap:round;stroke-linejoin:round;stroke-width:8.692770957946777;" />
</svg>