<?xml version="1.0" encoding="UTF-8"?>
<!-- Created with Grafika (https://www.grafika.cc/) -->
<svg version="1.0" xmlns="http://www.w3.org/2000/svg" xmlns:svg="http://www.w3.org/2000/svg" width="1080" height="1080" viewBox="-540.000000 -540.000000 1080.000000 1080.000000" preserveAspectRatio="xMinYMin meet">
	<rect x="-540.0" y="-540.0" width="1080" height="1080" fill="#FFFFFF" />
	<path d="M-468.8324279785156,421.3175048828125 L-468.7526092529297,421.3175048828125 L-468.67279052734375,421.3175048828125 L-462.3307800292969,420.87872314453125 Q-455.98876953125,420.43994140625 -449.96600341796875,419.56231689453125 Q-443.9432373046875,418.6846923828125 -437.44158935546875,417.6876220703125 Q-430.93994140625,416.6905517578125 -424.2389373779297,415.49371337890625 Q-417.5379333496094,414.296875 -410.7968292236328,413.29974365234375 Q-404.05572509765625,412.3026123046875 -397.79351806640625,411.58465576171875 Q-391.53131103515625,410.86669921875 -385.06976318359375,410.06890869140625 Q-378.60821533203125,409.2711181640625 -372.22607421875,408.71282958984375 Q-365.84393310546875,408.154541015625 -359.3025817871094,407.83526611328125 Q-352.76123046875,407.5159912109375 -346.3393859863281,407.2769775390625 Q-339.91754150390625,407.0379638671875 -333.2562561035156,406.7984619140625 Q-326.594970703125,406.5589599609375 -319.93406677246094,406.359619140625 Q-313.2731628417969,406.1602783203125 -306.3327178955078,406.08050537109375 Q-299.39227294921875,406.000732421875 -292.4518280029297,405.7215576171875 Q-285.5113830566406,405.4423828125 -278.2917785644531,405.12310791015625 Q-271.0721740722656,404.8038330078125 -263.7731475830078,404.4849853515625 Q-256.47412109375,404.1661376953125 -249.01507568359375,403.92669677734375 Q-241.5560302734375,403.687255859375 -234.13706970214844,403.64715576171875 L-226.71810913085938,403.6070556640625 L-219.45880126953125,403.6070556640625 L-212.19949340820312,403.6070556640625 L-204.9000701904297,403.68682861328125 Q-197.60064697265625,403.7666015625 -190.5005645751953,403.846435546875 L-183.40048217773438,403.92626953125 L-176.380615234375,403.92626953125 L-169.36074829101562,403.92626953125 L-162.5001220703125,403.6470947265625 Q-155.63949584960938,403.367919921875 -148.5795135498047,402.80963134765625 Q-141.51953125,402.2513427734375 -134.37974548339844,401.61322021484375 Q-127.23995971679688,400.97509765625 -120.25981140136719,400.6959228515625 Q-113.2796630859375,400.416748046875 -106.6580810546875,400.257080078125 Q-100.0364990234375,400.097412109375 -93.65476989746094,400.05731201171875 L-87.27304077148438,400.0172119140625 L-81.01083374023438,400.0172119140625 L-68.84538269042969,400.0172119140625 L-62.942138671875,400.0172119140625 L-52.1724853515625,399.9775390625 Q-41.40283203125,399.9378662109375 -31.271331787109375,400.01763916015625 Q-21.13983154296875,400.097412109375 -11.527313232421875,400.575927734375 Q-1.914794921875,401.054443359375 7.977264404296875,401.13427734375 Q17.86932373046875,401.214111328125 26.844085693359375,401.0946044921875 Q35.81884765625,400.97509765625 43.95574951171875,401.373779296875 Q52.0926513671875,401.7724609375 60.827972412109375,401.93206787109375 Q69.56329345703125,402.0916748046875 78.45785522460938,401.8125 Q87.3524169921875,401.5333251953125 96.28707885742188,401.37371826171875 Q105.22174072265625,401.214111328125 114.19650268554688,401.8125 Q123.1712646484375,402.410888671875 133.14315795898438,403.049072265625 L143.11505126953125,403.687255859375 L154.04391479492188,403.687255859375 L175.30364990234375,403.687255859375 L185.634521484375,403.687255859375 L193.77139282226562,404.32537841796875 Q201.90826416015625,404.9635009765625 211.0823974609375,406.159912109375 Q220.25653076171875,407.3563232421875 230.14859008789062,407.9150390625 Q240.0406494140625,408.4737548828125 249.93270874023438,408.5535888671875 Q259.82476806640625,408.6334228515625 270.3148498535156,408.7132568359375 Q280.804931640625,408.7930908203125 286.7081604003906,408.75299072265625 Q292.61138916015625,408.712890625 298.35540771484375,408.4337158203125 Q304.09942626953125,408.154541015625 310.08245849609375,407.676025390625 Q316.06549072265625,407.197509765625 321.80908203125,406.87823486328125 Q327.55267333984375,406.5589599609375 333.4559326171875,406.31951904296875 Q339.35919189453125,406.080078125 345.14288330078125,406.0404052734375 L350.92657470703125,406.000732421875 L356.8298034667969,406.000732421875 L362.7330322265625,406.000732421875 L373.18341064453125,405.8013916015625 Q383.6337890625,405.60205078125 393.2864074707031,405.08343505859375 Q402.93902587890625,404.5648193359375 412.55194091796875,404.16571044921875 Q422.16485595703125,403.7666015625 430.62103271484375,403.60736083984375 Q439.07720947265625,403.4481201171875 445.6983642578125,403.40802001953125 Q452.31951904296875,403.367919921875 458.18304443359375,403.28814697265625 L466.04083251953125,402.96923828125" fill-rule="evenodd" style="fill:none;stroke:#000000;stroke-linecap:round;stroke-linejoin:round;stroke-width:9.692770957946777;" />
	<path d="M-28.71881103515625,183.35125732421875 L-28.838348388671875,183.27142333984375 Q-28.9578857421875,183.19158935546875 -35.020751953125,186.2230224609375 Q-41.0836181640625,189.25445556640625 -43.596435546875,195.71600341796875 Q-46.1092529296875,202.17755126953125 -46.62786865234375,209.11801147460938 Q-47.146484375,216.0584716796875 -44.79327392578125,222.28097534179688 Q-42.4400634765625,228.50347900390625 -35.978118896484375,231.25534057617188 Q-29.51617431640625,234.0072021484375 -22.256866455078125,232.89056396484375 Q-14.99755859375,231.77392578125 -8.01739501953125,227.18707275390625 Q-1.0372314453125,222.6002197265625 3.230743408203125,217.015869140625 Q7.49871826171875,211.4315185546875 8.774993896484375,205.72763061523438 Q10.05126953125,200.02374267578125 7.77789306640625,193.68170166015625 Q5.5045166015625,187.33966064453125 0.07977294921875,182.91204833984375 Q-5.344970703125,178.48443603515625 -10.769683837890625,175.69244384765625 Q-16.19439697265625,172.90045166015625 -22.576141357421875,174.53570556640625 Q-28.9578857421875,176.17095947265625 -32.069122314453125,181.07708740234375 L-35.259765625,187.49932861328125" fill-rule="evenodd" style="fill:none;stroke:#000000;stroke-linecap:round;stroke-linejoin:round;stroke-width:9.692770957946777;" />
	<path d="M-19.225830078125,235.04443359375 L-19.225830078125,234.88482666015625 L-19.06622314453125,248.2073974609375 L-18.26806640625,265.67803955078125 L-16.8321533203125,280.4365234375 L-15.07696533203125,296.7896728515625 L-14.4388427734375,302.53326416015625 Q-13.80072021484375,308.27685546875 -13.920623779296875,314.140380859375 Q-14.04052734375,320.00390625 -15.15716552734375,326.10687255859375 Q-16.2738037109375,332.2098388671875 -19.943389892578125,338.87078857421875 L-23.61297607421875,345.53173828125 L-30.4739990234375,358.2958984375 L-33.385498046875,363.99981689453125 L-38.92974853515625,374.011474609375" fill-rule="evenodd" style="fill:none;stroke:#000000;stroke-linecap:round;stroke-linejoin:round;stroke-width:9.692770957946777;" />
	<path d="M-13.64105224609375,324.1519775390625 L-13.481842041015625,324.79052734375 Q-13.3226318359375,325.4290771484375 -7.259765625,333.08709716796875 Q-1.1968994140625,340.7451171875 3.629425048828125,348.88201904296875 L8.45574951171875,357.0189208984375 L11.566986083984375,363.281494140625 L18.26800537109375,377.122314453125" fill-rule="evenodd" style="fill:none;stroke:#000000;stroke-linecap:round;stroke-linejoin:round;stroke-width:9.692770957946777;" />
	<path d="M-19.225830078125,260.01385498046875 L-19.265533447265625,260.01385498046875 Q-19.30523681640625,260.01385498046875 -12.08563232421875,265.1991271972656 Q-4.86602783203125,270.3843994140625 1.8349609375,278.2024230957031 Q8.53594970703125,286.02044677734375 11.607086181640625,291.2057189941406 L17.07196044921875,300.8583984375" fill-rule="evenodd" style="fill:none;stroke:#000000;stroke-linecap:round;stroke-linejoin:round;stroke-width:9.692770957946777;" />
	<path d="M-19.94378662109375,263.0452880859375 L-19.94378662109375,263.0055847167969 Q-19.94378662109375,262.96588134765625 -26.245697021484375,266.7950744628906 Q-32.547607421875,270.624267578125 -38.09185791015625,276.0887145996094 L-48.74200439453125,291.5250244140625" fill-rule="evenodd" style="fill:none;stroke:#000000;stroke-linecap:round;stroke-linejoin:round;stroke-width:9.692770957946777;" />
	<path d="M165.611328125,-172.28253173828125 L165.1324462890625,-171.484375 L171.9132080078125,-183.92938232421875 L178.374755859375,-194.37933349609375 L184.51788330078125,-205.388427734375 L186.95089721679688,-210.61383056640625 Q189.3839111328125,-215.8392333984375 191.57745361328125,-224.45462036132812 L193.77099609375,-233.07000732421875 L195.32681274414062,-239.05307006835938 Q196.88262939453125,-245.0361328125 202.14773559570312,-239.65150451660156 Q207.412841796875,-234.26687622070312 211.76065063476562,-225.13246154785156 Q216.10845947265625,-215.998046875 220.61550903320312,-208.26022338867188 L225.12255859375,-200.52239990234375 L232.7015380859375,-187.1998291015625 L235.93231201171875,-181.69528198242188 Q239.1630859375,-176.19073486328125 232.54190063476562,-179.06295776367188 Q225.92071533203125,-181.9351806640625 220.61550903320312,-185.76397705078125 Q215.310302734375,-189.5927734375 210.16513061523438,-192.8636474609375 Q205.01995849609375,-196.134521484375 196.68331909179688,-199.604736328125 Q188.3466796875,-203.074951171875 178.69406127929688,-205.14898681640625 Q169.04144287109375,-207.2230224609375 161.74200439453125,-208.26025390625 Q154.44256591796875,-209.2974853515625 161.18368530273438,-209.65643310546875 Q167.9248046875,-210.015380859375 174.78543090820312,-209.85577392578125 Q181.64605712890625,-209.6961669921875 188.626220703125,-209.73626708984375 Q195.60638427734375,-209.7763671875 202.7060546875,-210.09524536132812 Q209.80572509765625,-210.41412353515625 221.89175415039062,-211.13204956054688 Q233.977783203125,-211.8499755859375 241.91534423828125,-212.16925048828125 Q249.8529052734375,-212.488525390625 239.12295532226562,-207.6622314453125 Q228.39300537109375,-202.8359375 221.37313842773438,-199.32559204101562 Q214.353271484375,-195.81524658203125 206.4554443359375,-191.6270751953125 Q198.5576171875,-187.43890380859375 190.38101196289062,-182.85205078125 L182.20440673828125,-178.26519775390625 L167.2862548828125,-169.49017333984375 L161.5025634765625,-165.980224609375 L148.2200927734375,-157.84332275390625" fill-rule="evenodd" style="fill:none;stroke:#000000;stroke-linecap:round;stroke-linejoin:round;stroke-width:9.692770957946777;" />
	<path d="M-303.7801818847656,-146.75482177734375 L-303.9394226074219,-146.75482177734375 Q-304.0986633300781,-146.75482177734375 -302.4634246826172,-156.12826538085938 Q-300.82818603515625,-165.501708984375 -297.2384338378906,-174.71554565429688 L-293.648681640625,-183.92938232421875 L-291.3749084472656,-191.38803100585938 Q-289.10113525390625,-198.8466796875 -288.3033752441406,-204.55056762695312 L-287.505615234375,-210.25445556640625 L-286.18963623046875,-215.99844360351562 Q-284.8736572265625,-221.742431640625 -282.0018615722656,-226.8876190185547 Q-279.13006591796875,-232.03280639648438 -275.1011199951172,-227.64529418945312 Q-271.0721740722656,-223.25778198242188 -267.6420593261719,-215.40003967285156 Q-264.2119445800781,-207.54229736328125 -259.2259979248047,-198.32846069335938 L-254.24005126953125,-189.1146240234375 L-244.98614501953125,-171.484375 L-241.03741455078125,-163.66635131835938 Q-237.08868408203125,-155.84832763671875 -233.93772888183594,-150.66302490234375 Q-230.78677368164062,-145.47772216796875 -226.39926147460938,-141.52902221679688 Q-222.01174926757812,-137.580322265625 -225.24252319335938,-142.28707885742188 Q-228.47329711914062,-146.99383544921875 -235.57296752929688,-150.703125 Q-242.67263793945312,-154.41241455078125 -249.2144012451172,-158.32144165039062 Q-255.75616455078125,-162.23046875 -265.2888641357422,-166.09976196289062 Q-274.8215637207031,-169.96905517578125 -285.5113830566406,-172.60140991210938 Q-296.2012023925781,-175.2337646484375 -305.2955017089844,-176.98892211914062 Q-314.3898010253906,-178.74407958984375 -320.3728485107422,-179.8607177734375 Q-326.35589599609375,-180.97735595703125 -319.33563232421875,-183.64981079101562 Q-312.31536865234375,-186.322265625 -304.3782196044922,-187.71844482421875 Q-296.4410705566406,-189.1146240234375 -290.5374450683594,-189.95211791992188 Q-284.6338195800781,-190.78961181640625 -276.81617736816406,-192.14569091796875 L-268.99853515625,-193.50177001953125 L-261.4596710205078,-194.81814575195312 Q-253.92080688476562,-196.134521484375 -246.90093994140625,-197.33135986328125 Q-239.88107299804688,-198.5281982421875 -234.13706970214844,-199.56503295898438 Q-228.39306640625,-200.60186767578125 -221.69207763671875,-202.07785034179688 Q-214.9910888671875,-203.5538330078125 -221.0142364501953,-200.60223388671875 Q-227.03738403320312,-197.650634765625 -234.1771697998047,-194.41946411132812 Q-241.31695556640625,-191.18829345703125 -248.33682250976562,-187.79788208007812 Q-255.356689453125,-184.407470703125 -262.85545349121094,-180.29910278320312 Q-270.3542175292969,-176.19073486328125 -277.8529815673828,-171.76351928710938 Q-285.35174560546875,-167.3363037109375 -293.289306640625,-162.2308349609375 L-301.22686767578125,-157.1253662109375 L-309.0047912597656,-152.01950073242188 Q-316.78271484375,-146.91363525390625 -322.6065216064453,-142.526123046875 Q-328.4303283691406,-138.13861083984375 -332.53868103027344,-133.5517578125 L-336.64703369140625,-128.725830078125" fill-rule="evenodd" style="fill:none;stroke:#000000;stroke-linecap:round;stroke-linejoin:round;stroke-width:9.692770957946777;" />
	<path d="M183.03016662597656,-343.2360534667969 L183.05034637451172,-343.1453094482422 Q183.07052612304688,-343.0545654296875 184.62329864501953,-339.8076629638672 L186.1760711669922,-336.5607604980469 L187.91055297851562,-332.10400390625 L189.56411743164062,-327.626953125 L190.87496948242188,-323.41192626953125 L192.00430297851562,-319.74163818359375 L192.9320831298828,-316.59552001953125 L193.51692962646484,-314.5990295410156 L194.48486328125,-312.21923828125" fill-rule="evenodd" style="fill:none;stroke:#000000;stroke-linecap:round;stroke-linejoin:round;stroke-width:7.692770957946777;" />
	<path d="M183.61502075195312,-343.4378356933594 L183.5645294189453,-343.4378356933594 L183.5140380859375,-343.4378356933594 L185.13748168945312,-343.9521179199219 Q186.76092529296875,-344.4664001464844 188.5154800415039,-345.15203857421875 Q190.27003479003906,-345.8376770019531 192.18590545654297,-346.46287536621094 Q194.10177612304688,-347.08807373046875 196.06805419921875,-347.7938995361328 L198.03433227539062,-348.4997253417969 L201.9871368408203,-349.8912658691406 L203.84247589111328,-350.5567321777344 Q205.69781494140625,-351.2221984863281 207.1901626586914,-351.8373718261719 Q208.68251037597656,-352.4525451660156 210.24542999267578,-353.16839599609375 Q211.808349609375,-353.8842468261719 212.8167266845703,-351.4642333984375 Q213.82510375976562,-349.0442199707031 214.2889862060547,-347.2796173095703 L214.75286865234375,-345.5150146484375 L215.74087524414062,-341.219482421875 L216.6282958984375,-336.88360595703125 L217.596435546875,-332.83001708984375 L218.4432830810547,-329.24017333984375 L218.9273452758789,-326.8806915283203 L220.41969299316406,-322.6455993652344" fill-rule="evenodd" style="fill:none;stroke:#000000;stroke-linecap:round;stroke-linejoin:round;stroke-width:7.692770957946777;" />
	<path d="M191.4801025390625,-315.4661560058594 L191.5708465576172,-315.4661560058594 L191.66159057617188,-315.4661560058594 L194.78742218017578,-316.4241485595703 Q197.9132537841797,-317.38214111328125 200.27283477783203,-318.44081115722656 Q202.63241577148438,-319.4994812011719 205.04239654541016,-320.51800537109375 Q207.45237731933594,-321.5365295410156 209.7816390991211,-322.353271484375 Q212.11090087890625,-323.1700134277344 213.98641967773438,-323.7850799560547 L218.03993225097656,-325.12615966796875" fill-rule="evenodd" style="fill:none;stroke:#000000;stroke-linecap:round;stroke-linejoin:round;stroke-width:7.692770957946777;" />
	<path d="M216.91058349609375,-338.1137390136719 L217.1122589111328,-338.123779296875 Q217.31393432617188,-338.1338195800781 219.24998474121094,-338.62791442871094 Q221.18603515625,-339.12200927734375 223.37416076660156,-339.9690704345703 L228.08319091796875,-341.76397705078125" fill-rule="evenodd" style="fill:none;stroke:#000000;stroke-linecap:round;stroke-linejoin:round;stroke-width:7.692770957946777;" />
	<path d="M227.45799255371094,-356.94964599609375 L227.45799255371094,-356.9294738769531 Q227.45799255371094,-356.9093017578125 228.63773345947266,-353.8338623046875 L229.81747436523438,-350.7584228515625 L231.39051818847656,-346.50323486328125 L232.68128967285156,-342.0462646484375 L233.52835083007812,-337.9119567871094 L234.07284545898438,-334.50384521484375 L234.45602416992188,-332.6585388183594 L235.28271484375,-330.1275939941406" fill-rule="evenodd" style="fill:none;stroke:#000000;stroke-linecap:round;stroke-linejoin:round;stroke-width:7.692770957946777;" />
	<path d="M175.62887573242188,-323.8153076171875 L175.62887573242188,-323.7951354980469 Q175.62887573242188,-323.77496337890625 178.30096435546875,-324.6522216796875 Q180.97305297851562,-325.52947998046875 183.0402069091797,-326.6991882324219 Q185.10736083984375,-327.868896484375 186.75088500976562,-328.443603515625 L188.4347686767578,-329.018310546875" fill-rule="evenodd" style="fill:none;stroke:#000000;stroke-linecap:round;stroke-linejoin:round;stroke-width:7.692770957946777;" />
	<path d="M169.55850219726562,-335.4113464355469 L169.55850219726562,-335.3911590576172 Q169.55850219726562,-335.3709716796875 170.29463958740234,-333.79791259765625 Q171.03077697753906,-332.224853515625 171.6156234741211,-330.551025390625 L172.20046997070312,-328.877197265625 L173.28945922851562,-324.56158447265625 L174.45916748046875,-320.38690185546875 L175.4674530029297,-316.8778076171875 L176.39523315429688,-314.05450439453125 L177.0203399658203,-312.47142028808594 L178.06906127929688,-309.637939453125" fill-rule="evenodd" style="fill:none;stroke:#000000;stroke-linecap:round;stroke-linejoin:round;stroke-width:7.692770957946777;" />
	<path d="M234.96006774902344,-328.33270263671875 L235.0306396484375,-328.33270263671875 L235.10121154785156,-328.33270263671875 L237.1985855102539,-328.82679748535156 Q239.29595947265625,-329.3208923339844 240.90937042236328,-329.9561309814453 Q242.5227813720703,-330.59136962890625 244.40834045410156,-331.03509521484375 Q246.2938995361328,-331.47882080078125 248.59294891357422,-332.1342315673828 Q250.89199829101562,-332.7896423339844 252.3037338256836,-333.3039245605469 Q253.71546936035156,-333.8182067871094 255.1775894165039,-334.3828887939453 Q256.63970947265625,-334.94757080078125 258.24298095703125,-335.52227783203125 Q259.84625244140625,-336.09698486328125 261.3486328125,-336.57090759277344 L262.85101318359375,-337.0448303222656 L265.7752685546875,-337.99267578125 L267.1668395996094,-338.45655822753906 Q268.55841064453125,-338.9204406738281 269.9196472167969,-339.41453552246094 Q271.2808837890625,-339.90863037109375 273.73121643066406,-340.8564910888672 Q276.1815490722656,-341.8043518066406 278.3191680908203,-342.43959045410156 Q280.456787109375,-343.0748291015625 282.3828125,-343.54876708984375 L284.308837890625,-344.022705078125 L286.48681640625,-344.5571594238281 Q288.664794921875,-345.09161376953125 290.0765380859375,-345.4746856689453 Q291.48828125,-345.8577575683594 292.9200744628906,-346.2611083984375 Q294.35186767578125,-346.6644592285156 296.78204345703125,-347.3905487060547 Q299.21221923828125,-348.11663818359375 300.9062194824219,-348.84263610839844 L304.2136535644531,-350.3753356933594" fill-rule="evenodd" style="fill:none;stroke:#000000;stroke-linecap:round;stroke-linejoin:round;stroke-width:7.692770957946777;" />
	<path d="M226.32864379882812,-360.0150451660156 L226.318603515625,-360.0150451660156 L226.30856323242188,-360.0150451660156 L228.47650909423828,-360.71083068847656 Q230.6444549560547,-361.4066162109375 232.48965454101562,-361.9007110595703 L234.33485412597656,-362.3948059082031 L236.50289916992188,-362.9796600341797 Q238.6709442138672,-363.56451416015625 241.25228118896484,-364.22998046875 L243.8336181640625,-364.89544677734375 L246.70738220214844,-365.64161682128906 Q249.58114624023438,-366.3877868652344 252.6667251586914,-367.10374450683594 Q255.75230407714844,-367.8197021484375 258.9790267944336,-368.50543212890625 L262.20574951171875,-369.191162109375 L265.4626770019531,-369.89698791503906 Q268.7196044921875,-370.6028137207031 271.9261474609375,-371.4295959472656 L275.1326904296875,-372.2563781738281 L278.0166015625,-373.0026397705078 Q280.9005126953125,-373.7489013671875 283.5121612548828,-374.5252990722656 L286.1238098144531,-375.30169677734375 L288.30189514160156,-375.9369354248047 Q290.47998046875,-376.5721740722656 292.17401123046875,-377.09649658203125 Q293.8680419921875,-377.6208190917969 296.1367645263672,-378.3669891357422 Q298.4054870605469,-379.1131591796875 299.8776550292969,-379.5064697265625 Q301.3498229980469,-379.8997802734375 302.32798767089844,-378.73008728027344 Q303.30615234375,-377.5603942871094 303.75990295410156,-374.7773742675781 L304.2136535644531,-371.9943542480469 L304.61700439453125,-368.18267822265625 L305.12115478515625,-364.39129638671875 L305.6656494140625,-360.8016662597656 L305.98828125,-359.36976623535156 Q306.3109130859375,-357.9378662109375 307.0672302246094,-355.9312438964844 L309.7999572753906,-351.5450439453125" fill-rule="evenodd" style="fill:none;stroke:#000000;stroke-linecap:round;stroke-linejoin:round;stroke-width:7.692770957946777;" />
	<path d="M244.68067932128906,-363.3426513671875 L244.70085906982422,-363.2216796875 Q244.72103881835938,-363.1007080078125 245.7696762084961,-360.650390625 Q246.8183135986328,-358.2000732421875 247.48387908935547,-356.1026916503906 L248.14944458007812,-354.00531005859375 L249.48036193847656,-350.03240966796875 L250.8114776611328,-346.220947265625 L252.02134704589844,-342.79254150390625 L252.76751708984375,-340.71534729003906 L254.0180206298828,-337.8314514160156" fill-rule="evenodd" style="fill:none;stroke:#000000;stroke-linecap:round;stroke-linejoin:round;stroke-width:7.692770957946777;" />
	<path d="M264.20220947265625,-367.7793273925781 L264.2425842285156,-367.56761169433594 Q264.282958984375,-367.35589599609375 265.19044494628906,-364.61314392089844 L266.0979309082031,-361.8703918457031 L267.1869201660156,-357.73626708984375 L268.0946044921875,-353.44073486328125 L268.7398986816406,-349.5282897949219 L269.20367431640625,-346.4024658203125 L269.50624084472656,-344.7184753417969 L270.1111755371094,-342.71185302734375" fill-rule="evenodd" style="fill:none;stroke:#000000;stroke-linecap:round;stroke-linejoin:round;stroke-width:7.692770957946777;" />
	<path d="M280.4166259765625,-372.8211364746094 L280.4166259765625,-372.71022033691406 Q280.4166259765625,-372.59930419921875 281.1324920654297,-369.99778747558594 L281.8483581542969,-367.3962707519531 L282.9576416015625,-363.04010009765625 L283.9659118652344,-358.522705078125 L284.8734130859375,-354.32794189453125 L285.2667236328125,-352.63392639160156 Q285.6600341796875,-350.9399108886719 286.3758850097656,-348.80218505859375 L287.35394287109375,-345.53509521484375" fill-rule="evenodd" style="fill:none;stroke:#000000;stroke-linecap:round;stroke-linejoin:round;stroke-width:7.692770957946777;" />
	<path d="M233.14508056640625,-346.82586669921875 L233.44764709472656,-346.82586669921875 L233.75021362304688,-346.82586669921875 L235.95841217041016,-346.99732971191406 Q238.16661071777344,-347.1687927246094 241.03033447265625,-347.7132873535156 Q243.89405822753906,-348.2577819824219 247.04016876220703,-348.97364807128906 Q250.186279296875,-349.68951416015625 253.85659790039062,-350.6373596191406 Q257.52691650390625,-351.585205078125 261.66123962402344,-352.69447326660156 Q265.7955627441406,-353.8037414550781 270.32298278808594,-355.05406188964844 Q274.85040283203125,-356.30438232421875 279.5392608642578,-357.6757507324219 Q284.2281188964844,-359.047119140625 288.66490173339844,-360.29742431640625 Q293.1016845703125,-361.5477294921875 296.761962890625,-362.50572204589844 Q300.4222412109375,-363.4637145996094 303.14483642578125,-364.1393280029297 L305.867431640625,-364.81494140625 L307.8941345214844,-365.32911682128906 L311.55450439453125,-366.26690673828125" fill-rule="evenodd" style="fill:none;stroke:#000000;stroke-linecap:round;stroke-linejoin:round;stroke-width:7.692770957946777;" />
	<path d="M323.5230712890625,-190.05154418945312 L323.3142852783203,-189.42507934570312 L322.8764953613281,-187.89633178710938" fill-rule="evenodd" style="fill:none;stroke:#000000;stroke-linecap:round;stroke-linejoin:round;stroke-width:7.692770957946777;" />
	<path d="M165.5269775390625,-337.0554504394531 L165.3472442626953,-337.0554504394531 L165.16751098632812,-337.0554504394531 L163.42344665527344,-336.4423522949219 Q161.67938232421875,-335.8292541503906 160.0092010498047,-335.32191467285156 Q158.33901977539062,-334.8145751953125 156.57371520996094,-334.233154296875 L154.80841064453125,-333.6517333984375 L151.53160095214844,-332.5947265625 L147.49374389648438,-331.283935546875 L146.0456085205078,-330.81890869140625 Q144.59747314453125,-330.3538818359375 143.14923095703125,-329.698486328125 Q141.70098876953125,-329.0430908203125 139.6609115600586,-328.2608642578125 Q137.62083435058594,-327.4786376953125 135.6652603149414,-326.7704162597656 Q133.70968627929688,-326.06219482421875 132.0289764404297,-325.4279479980469 Q130.3482666015625,-324.793701171875 128.58306121826172,-324.0960998535156 Q126.81785583496094,-323.39849853515625 125.07369232177734,-322.785400390625 L123.32952880859375,-322.17230224609375 L121.65935134887695,-321.5803527832031 Q119.98917388916016,-320.9884033203125 118.21333694458008,-320.26954650878906 Q116.4375,-319.5506896972656 114.37626647949219,-318.9059143066406 Q112.31503295898438,-318.2611389160156 110.83522033691406,-317.74317932128906 Q109.35540771484375,-317.2252197265625 107.91779708862305,-316.5592956542969 Q106.48018646240234,-315.89337158203125 104.88398361206055,-315.2908020019531 Q103.28778076171875,-314.688232421875 101.53309631347656,-314.51910400390625 Q99.77841186523438,-314.3499755859375 98.16116714477539,-313.7898254394531 Q96.5439224243164,-313.22967529296875 97.12524032592773,-311.42205810546875 Q97.70655822753906,-309.61444091796875 98.49939727783203,-307.8809051513672 Q99.292236328125,-306.1473693847656 100.13790130615234,-303.7795867919922 L100.98356628417969,-301.41180419921875 L102.78054809570312,-296.7608642578125 L104.55628967285156,-292.21533203125 L106.50123596191406,-288.19873046875 L107.12496185302734,-286.63421630859375 Q107.74868774414062,-285.0697021484375 107.97062683105469,-283.43128967285156 Q108.19256591796875,-281.7928771972656 110.16929626464844,-282.91331481933594 Q112.14602661132812,-284.03375244140625 114.71459579467773,-285.12261962890625 Q117.28316497802734,-286.21148681640625 119.06962966918945,-286.887939453125 L120.85609436035156,-287.56439208984375 L122.8538703918457,-288.325439453125 Q124.85164642333984,-289.08648681640625 127.01864242553711,-289.84754943847656 L129.18563842773438,-290.6086120605469 L131.39482879638672,-291.3909149169922 Q133.60401916503906,-292.1732177734375 135.8026885986328,-293.0399475097656 L138.00135803222656,-293.90667724609375 L142.44100952148438,-295.6190490722656 L146.98629760742188,-297.3526611328125 L149.24842834472656,-298.219482421875 Q151.51055908203125,-299.0863037109375 153.62461853027344,-299.931884765625 Q155.73867797851562,-300.7774658203125 157.55682373046875,-301.5596618652344 L159.37496948242188,-302.34185791015625 L160.981689453125,-303.03956604003906 Q162.58840942382812,-303.7372741699219 165.23106384277344,-304.7943572998047 L167.87371826171875,-305.8514404296875 L171.44644165039062,-307.24664306640625 L173.26458740234375,-307.9337158203125 L176.09738159179688,-309.1705322265625" fill-rule="evenodd" style="fill:none;stroke:#000000;stroke-linecap:round;stroke-linejoin:round;stroke-width:7.692770957946777;" />
	<path d="M105.14833068847656,-300.75640869140625 L105.26461791992188,-300.75640869140625 L105.38090515136719,-300.75640869140625 L107.37868118286133,-301.5174560546875 Q109.37645721435547,-302.27850341796875 111.68078231811523,-303.31443786621094 Q113.985107421875,-304.3503723144531 116.81802749633789,-305.1642608642578 Q119.65094757080078,-305.9781494140625 121.2894515991211,-306.3904571533203 L122.9279556274414,-306.8027648925781 L124.64033508300781,-307.2361297607422 Q126.35271453857422,-307.66949462890625 128.01226425170898,-308.2402801513672 Q129.67181396484375,-308.8110656738281 131.36315155029297,-309.4558410644531 Q133.0544891357422,-310.1006164550781 134.7245635986328,-310.8617706298828 L136.39463806152344,-311.6229248046875 L138.04366302490234,-312.3522033691406 Q139.69268798828125,-313.08148193359375 141.37339782714844,-313.73687744140625 Q143.05410766601562,-314.39227294921875 144.74533081054688,-315.00537109375 L146.43655395507812,-315.61846923828125 L148.08558654785156,-316.2315673828125 Q149.734619140625,-316.84466552734375 151.33081817626953,-317.3837890625 Q152.92701721191406,-317.92291259765625 154.4808120727539,-318.41973876953125 Q156.03460693359375,-318.91656494140625 157.53567504882812,-319.4450378417969 Q159.0367431640625,-319.9735107421875 160.53770446777344,-320.4280242919922 Q162.03866577148438,-320.8825378417969 164.6813201904297,-321.54856872558594 Q167.323974609375,-322.214599609375 169.6600799560547,-322.72193908691406 Q171.99618530273438,-323.2292785644531 173.6029052734375,-323.5569763183594 L175.674560546875,-324.0115966796875" fill-rule="evenodd" style="fill:none;stroke:#000000;stroke-linecap:round;stroke-linejoin:round;stroke-width:7.692770957946777;" />
	<path d="M127.93818664550781,-324.7091064453125 L127.99111938476562,-324.75140380859375 Q128.04405212402344,-324.793701171875 130.15811157226562,-323.36671447753906 Q132.2721710205078,-321.9397277832031 133.06501007080078,-320.18504333496094 Q133.85784912109375,-318.43035888671875 134.5977554321289,-316.1259307861328 L135.33766174316406,-313.8215026855469 L136.88082885742188,-309.12823486328125 L138.33958435058594,-304.51959228515625 L139.04781341552734,-302.6063232421875 Q139.75604248046875,-300.69305419921875 140.64401245117188,-299.0228576660156 L142.08151245117188,-296.6126708984375" fill-rule="evenodd" style="fill:none;stroke:#000000;stroke-linecap:round;stroke-linejoin:round;stroke-width:7.692770957946777;" />
	<path d="M112.23042297363281,-319.466064453125 L112.23042297363281,-319.43438720703125 Q112.23042297363281,-319.4027099609375 113.19237518310547,-317.3731689453125 L114.15432739257812,-315.3436279296875 L115.61309051513672,-311.58062744140625 L117.19855499267578,-307.09869384765625 L118.72087860107422,-302.42645263671875 L119.49246215820312,-300.30177307128906 Q120.26404571533203,-298.1770935058594 121.01457977294922,-296.62330627441406 L124.2385482788086,-292.7861328125" fill-rule="evenodd" style="fill:none;stroke:#000000;stroke-linecap:round;stroke-linejoin:round;stroke-width:7.692770957946777;" />
	<path d="M150.1997528076172,-330.6497802734375 L150.16807556152344,-330.6497802734375 Q150.1363983154297,-330.6497802734375 151.23567962646484,-329.3707580566406 Q152.3349609375,-328.09173583984375 153.10665130615234,-326.4532470703125 Q153.8783416748047,-324.81475830078125 154.52310943603516,-322.82749938964844 L155.16787719726562,-320.8402404785156 L156.18255615234375,-316.7177734375 L157.091796875,-312.95477294921875 L157.49346923828125,-311.46434020996094 Q157.8951416015625,-309.9739074707031 158.8253173828125,-308.6102752685547 L159.98806762695312,-307.056396484375" fill-rule="evenodd" style="fill:none;stroke:#000000;stroke-linecap:round;stroke-linejoin:round;stroke-width:7.692770957946777;" />
	<g transform="matrix(0.496909, 0.000000, 0.000000, 0.496909, 558.630859, -139.246216)">
		<rect x="-512.0" y="-149.69579629241002" width="1024.0" height="299.39159258482005" fill="#FFFFFF" />
	</g>
	<path d="M68.07220458984375,-332.47991943359375 L67.95751953125,-332.4571228027344 Q67.84283447265625,-332.434326171875 64.40744018554688,-332.5260009765625 Q60.9720458984375,-332.61767578125 57.147430419921875,-332.93824768066406 Q53.32281494140625,-333.2588195800781 49.08575439453125,-333.5793914794922 Q44.84869384765625,-333.89996337890625 40.222412109375,-333.94580078125 Q35.59613037109375,-333.99163818359375 31.634033203125,-333.94580078125 Q27.67193603515625,-333.89996337890625 22.862335205078125,-333.3732604980469 Q18.052734375,-332.8465576171875 14.617340087890625,-332.7549133300781 Q11.18194580078125,-332.66326904296875 7.586273193359375,-332.7549133300781 L3.9906005859375,-332.8465576171875 L0.394683837890625,-332.8465576171875 L-3.20123291015625,-332.8465576171875 L-6.636627197265625,-332.8237609863281 Q-10.072021484375,-332.80096435546875 -14.835784912109375,-333.2588195800781 Q-19.59954833984375,-333.7166748046875 -24.363311767578125,-334.0374755859375 Q-29.1270751953125,-334.3582763671875 -32.49359130859375,-334.5413513183594 Q-35.860107421875,-334.72442626953125 -39.22688293457031,-334.9994201660156 Q-42.593658447265625,-335.2744140625 -46.07487487792969,-335.5033264160156 Q-49.55609130859375,-335.73223876953125 -52.89982604980469,-335.9613952636719 L-56.243560791015625,-336.1905517578125 L-59.678955078125,-336.1905517578125 L-63.114349365234375,-336.1905517578125 L-66.755859375,-336.0072326660156 Q-70.39736938476562,-335.82391357421875 -74.08470153808594,-335.6405944824219 Q-77.77203369140625,-335.457275390625 -81.20742797851562,-335.3886413574219 Q-84.642822265625,-335.32000732421875 -87.94096374511719,-335.4116668701172 Q-91.23910522460938,-335.5033264160156 -96.0484619140625,-335.68641662597656 Q-100.85781860351562,-335.8695068359375 -104.31623840332031,-335.91534423828125 Q-107.774658203125,-335.961181640625 -112.3551025390625,-336.3734130859375 Q-116.935546875,-336.78564453125 -121.40153503417969,-337.3583984375 Q-125.86752319335938,-337.93115234375 -130.3793487548828,-338.2517395019531 L-134.89117431640625,-338.57232666015625 L-138.16627502441406,-338.57232666015625 L-145.81593322753906,-338.57232666015625 L-150.19049072265625,-338.57232666015625 L-154.1984100341797,-338.5036926269531 Q-158.20632934570312,-338.43505859375 -161.7561798095703,-338.6181335449219 Q-165.3060302734375,-338.80120849609375 -168.90171813964844,-339.0303649902344 Q-172.49740600585938,-339.259521484375 -175.9099884033203,-339.4884338378906 Q-179.32257080078125,-339.71734619140625 -182.94105529785156,-339.67152404785156 Q-186.55953979492188,-339.6257019042969 -190.0865936279297,-339.4654083251953 Q-193.6136474609375,-339.30511474609375 -197.16372680664062,-339.1217956542969 Q-200.71380615234375,-338.9384765625 -204.836181640625,-338.8698425292969 Q-208.95855712890625,-338.80120849609375 -212.3253173828125,-338.64093017578125 Q-215.69207763671875,-338.48065185546875 -219.05862426757812,-338.2514953613281 Q-222.4251708984375,-338.0223388671875 -225.7002716064453,-337.7934265136719 Q-228.97537231445312,-337.56451416015625 -232.5940704345703,-337.15228271484375 Q-236.2127685546875,-336.74005126953125 -240.19789123535156,-336.3278045654297 Q-244.18301391601562,-335.9155578613281 -247.80149841308594,-335.526123046875 Q-251.41998291015625,-335.1366882324219 -255.0386962890625,-335.11387634277344 L-261.81805419921875,-334.49554443359375" fill-rule="evenodd" style="fill:none;stroke:#F5060B;stroke-linecap:round;stroke-linejoin:round;stroke-width:7.692770957946777;" />
	<path d="M-266.9482116699219,-346.9087219238281 L-266.9482116699219,-346.9545440673828 Q-266.9482116699219,-347.0003662109375 -266.3756866455078,-343.24440002441406 L-265.80316162109375,-339.4884338378906 L-264.88702392578125,-332.47991943359375 L-264.2456359863281,-327.9681091308594 Q-263.604248046875,-323.456298828125 -267.3602294921875,-323.2960205078125 Q-271.1162109375,-323.1357421875 -274.2082214355469,-324.5557556152344 Q-277.30023193359375,-325.97576904296875 -281.21649169921875,-326.84608459472656 Q-285.13275146484375,-327.7164001464844 -289.0262145996094,-328.35755920410156 Q-292.919677734375,-328.99871826171875 -291.82044982910156,-332.45713806152344 Q-290.7212219238281,-335.9155578613281 -287.1483459472656,-337.9539489746094 L-283.5754699707031,-339.9923400878906 L-279.3614196777344,-342.3282775878906 Q-275.1473693847656,-344.6642150878906 -271.9867248535156,-346.19871520996094 L-266.6276550292969,-347.91650390625" fill-rule="evenodd" style="fill:none;stroke:#F5060B;stroke-linecap:round;stroke-linejoin:round;stroke-width:7.692770957946777;" />
	<path d="M-267.55914306640625,-123.99229431152344 L-267.55914306640625,-123.75088500976562 L-267.3783721923828,-118.32200622558594 Q-267.1976013183594,-112.89312744140625 -265.38787841796875,-108.64041137695312 Q-263.5781555175781,-104.3876953125 -260.1397705078125,-100.85861206054688 Q-256.7013854980469,-97.32952880859375 -251.39291381835938,-95.64051818847656 Q-246.08444213867188,-93.95150756835938 -241.34918212890625,-93.68006896972656 Q-236.61392211914062,-93.40863037109375 -231.4564971923828,-94.01187133789062 Q-226.299072265625,-94.6151123046875 -221.20169067382812,-95.73121643066406 Q-216.10430908203125,-96.84732055664062 -211.21832275390625,-97.7823486328125 Q-206.33233642578125,-98.71737670898438 -201.747802734375,-99.29029846191406 Q-197.16326904296875,-99.86322021484375 -192.30731201171875,-100.04428100585938 Q-187.45135498046875,-100.225341796875 -181.96212768554688,-100.97932434082031 Q-176.472900390625,-101.73330688476562 -170.16903686523438,-102.51760864257812 Q-163.86517333984375,-103.30191040039062 -157.2901611328125,-103.72409057617188 Q-150.71514892578125,-104.14627075195312 -144.531982421875,-104.05558776855469 Q-138.34881591796875,-103.96490478515625 -132.16595458984375,-103.39198303222656 Q-125.98309326171875,-102.81906127929688 -119.82998657226562,-102.03475952148438 Q-113.6768798828125,-101.25045776367188 -108.308349609375,-99.59176635742188 Q-102.9398193359375,-97.93307495117188 -98.86785888671875,-95.731201171875 Q-94.7958984375,-93.52932739257812 -89.93994140625,-89.66876220703125 Q-85.083984375,-85.80819702148438 -81.46481323242188,-82.46018981933594 Q-77.84564208984375,-79.1121826171875 -74.76907348632812,-75.97555541992188 Q-71.6925048828125,-72.83892822265625 -68.4351806640625,-76.60911560058594 Q-65.1778564453125,-80.37930297851562 -61.13623046875,-84.51132202148438 Q-57.0946044921875,-88.64334106445312 -53.173675537109375,-91.35777282714844 Q-49.25274658203125,-94.07220458984375 -45.1207275390625,-96.03266906738281 Q-40.98870849609375,-97.99313354492188 -36.072418212890625,-99.65213012695312 Q-31.1561279296875,-101.31112670898438 -26.692291259765625,-102.51760864257812 Q-22.22845458984375,-103.72409057617188 -16.708892822265625,-103.66372680664062 Q-11.1893310546875,-103.60336303710938 -6.665191650390625,-103.39228820800781 Q-2.14105224609375,-103.18121337890625 3.61962890625,-102.93978881835938 Q9.38031005859375,-102.6983642578125 15.020599365234375,-102.39689636230469 Q20.660888671875,-102.09542846679688 26.059722900390625,-101.70327758789062 Q31.45855712890625,-101.31112670898438 37.430328369140625,-101.34115600585938 Q43.402099609375,-101.37118530273438 49.43450927734375,-101.73330688476562 Q55.4669189453125,-102.09542846679688 61.137237548828125,-102.15548706054688 Q66.80755615234375,-102.21554565429688 72.68893432617188,-102.27589416503906 Q78.5703125,-102.33624267578125 84.33099365234375,-102.75872802734375 Q90.0916748046875,-103.18121337890625 95.79229736328125,-103.60337829589844 Q101.492919921875,-104.02554321289062 106.19784545898438,-104.38737487792969 Q110.90277099609375,-104.74920654296875 116.51300048828125,-106.01605224609375 Q122.12322998046875,-107.28289794921875 128.15536499023438,-108.73049926757812 Q134.1875,-110.1781005859375 139.5560302734375,-111.68635559082031 Q144.924560546875,-113.19461059570312 150.02194213867188,-115.33613586425781 Q155.11932373046875,-117.4776611328125 159.64346313476562,-118.95527648925781 Q164.1676025390625,-120.43289184570312 168.26959228515625,-122.9365463256836 Q172.37158203125,-125.44020080566406 175.35748291015625,-128.60684967041016 Q178.3433837890625,-131.77349853515625 179.27841186523438,-136.62946319580078 L180.21343994140625,-142.51113891601562" fill-rule="evenodd" style="fill:none;stroke:#F5060B;stroke-linecap:round;stroke-linejoin:round;stroke-width:7.692770957946777;" />
	<path d="M-83.57598876953125,-48.40838623046875 L-83.57598876953125,-48.46873474121094 Q-83.57598876953125,-48.529083251953125 -84.54135131835938,-43.190582275390625 Q-85.5067138671875,-37.852081298828125 -88.16079711914062,-31.367462158203125 L-90.81488037109375,-24.882843017578125 L-95.5802001953125,-13.783050537109375 L-97.08843994140625,-9.681365966796875 Q-98.5966796875,-5.579681396484375 -92.112060546875,-5.5193328857421875 Q-85.62744140625,-5.458984375 -80.56008911132812,-5.88116455078125 Q-75.49273681640625,-6.3033447265625 -71.08929443359375,-6.4240570068359375 Q-66.68585205078125,-6.544769287109375 -67.13833618164062,-12.908676147460938 Q-67.5908203125,-19.2725830078125 -71.51174926757812,-25.81756591796875 Q-75.43267822265625,-32.362548828125 -77.81533813476562,-37.21852111816406 Q-80.197998046875,-42.074493408203125 -83.3045654296875,-45.24143981933594 L-86.83331298828125,-49.25274658203125" fill-rule="evenodd" style="fill:none;stroke:#F5060B;stroke-linecap:round;stroke-linejoin:round;stroke-width:7.692770957946777;" />
	<path d="M-49.735595703125,-46.4176025390625 L-49.765625,-46.4176025390625 Q-49.795654296875,-46.4176025390625 -52.17828369140625,-42.31561279296875 Q-54.5609130859375,-38.213623046875 -55.616668701171875,-32.57365417480469 Q-56.67242431640625,-26.933685302734375 -56.67242431640625,-21.866622924804688 Q-56.67242431640625,-16.799560546875 -53.5054931640625,-13.753326416015625 Q-50.33856201171875,-10.70709228515625 -44.728607177734375,-12.36578369140625 Q-39.11865234375,-14.02447509765625 -35.167388916015625,-16.799270629882812 Q-31.21612548828125,-19.574066162109375 -28.44134521484375,-23.977828979492188 Q-25.66656494140625,-28.381591796875 -26.0286865234375,-33.72007751464844 Q-26.39080810546875,-39.058563232421875 -29.467071533203125,-43.94456481933594 Q-32.5433349609375,-48.83056640625 -35.589569091796875,-52.087890625 Q-38.63580322265625,-55.34521484375 -43.91424560546875,-54.5008544921875 Q-49.19268798828125,-53.656494140625 -52.299285888671875,-49.67521667480469 Q-55.4058837890625,-45.693939208984375 -53.173980712890625,-40.98870849609375 Q-50.94207763671875,-36.283477783203125 -46.3875732421875,-36.0723876953125 Q-41.83306884765625,-35.861297607421875 -35.7706298828125,-37.36924743652344 L-27.53662109375,-39.239349365234375" fill-rule="evenodd" style="fill:none;stroke:#F5060B;stroke-linecap:round;stroke-linejoin:round;stroke-width:7.692770957946777;" />
	<path d="M323.31744384765625,-333.51324462890625 L323.31744384765625,-333.4744873046875 Q323.31744384765625,-333.43572998046875 333.5201416015625,-333.39695739746094 L343.72283935546875,-333.3581848144531 L352.290283203125,-333.3581848144531 Q360.85772705078125,-333.3581848144531 366.54315185546875,-332.3455505371094 L373.16290283203125,-330.55364990234375" fill-rule="evenodd" style="fill:none;stroke:#F5060B;stroke-linecap:round;stroke-linejoin:round;stroke-width:7.692770957946777;" />
	<path d="M345.6697998046875,-332.9681701660156 L345.6697998046875,-332.89024353027344 Q345.6697998046875,-332.81231689453125 346.3711242675781,-326.3092956542969 Q347.07244873046875,-319.8062744140625 347.07244873046875,-312.6798553466797 L347.07244873046875,-298.9724884033203 L347.07244873046875,-286.082763671875 L347.07244873046875,-279.77398681640625 L345.82568359375,-265.83282470703125 L345.4364013671875,-252.04754638671875 L344.34625244140625,-237.87301635742188 L344.0345458984375,-230.74659729003906 Q343.72283935546875,-223.62017822265625 344.42376708984375,-216.45498657226562 L345.12469482421875,-209.289794921875 L346.2156982421875,-197.99655151367188 L346.37152099609375,-183.89956665039062 L346.994140625,-169.49087524414062 L347.14996337890625,-156.64068603515625 L346.83831787109375,-143.55633544921875 L346.059814453125,-131.7955322265625 L345.51470947265625,-119.412109375 L345.12469482421875,-106.79531860351562 L344.7354736328125,-92.38662719726562 L343.95703125,-76.18682861328125 L343.3336181640625,-64.03680419921875 L342.71099853515625,-52.588470458984375 L342.32098388671875,-40.515960693359375 L342.00927734375,-28.055023193359375 L341.308349609375,-14.50311279296875 L340.140625,-0.32861328125 L339.51727294921875,13.92425537109375 L339.20556640625,27.787841796875 L339.20556640625,42.429931640625 L339.12799072265625,57.69464111328125 L338.73876953125,72.9600830078125 L337.72613525390625,89.782470703125 L336.48016357421875,106.6832275390625 L335.7791748046875,124.1290283203125 L335.38995361328125,142.2757568359375 L335.15582275390625,159.95574951171875 L334.76654052734375,177.86907958984375 L334.22149658203125,195.08074951171875 L333.832275390625,211.35882568359375 L333.52056884765625,225.61163330078125 L333.052978515625,239.55279541015625 L332.58544921875,252.325439453125 L332.11865234375,264.2413330078125 L331.33941650390625,279.74017333984375 L330.482666015625,294.4605712890625 L329.93756103515625,306.843994140625 L329.15911865234375,317.98138427734375 L328.76983642578125,330.52069091796875 L328.45819091796875,341.8914794921875 L328.06817626953125,353.4180908203125 L327.87353515625,359.571044921875 L327.5230712890625,375.3812255859375" fill-rule="evenodd" style="fill:none;stroke:#F5060B;stroke-linecap:round;stroke-linejoin:round;stroke-width:7.692770957946777;" />
	<path d="M306.2198486328125,375.8814697265625 L306.30072021484375,375.92169189453125 Q306.381591796875,375.9619140625 314.50408935546875,378.0631408691406 Q322.6265869140625,380.16436767578125 329.617431640625,380.32611083984375 Q336.6082763671875,380.48785400390625 343.07366943359375,381.7808532714844 L350.671142578125,383.31683349609375" fill-rule="evenodd" style="fill:none;stroke:#F5060B;stroke-linecap:round;stroke-linejoin:round;stroke-width:7.692770957946777;" />
	<path d="M407.0589294433594,-50.6937255859375 L407.0215148925781,-50.65631103515625 Q406.9841003417969,-50.618896484375 405.50697326660156,-47.06616973876953 Q404.02984619140625,-43.51344299316406 401.7859649658203,-39.97932434082031 Q399.5420837402344,-36.44520568847656 397.0924987792969,-33.39751434326172 Q394.6429138183594,-30.349822998046875 391.81951904296875,-28.274215698242188 Q388.9961242675781,-26.1986083984375 385.1442565917969,-24.534400939941406 Q381.2923889160156,-22.870193481445312 378.20709228515625,-22.253280639648438 Q375.1217956542969,-21.636367797851562 372.7470397949219,-23.356613159179688 Q370.3722839355469,-25.076858520507812 370.6902313232422,-27.769371032714844 Q371.0081787109375,-30.461883544921875 373.23326110839844,-34.93085479736328 Q375.4583435058594,-39.39982604980469 378.41278076171875,-42.802886962890625 Q381.3672180175781,-46.20594787597656 383.7980041503906,-47.720489501953125 Q386.2287902832031,-49.23503112792969 388.45387268066406,-47.1033935546875 Q390.678955078125,-44.97175598144531 392.8666229248047,-39.84845733642578 Q395.0542907714844,-34.72515869140625 396.6250457763672,-31.939010620117188 Q398.19580078125,-29.152862548828125 400.3274383544922,-26.927772521972656 Q402.4590759277344,-24.702682495117188 404.8338317871094,-22.963829040527344 Q407.2085876464844,-21.2249755859375 411.37823486328125,-19.616798400878906 L421.7557067871094,-17.036529541015625" fill-rule="evenodd" style="fill:none;stroke:#F5060B;stroke-linecap:round;stroke-linejoin:round;stroke-width:7.692770957946777;" />
</svg>